SplineFontDB: 3.0
FontName: ShareTechMono-Regular
FullName: Share Tech Mono
FamilyName: Share Tech Mono
Weight: Book
Copyright: Copyright (c) 2012, Carrois Type Design, Ralph du Carrois (post@carrois.com www.carrois.com), with Reserved Font Name 'Share'
Version: 1.002
ItalicAngle: 0
UnderlinePosition: -61
UnderlineWidth: 75
Ascent: 800
Descent: 200
sfntRevision: 0x00010083
LayerCount: 2
Layer: 0 1 "Back"  1
Layer: 1 1 "Fore"  0
XUID: [1021 262 1693955032 9259594]
FSType: 0
OS2Version: 3
OS2_WeightWidthSlopeOnly: 0
OS2_UseTypoMetrics: 1
CreationTime: 1130492160
ModificationTime: 1350611407
PfmFamily: 17
TTFWeight: 400
TTFWidth: 5
LineGap: 0
VLineGap: 0
Panose: 2 0 5 9 4 0 0 2 0 4
OS2TypoAscent: 885
OS2TypoAOffset: 0
OS2TypoDescent: -242
OS2TypoDOffset: 0
OS2TypoLinegap: 0
OS2WinAscent: 885
OS2WinAOffset: 0
OS2WinDescent: 242
OS2WinDOffset: 0
HheadAscent: 885
HheadAOffset: 0
HheadDescent: -242
HheadDOffset: 0
OS2SubXSize: 650
OS2SubYSize: 600
OS2SubXOff: 0
OS2SubYOff: 75
OS2SupXSize: 650
OS2SupYSize: 600
OS2SupXOff: 0
OS2SupYOff: 350
OS2StrikeYSize: 75
OS2StrikeYPos: 300
OS2Vendor: 'pyrs'
OS2CodePages: 20000001.00000000
OS2UnicodeRanges: 800000af.4000204a.00000000.00000000
Lookup: 1 0 0 "'aalt' Access All Alternates in Latin lookup 0"  {"'aalt' Access All Alternates in Latin lookup 0 subtable"  } ['aalt' ('latn' <'dflt' > ) ]
Lookup: 4 0 0 "'frac' Diagonal Fractions in Latin lookup 1"  {"'frac' Diagonal Fractions in Latin lookup 1 subtable"  } ['frac' ('latn' <'dflt' > ) ]
Lookup: 1 0 0 "'numr' Numerators in Latin lookup 2"  {"'numr' Numerators in Latin lookup 2 subtable"  } ['numr' ('latn' <'dflt' > ) ]
Lookup: 4 0 1 "'liga' Standard Ligatures in Latin lookup 3"  {"'liga' Standard Ligatures in Latin lookup 3 subtable"  } ['liga' ('latn' <'dflt' > ) ]
Lookup: 1 0 0 "'ordn' Ordinals in Latin lookup 4"  {"'ordn' Ordinals in Latin lookup 4 subtable"  } ['ordn' ('latn' <'dflt' > ) ]

StartChar: .notdef
Encoding: 65536 -1 0
Width: 540
Flags: W
LayerCount: 2
Fore
SplineSet
84 0 m 1,0,-1
 84 700 l 1,1,-1
 456 700 l 1,2,-1
 456 0 l 1,3,-1
 84 0 l 1,0,-1
159 72 m 1,4,-1
 381 72 l 1,5,-1
 381 628 l 1,6,-1
 159 628 l 1,7,-1
 159 72 l 1,4,-1
EndSplineSet
EndChar

StartChar: exclam
Encoding: 33 33 5
Width: 540
GlyphClass: 2
Flags: W
LayerCount: 2
Fore
SplineSet
320 0 m 1,0,-1
 220 0 l 1,1,-1
 220 100 l 1,2,-1
 320 100 l 1,3,-1
 320 0 l 1,0,-1
312 208 m 1,4,-1
 227 208 l 1,5,-1
 227 700 l 1,6,-1
 312 700 l 1,7,-1
 312 208 l 1,4,-1
EndSplineSet
EndChar

StartChar: quotedbl
Encoding: 34 34 6
Width: 540
GlyphClass: 2
Flags: W
LayerCount: 2
Fore
SplineSet
145 700 m 1,0,-1
 240 700 l 1,1,-1
 240 610 l 1,2,-1
 220 453 l 1,3,-1
 165 453 l 1,4,-1
 145 610 l 1,5,-1
 145 700 l 1,0,-1
300 700 m 1,6,-1
 395 700 l 1,7,-1
 395 610 l 1,8,-1
 375 453 l 1,9,-1
 320 453 l 1,10,-1
 300 610 l 1,11,-1
 300 700 l 1,6,-1
EndSplineSet
EndChar

StartChar: numbersign
Encoding: 35 35 7
Width: 540
GlyphClass: 2
Flags: W
LayerCount: 2
Fore
SplineSet
310 255 m 1,0,-1
 310 455 l 1,1,-1
 230 455 l 1,2,-1
 230 255 l 1,3,-1
 310 255 l 1,0,-1
460 180 m 1,4,-1
 390 180 l 1,5,-1
 390 0 l 1,6,-1
 310 0 l 1,7,-1
 310 180 l 1,8,-1
 230 180 l 1,9,-1
 230 0 l 1,10,-1
 150 0 l 1,11,-1
 150 180 l 1,12,-1
 80 180 l 1,13,-1
 80 255 l 1,14,-1
 150 255 l 1,15,-1
 150 455 l 1,16,-1
 80 455 l 1,17,-1
 80 530 l 1,18,-1
 150 530 l 1,19,-1
 150 700 l 1,20,-1
 230 700 l 1,21,-1
 230 530 l 1,22,-1
 310 530 l 1,23,-1
 310 700 l 1,24,-1
 390 700 l 1,25,-1
 390 530 l 1,26,-1
 460 530 l 1,27,-1
 460 455 l 1,28,-1
 390 455 l 1,29,-1
 390 255 l 1,30,-1
 460 255 l 1,31,-1
 460 180 l 1,4,-1
EndSplineSet
EndChar

StartChar: dollar
Encoding: 36 36 8
Width: 540
GlyphClass: 2
Flags: W
LayerCount: 2
Fore
SplineSet
312 -110 m 1,0,-1
 227 -110 l 1,1,-1
 227 0 l 1,2,-1
 122 0 l 1,3,-1
 122 76 l 1,4,-1
 264 76 l 2,5,6
 301 76 301 76 324 98 c 128,-1,7
 347 120 347 120 347 151 c 2,8,-1
 347 235 l 2,9,10
 347 265 347 265 331.5 283.5 c 128,-1,11
 316 302 316 302 285 302 c 2,12,-1
 265 302 l 2,13,14
 191 302 191 302 148 345.5 c 128,-1,15
 105 389 105 389 105 472 c 2,16,-1
 105 500 l 2,17,18
 105 638 105 638 227 664 c 1,19,-1
 227 780 l 1,20,-1
 312 780 l 1,21,-1
 312 670 l 1,22,-1
 418 670 l 1,23,-1
 418 594 l 1,24,-1
 275 594 l 2,25,26
 238 594 238 594 215 572 c 128,-1,27
 192 550 192 550 192 519 c 2,28,-1
 192 453 l 2,29,30
 192 422 192 422 212 401.5 c 128,-1,31
 232 381 232 381 264 381 c 2,32,-1
 284 381 l 2,33,34
 355 381 355 381 394.5 340 c 128,-1,35
 434 299 434 299 434 216 c 2,36,-1
 434 170 l 2,37,38
 434 32 434 32 312 5 c 1,39,-1
 312 -110 l 1,0,-1
EndSplineSet
EndChar

StartChar: percent
Encoding: 37 37 9
Width: 540
GlyphClass: 3
Flags: W
LayerCount: 2
Fore
SplineSet
527 354 m 1,0,-1
 12 281 l 1,1,-1
 12 343 l 1,2,-1
 527 416 l 1,3,-1
 527 354 l 1,0,-1
289 532 m 2,4,5
 289 469 289 469 257 436.5 c 128,-1,6
 225 404 225 404 167 404 c 2,7,-1
 159 404 l 2,8,9
 101 404 101 404 69 436.5 c 128,-1,10
 37 469 37 469 37 532 c 2,11,-1
 37 572 l 2,12,13
 37 635 37 635 69 667.5 c 128,-1,14
 101 700 101 700 159 700 c 2,15,-1
 167 700 l 2,16,17
 225 700 225 700 257 667.5 c 128,-1,18
 289 635 289 635 289 572 c 2,19,-1
 289 532 l 2,4,5
219 521 m 2,20,-1
 219 583 l 2,21,22
 219 608 219 608 206 624 c 128,-1,23
 193 640 193 640 167 640 c 2,24,-1
 159 640 l 2,25,26
 133 640 133 640 120 624 c 128,-1,27
 107 608 107 608 107 583 c 2,28,-1
 107 521 l 2,29,30
 107 496 107 496 120 480 c 128,-1,31
 133 464 133 464 159 464 c 2,32,-1
 167 464 l 2,33,34
 193 464 193 464 206 480 c 128,-1,35
 219 496 219 496 219 521 c 2,20,-1
499 128 m 2,36,37
 499 65 499 65 467 32.5 c 128,-1,38
 435 0 435 0 377 0 c 2,39,-1
 369 0 l 2,40,41
 311 0 311 0 279 32.5 c 128,-1,42
 247 65 247 65 247 128 c 2,43,-1
 247 168 l 2,44,45
 247 231 247 231 279 263.5 c 128,-1,46
 311 296 311 296 369 296 c 2,47,-1
 377 296 l 2,48,49
 435 296 435 296 467 263.5 c 128,-1,50
 499 231 499 231 499 168 c 2,51,-1
 499 128 l 2,36,37
429 117 m 2,52,-1
 429 179 l 2,53,54
 429 204 429 204 416 220 c 128,-1,55
 403 236 403 236 377 236 c 2,56,-1
 369 236 l 2,57,58
 343 236 343 236 330 220 c 128,-1,59
 317 204 317 204 317 179 c 2,60,-1
 317 117 l 2,61,62
 317 92 317 92 330 76 c 128,-1,63
 343 60 343 60 369 60 c 2,64,-1
 377 60 l 2,65,66
 403 60 403 60 416 76 c 128,-1,67
 429 92 429 92 429 117 c 2,52,-1
EndSplineSet
Ligature2: "'frac' Diagonal Fractions in Latin lookup 1 subtable" zero fraction zero
Ligature2: "'frac' Diagonal Fractions in Latin lookup 1 subtable" zero slash zero
EndChar

StartChar: ampersand
Encoding: 38 38 10
Width: 540
GlyphClass: 2
Flags: W
LayerCount: 2
Fore
SplineSet
417 0 m 1,0,-1
 253 0 l 2,1,2
 163 0 163 0 123 37.5 c 128,-1,3
 83 75 83 75 83 158 c 2,4,-1
 83 284 l 2,5,6
 83 371 83 371 148 407 c 1,7,8
 93 446 93 446 93 523 c 2,9,-1
 93 544 l 2,10,11
 93 700 93 700 265 700 c 2,12,-1
 371 700 l 1,13,-1
 371 625 l 1,14,-1
 253 625 l 2,15,16
 215 625 215 625 197.5 608 c 128,-1,17
 180 591 180 591 180 553 c 2,18,-1
 180 513 l 2,19,20
 180 480 180 480 201 460 c 128,-1,21
 222 440 222 440 253 440 c 2,22,-1
 496 440 l 1,23,-1
 496 365 l 1,24,-1
 417 365 l 1,25,-1
 417 0 l 1,0,-1
243 365 m 2,26,27
 210 365 210 365 190 345.5 c 128,-1,28
 170 326 170 326 170 293 c 2,29,-1
 170 148 l 2,30,31
 170 110 170 110 188 92.5 c 128,-1,32
 206 75 206 75 244 75 c 2,33,-1
 336 75 l 1,34,-1
 336 365 l 1,35,-1
 243 365 l 2,26,27
EndSplineSet
EndChar

StartChar: quotesingle
Encoding: 39 39 11
Width: 540
GlyphClass: 2
Flags: W
LayerCount: 2
Fore
SplineSet
222 700 m 1,0,-1
 317 700 l 1,1,-1
 317 610 l 1,2,-1
 297 453 l 1,3,-1
 242 453 l 1,4,-1
 222 610 l 1,5,-1
 222 700 l 1,0,-1
EndSplineSet
EndChar

StartChar: parenleft
Encoding: 40 40 12
Width: 540
GlyphClass: 2
Flags: W
LayerCount: 2
Fore
SplineSet
170 505 m 2,0,1
 170 621 170 621 199.5 693 c 128,-1,2
 229 765 229 765 282 820 c 1,3,-1
 370 820 l 1,4,5
 301 736 301 736 278 677.5 c 128,-1,6
 255 619 255 619 255 507 c 2,7,-1
 255 193 l 2,8,9
 255 81 255 81 278 22.5 c 128,-1,10
 301 -36 301 -36 370 -120 c 1,11,-1
 282 -120 l 1,12,13
 229 -65 229 -65 199.5 7 c 128,-1,14
 170 79 170 79 170 195 c 2,15,-1
 170 505 l 2,0,1
EndSplineSet
EndChar

StartChar: parenright
Encoding: 41 41 13
Width: 540
GlyphClass: 2
Flags: W
LayerCount: 2
Fore
SplineSet
370 505 m 2,0,-1
 370 195 l 2,1,2
 370 79 370 79 340.5 7 c 128,-1,3
 311 -65 311 -65 258 -120 c 1,4,-1
 170 -120 l 1,5,6
 239 -36 239 -36 262 22.5 c 128,-1,7
 285 81 285 81 285 193 c 2,8,-1
 285 507 l 2,9,10
 285 619 285 619 262 677.5 c 128,-1,11
 239 736 239 736 170 820 c 1,12,-1
 258 820 l 1,13,14
 311 765 311 765 340.5 693 c 128,-1,15
 370 621 370 621 370 505 c 2,0,-1
EndSplineSet
EndChar

StartChar: asterisk
Encoding: 42 42 14
Width: 540
GlyphClass: 2
Flags: W
LayerCount: 2
Fore
SplineSet
470 546 m 1,0,-1
 323 515 l 1,1,-1
 429 392 l 1,2,-1
 357 340 l 1,3,-1
 269 482 l 1,4,-1
 178 340 l 1,5,-1
 108 393 l 1,6,-1
 215 515 l 1,7,-1
 70 547 l 1,8,-1
 97 627 l 1,9,-1
 238 570 l 1,10,-1
 225 722 l 1,11,-1
 315 722 l 1,12,-1
 302 570 l 1,13,-1
 445 625 l 1,14,-1
 470 546 l 1,0,-1
EndSplineSet
EndChar

StartChar: plus
Encoding: 43 43 15
Width: 540
GlyphClass: 2
Flags: W
LayerCount: 2
Fore
SplineSet
460 275 m 1,0,-1
 310 275 l 1,1,-1
 310 118 l 1,2,-1
 230 118 l 1,3,-1
 230 275 l 1,4,-1
 79 275 l 1,5,-1
 79 350 l 1,6,-1
 230 350 l 1,7,-1
 230 508 l 1,8,-1
 310 508 l 1,9,-1
 310 350 l 1,10,-1
 460 350 l 1,11,-1
 460 275 l 1,0,-1
EndSplineSet
EndChar

StartChar: comma
Encoding: 44 44 16
Width: 540
GlyphClass: 2
Flags: W
LayerCount: 2
Fore
SplineSet
240 100 m 1,0,-1
 340 100 l 1,1,-1
 340 0 l 1,2,-1
 278 -140 l 1,3,-1
 200 -140 l 1,4,-1
 240 0 l 1,5,-1
 240 100 l 1,0,-1
EndSplineSet
EndChar

StartChar: hyphen
Encoding: 45 45 17
Width: 540
GlyphClass: 2
Flags: W
LayerCount: 2
Fore
SplineSet
432 275 m 1,0,-1
 107 275 l 1,1,-1
 107 350 l 1,2,-1
 432 350 l 1,3,-1
 432 275 l 1,0,-1
EndSplineSet
EndChar

StartChar: period
Encoding: 46 46 18
Width: 540
GlyphClass: 2
Flags: W
LayerCount: 2
Fore
SplineSet
320 0 m 1,0,-1
 220 0 l 1,1,-1
 220 100 l 1,2,-1
 320 100 l 1,3,-1
 320 0 l 1,0,-1
EndSplineSet
EndChar

StartChar: slash
Encoding: 47 47 19
Width: 540
GlyphClass: 2
Flags: W
LayerCount: 2
Fore
SplineSet
490 810 m 1,0,-1
 134 -110 l 1,1,-1
 50 -110 l 1,2,-1
 406 810 l 1,3,-1
 490 810 l 1,0,-1
EndSplineSet
Substitution2: "'numr' Numerators in Latin lookup 2 subtable" fraction
Substitution2: "'aalt' Access All Alternates in Latin lookup 0 subtable" fraction
EndChar

StartChar: zero
Encoding: 48 48 20
Width: 540
GlyphClass: 2
Flags: W
LayerCount: 2
Fore
SplineSet
448 170 m 2,0,1
 448 87 448 87 402.5 43.5 c 128,-1,2
 357 0 357 0 280 0 c 2,3,-1
 260 0 l 2,4,5
 183 0 183 0 137.5 43.5 c 128,-1,6
 92 87 92 87 92 170 c 2,7,-1
 92 530 l 2,8,9
 92 614 92 614 137 657 c 128,-1,10
 182 700 182 700 260 700 c 2,11,-1
 280 700 l 2,12,13
 358 700 358 700 403 657 c 128,-1,14
 448 614 448 614 448 530 c 2,15,-1
 448 170 l 2,0,1
177 549 m 2,16,-1
 177 278 l 1,17,-1
 363 549 l 1,18,19
 363 580 363 580 339.5 602.5 c 128,-1,20
 316 625 316 625 280 625 c 2,21,-1
 260 625 l 2,22,23
 224 625 224 625 200.5 602.5 c 128,-1,24
 177 580 177 580 177 549 c 2,16,-1
363 151 m 2,25,-1
 363 421 l 1,26,-1
 177 151 l 1,27,28
 177 120 177 120 200.5 97.5 c 128,-1,29
 224 75 224 75 260 75 c 2,30,-1
 280 75 l 2,31,32
 316 75 316 75 339.5 97.5 c 128,-1,33
 363 120 363 120 363 151 c 2,25,-1
EndSplineSet
EndChar

StartChar: one
Encoding: 49 49 21
Width: 540
GlyphClass: 2
Flags: W
LayerCount: 2
Fore
SplineSet
437 0 m 1,0,-1
 112 0 l 1,1,-1
 112 75 l 1,2,-1
 243 75 l 1,3,-1
 243 621 l 1,4,-1
 102 569 l 1,5,-1
 102 650 l 1,6,-1
 233 700 l 1,7,-1
 328 700 l 1,8,-1
 328 75 l 1,9,-1
 437 75 l 1,10,-1
 437 0 l 1,0,-1
EndSplineSet
Substitution2: "'sups' Superscript in Latin lookup 5 subtable" onesuperior
Substitution2: "'numr' Numerators in Latin lookup 2 subtable" onesuperior
Substitution2: "'aalt' Access All Alternates in Latin lookup 0 subtable" onesuperior
EndChar

StartChar: two
Encoding: 50 50 22
Width: 540
GlyphClass: 2
Flags: W
LayerCount: 2
Fore
SplineSet
435 0 m 1,0,-1
 105 0 l 1,1,-1
 105 88 l 1,2,-1
 265 316 l 2,3,4
 309 379 309 379 318.5 402.5 c 128,-1,5
 328 426 328 426 328 479 c 2,6,-1
 328 549 l 2,7,8
 328 580 328 580 305 602 c 128,-1,9
 282 624 282 624 245 624 c 2,10,-1
 125 624 l 1,11,-1
 125 700 l 1,12,-1
 235 700 l 2,13,14
 322 700 322 700 368.5 657.5 c 128,-1,15
 415 615 415 615 415 530 c 2,16,-1
 415 488 l 2,17,18
 415 417 415 417 401 381.5 c 128,-1,19
 387 346 387 346 345 285 c 2,20,-1
 197 76 l 1,21,-1
 435 76 l 1,22,-1
 435 0 l 1,0,-1
EndSplineSet
Substitution2: "'sups' Superscript in Latin lookup 5 subtable" twosuperior
Substitution2: "'numr' Numerators in Latin lookup 2 subtable" twosuperior
Substitution2: "'aalt' Access All Alternates in Latin lookup 0 subtable" twosuperior
EndChar

StartChar: three
Encoding: 51 51 23
Width: 540
GlyphClass: 2
Flags: W
LayerCount: 2
Fore
SplineSet
419 158 m 2,0,1
 419 75 419 75 379 37.5 c 128,-1,2
 339 0 339 0 249 0 c 2,3,-1
 121 0 l 1,4,-1
 121 75 l 1,5,-1
 258 75 l 2,6,7
 296 75 296 75 314 92.5 c 128,-1,8
 332 110 332 110 332 148 c 2,9,-1
 332 251 l 2,10,11
 332 284 332 284 312 303.5 c 128,-1,12
 292 323 292 323 259 323 c 2,13,-1
 152 323 l 1,14,-1
 152 398 l 1,15,-1
 249 398 l 2,16,17
 280 398 280 398 301 418 c 128,-1,18
 322 438 322 438 322 471 c 2,19,-1
 322 553 l 2,20,21
 322 591 322 591 304.5 608 c 128,-1,22
 287 625 287 625 249 625 c 2,23,-1
 121 625 l 1,24,-1
 121 700 l 1,25,-1
 237 700 l 2,26,27
 409 700 409 700 409 544 c 2,28,-1
 409 481 l 2,29,30
 409 404 409 404 354 365 c 1,31,32
 419 329 419 329 419 242 c 2,33,-1
 419 158 l 2,0,1
EndSplineSet
Substitution2: "'sups' Superscript in Latin lookup 5 subtable" threesuperior
Substitution2: "'numr' Numerators in Latin lookup 2 subtable" threesuperior
Substitution2: "'aalt' Access All Alternates in Latin lookup 0 subtable" threesuperior
EndChar

StartChar: four
Encoding: 52 52 24
Width: 540
GlyphClass: 2
Flags: W
LayerCount: 2
Fore
SplineSet
453 156 m 1,0,-1
 378 156 l 1,1,-1
 378 0 l 1,2,-1
 293 0 l 1,3,-1
 293 156 l 1,4,-1
 87 156 l 1,5,-1
 87 242 l 1,6,-1
 194 700 l 1,7,-1
 275 700 l 1,8,-1
 173 229 l 1,9,-1
 293 229 l 1,10,-1
 293 457 l 1,11,-1
 378 457 l 1,12,-1
 378 229 l 1,13,-1
 453 229 l 1,14,-1
 453 156 l 1,0,-1
EndSplineSet
EndChar

StartChar: five
Encoding: 53 53 25
Width: 540
GlyphClass: 2
Flags: W
LayerCount: 2
Fore
SplineSet
420 158 m 2,0,1
 420 75 420 75 380 37.5 c 128,-1,2
 340 0 340 0 250 0 c 2,3,-1
 119 0 l 1,4,-1
 119 75 l 1,5,-1
 259 75 l 2,6,7
 297 75 297 75 315 92.5 c 128,-1,8
 333 110 333 110 333 148 c 2,9,-1
 333 275 l 2,10,11
 333 308 333 308 313 327.5 c 128,-1,12
 293 347 293 347 260 347 c 2,13,-1
 129 347 l 1,14,-1
 129 700 l 1,15,-1
 405 700 l 1,16,-1
 405 625 l 1,17,-1
 214 625 l 1,18,-1
 214 422 l 1,19,-1
 255 422 l 2,20,21
 332 422 332 422 376 384 c 128,-1,22
 420 346 420 346 420 266 c 2,23,-1
 420 158 l 2,0,1
EndSplineSet
EndChar

StartChar: six
Encoding: 54 54 26
Width: 540
GlyphClass: 2
Flags: W
LayerCount: 2
Fore
SplineSet
448 170 m 2,0,1
 448 88 448 88 403 44 c 128,-1,2
 358 0 358 0 290 0 c 2,3,-1
 255 0 l 2,4,5
 187 0 187 0 142 44 c 128,-1,6
 97 88 97 88 97 170 c 2,7,-1
 97 530 l 2,8,9
 97 700 97 700 275 700 c 2,10,-1
 400 700 l 1,11,-1
 400 624 l 1,12,-1
 265 624 l 2,13,14
 228 624 228 624 205 602 c 128,-1,15
 182 580 182 580 182 549 c 2,16,-1
 182 440 l 1,17,-1
 280 440 l 2,18,19
 366 440 366 440 407 402 c 128,-1,20
 448 364 448 364 448 280 c 2,21,-1
 448 170 l 2,0,1
290 365 m 2,22,-1
 182 365 l 1,23,-1
 182 151 l 2,24,25
 182 119 182 119 203 97 c 128,-1,26
 224 75 224 75 260 75 c 2,27,-1
 285 75 l 2,28,29
 321 75 321 75 342 97 c 128,-1,30
 363 119 363 119 363 151 c 2,31,-1
 363 299 l 2,32,33
 363 365 363 365 290 365 c 2,22,-1
EndSplineSet
EndChar

StartChar: seven
Encoding: 55 55 27
Width: 540
GlyphClass: 2
Flags: W
LayerCount: 2
Fore
SplineSet
104 625 m 1,0,-1
 104 700 l 1,1,-1
 429 700 l 1,2,-1
 429 603 l 1,3,-1
 253 0 l 1,4,-1
 164 0 l 1,5,-1
 346 625 l 1,6,-1
 104 625 l 1,0,-1
EndSplineSet
EndChar

StartChar: eight
Encoding: 56 56 28
Width: 540
GlyphClass: 2
Flags: W
LayerCount: 2
Fore
SplineSet
454 158 m 2,0,1
 454 75 454 75 414 37.5 c 128,-1,2
 374 0 374 0 284 0 c 2,3,-1
 256 0 l 2,4,5
 166 0 166 0 126 37.5 c 128,-1,6
 86 75 86 75 86 158 c 2,7,-1
 86 242 l 2,8,9
 86 329 86 329 151 365 c 1,10,11
 98 402 98 402 98 481 c 2,12,-1
 98 544 l 2,13,14
 98 700 98 700 260 700 c 2,15,-1
 280 700 l 2,16,17
 442 700 442 700 442 544 c 2,18,-1
 442 481 l 2,19,20
 442 402 442 402 389 365 c 1,21,22
 454 329 454 329 454 242 c 2,23,-1
 454 158 l 2,0,1
367 251 m 2,24,25
 367 284 367 284 347 303.5 c 128,-1,26
 327 323 327 323 294 323 c 2,27,-1
 246 323 l 2,28,29
 213 323 213 323 193 303.5 c 128,-1,30
 173 284 173 284 173 251 c 2,31,-1
 173 148 l 2,32,33
 173 75 173 75 239 75 c 2,34,-1
 293 75 l 2,35,36
 331 75 331 75 349 92.5 c 128,-1,37
 367 110 367 110 367 148 c 2,38,-1
 367 251 l 2,24,25
284 625 m 2,39,-1
 248 625 l 1,40,41
 214 624 214 624 199.5 606.5 c 128,-1,42
 185 589 185 589 185 553 c 2,43,-1
 185 471 l 2,44,45
 185 439 185 439 203.5 419.5 c 128,-1,46
 222 400 222 400 250 398 c 1,47,-1
 284 398 l 2,48,49
 315 398 315 398 335 418 c 128,-1,50
 355 438 355 438 355 471 c 2,51,-1
 355 553 l 2,52,53
 355 591 355 591 338.5 608 c 128,-1,54
 322 625 322 625 284 625 c 2,39,-1
EndSplineSet
EndChar

StartChar: nine
Encoding: 57 57 29
Width: 540
GlyphClass: 2
Flags: W
LayerCount: 2
Fore
SplineSet
96 530 m 2,0,1
 96 612 96 612 141 656 c 128,-1,2
 186 700 186 700 254 700 c 2,3,-1
 289 700 l 2,4,5
 357 700 357 700 402 656 c 128,-1,6
 447 612 447 612 447 530 c 2,7,-1
 447 170 l 2,8,9
 447 0 447 0 269 0 c 2,10,-1
 154 0 l 1,11,-1
 154 76 l 1,12,-1
 279 76 l 2,13,14
 316 76 316 76 339 98 c 128,-1,15
 362 120 362 120 362 151 c 2,16,-1
 362 260 l 1,17,-1
 264 260 l 2,18,19
 178 260 178 260 137 298 c 128,-1,20
 96 336 96 336 96 420 c 2,21,-1
 96 530 l 2,0,1
254 335 m 2,22,-1
 362 335 l 1,23,-1
 362 549 l 2,24,25
 362 581 362 581 341 603 c 128,-1,26
 320 625 320 625 284 625 c 2,27,-1
 259 625 l 2,28,29
 223 625 223 625 202 603 c 128,-1,30
 181 581 181 581 181 549 c 2,31,-1
 181 401 l 2,32,33
 181 335 181 335 254 335 c 2,22,-1
EndSplineSet
EndChar

StartChar: colon
Encoding: 58 58 30
Width: 540
GlyphClass: 2
Flags: W
LayerCount: 2
Fore
SplineSet
320 0 m 1,0,-1
 220 0 l 1,1,-1
 220 100 l 1,2,-1
 320 100 l 1,3,-1
 320 0 l 1,0,-1
320 400 m 1,4,-1
 220 400 l 1,5,-1
 220 500 l 1,6,-1
 320 500 l 1,7,-1
 320 400 l 1,4,-1
EndSplineSet
EndChar

StartChar: semicolon
Encoding: 59 59 31
Width: 540
GlyphClass: 2
Flags: W
LayerCount: 2
Fore
SplineSet
240 100 m 1,0,-1
 340 100 l 1,1,-1
 340 0 l 1,2,-1
 278 -140 l 1,3,-1
 200 -140 l 1,4,-1
 240 0 l 1,5,-1
 240 100 l 1,0,-1
340 400 m 1,6,-1
 240 400 l 1,7,-1
 240 500 l 1,8,-1
 340 500 l 1,9,-1
 340 400 l 1,6,-1
EndSplineSet
EndChar

StartChar: less
Encoding: 60 60 32
Width: 540
GlyphClass: 2
Flags: W
LayerCount: 2
Fore
SplineSet
460 105 m 1,0,-1
 80 280 l 1,1,-1
 80 385 l 1,2,-1
 460 564 l 1,3,-1
 460 472 l 1,4,-1
 150 336 l 1,5,-1
 460 199 l 1,6,-1
 460 105 l 1,0,-1
EndSplineSet
EndChar

StartChar: equal
Encoding: 61 61 33
Width: 540
GlyphClass: 2
Flags: W
LayerCount: 2
Fore
SplineSet
460 175 m 1,0,-1
 80 175 l 1,1,-1
 80 250 l 1,2,-1
 460 250 l 1,3,-1
 460 175 l 1,0,-1
460 375 m 1,4,-1
 80 375 l 1,5,-1
 80 450 l 1,6,-1
 460 450 l 1,7,-1
 460 375 l 1,4,-1
EndSplineSet
EndChar

StartChar: greater
Encoding: 62 62 34
Width: 540
GlyphClass: 2
Flags: W
LayerCount: 2
Fore
SplineSet
460 280 m 1,0,-1
 80 105 l 1,1,-1
 80 199 l 1,2,-1
 396 336 l 1,3,-1
 80 472 l 1,4,-1
 80 564 l 1,5,-1
 460 385 l 1,6,-1
 460 280 l 1,0,-1
EndSplineSet
EndChar

StartChar: question
Encoding: 63 63 35
Width: 540
GlyphClass: 2
Flags: W
LayerCount: 2
Fore
SplineSet
409 518 m 2,0,1
 409 459 409 459 398.5 434 c 128,-1,2
 388 409 388 409 338 358 c 2,3,-1
 285 304 l 1,4,-1
 285 208 l 1,5,-1
 200 208 l 1,6,-1
 200 329 l 1,7,-1
 258 390 l 2,8,9
 304 438 304 438 314 456.5 c 128,-1,10
 324 475 324 475 324 509 c 2,11,-1
 324 559 l 2,12,13
 324 624 324 624 251 624 c 2,14,-1
 126 624 l 1,15,-1
 126 700 l 1,16,-1
 241 700 l 2,17,18
 409 700 409 700 409 550 c 2,19,-1
 409 518 l 2,0,1
293 0 m 1,20,-1
 193 0 l 1,21,-1
 193 100 l 1,22,-1
 293 100 l 1,23,-1
 293 0 l 1,20,-1
EndSplineSet
EndChar

StartChar: at
Encoding: 64 64 36
Width: 540
GlyphClass: 2
Flags: W
LayerCount: 2
Fore
SplineSet
351 0 m 1,0,-1
 166 0 l 2,1,2
 95 0 95 0 62 32.5 c 128,-1,3
 29 65 29 65 29 140 c 2,4,-1
 29 550 l 2,5,6
 29 629 29 629 66.5 664.5 c 128,-1,7
 104 700 104 700 189 700 c 2,8,-1
 354 700 l 2,9,10
 438 700 438 700 474.5 665.5 c 128,-1,11
 511 631 511 631 511 550 c 2,12,-1
 511 223 l 2,13,14
 511 163 511 163 486.5 139 c 128,-1,15
 462 115 462 115 420 115 c 0,16,17
 338 115 338 115 332 175 c 1,18,19
 304 144 304 144 252 144 c 128,-1,20
 200 144 200 144 177 169.5 c 128,-1,21
 154 195 154 195 154 259 c 2,22,-1
 154 403 l 2,23,24
 154 482 154 482 187.5 510.5 c 128,-1,25
 221 539 221 539 308 539 c 2,26,-1
 380 539 l 1,27,-1
 380 211 l 2,28,29
 380 170 380 170 410 170 c 0,30,31
 429 170 429 170 435 179 c 128,-1,32
 441 188 441 188 441 216 c 2,33,-1
 441 560 l 2,34,35
 441 637 441 637 364 637 c 2,36,-1
 179 637 l 2,37,38
 136 637 136 637 117.5 618 c 128,-1,39
 99 599 99 599 99 560 c 2,40,-1
 99 130 l 2,41,42
 99 63 99 63 166 63 c 2,43,-1
 351 63 l 1,44,-1
 351 0 l 1,0,-1
229.5 215.5 m 128,-1,46
 237 202 237 202 261.5 202 c 128,-1,47
 286 202 286 202 299 217.5 c 128,-1,48
 312 233 312 233 312 254 c 2,49,-1
 312 482 l 1,50,-1
 297 482 l 2,51,52
 254 482 254 482 238 467.5 c 128,-1,53
 222 453 222 453 222 409 c 2,54,-1
 222 253 l 2,55,45
 222 229 222 229 229.5 215.5 c 128,-1,46
EndSplineSet
EndChar

StartChar: A
Encoding: 65 65 37
Width: 540
GlyphClass: 2
Flags: W
LayerCount: 2
Fore
SplineSet
352 252 m 1,0,-1
 270 634 l 1,1,-1
 189 252 l 1,2,-1
 352 252 l 1,0,-1
495 0 m 1,3,-1
 406 0 l 1,4,-1
 368 177 l 1,5,-1
 173 177 l 1,6,-1
 134 0 l 1,7,-1
 45 0 l 1,8,-1
 214 700 l 1,9,-1
 329 700 l 1,10,-1
 495 0 l 1,3,-1
EndSplineSet
Substitution2: "'ordn' Ordinals in Latin lookup 4 subtable" ordfeminine
Substitution2: "'aalt' Access All Alternates in Latin lookup 0 subtable" ordfeminine
Position2: "'cpsp' Capital Spacing in Latin lookup 0 subtable" dx=5 dy=0 dh=10 dv=0
EndChar

StartChar: B
Encoding: 66 66 38
Width: 540
GlyphClass: 2
Flags: W
LayerCount: 2
Fore
SplineSet
455 158 m 2,0,1
 455 72 455 72 415.5 36 c 128,-1,2
 376 0 376 0 285 0 c 2,3,-1
 85 0 l 1,4,-1
 85 700 l 1,5,-1
 273 700 l 2,6,7
 362 700 362 700 403.5 664 c 128,-1,8
 445 628 445 628 445 544 c 2,9,-1
 445 487 l 2,10,11
 445 410 445 410 390 371 c 1,12,13
 455 335 455 335 455 248 c 2,14,-1
 455 158 l 2,0,1
358 477 m 2,15,-1
 358 553 l 2,16,17
 358 591 358 591 340.5 608 c 128,-1,18
 323 625 323 625 285 625 c 2,19,-1
 172 625 l 1,20,-1
 172 404 l 1,21,-1
 285 404 l 2,22,23
 316 404 316 404 337 424 c 128,-1,24
 358 444 358 444 358 477 c 2,15,-1
368 148 m 2,25,-1
 368 257 l 2,26,27
 368 290 368 290 348 309.5 c 128,-1,28
 328 329 328 329 295 329 c 2,29,-1
 172 329 l 1,30,-1
 172 75 l 1,31,-1
 294 75 l 2,32,33
 332 75 332 75 350 92.5 c 128,-1,34
 368 110 368 110 368 148 c 2,25,-1
EndSplineSet
Position2: "'cpsp' Capital Spacing in Latin lookup 0 subtable" dx=5 dy=0 dh=10 dv=0
EndChar

StartChar: C
Encoding: 67 67 39
Width: 540
GlyphClass: 2
Flags: W
LayerCount: 2
Fore
SplineSet
431 0 m 1,0,-1
 289 0 l 2,1,2
 202 0 202 0 155.5 42.5 c 128,-1,3
 109 85 109 85 109 170 c 2,4,-1
 109 530 l 2,5,6
 109 615 109 615 155.5 657.5 c 128,-1,7
 202 700 202 700 289 700 c 2,8,-1
 431 700 l 1,9,-1
 431 624 l 1,10,-1
 279 624 l 2,11,12
 242 624 242 624 219 602 c 128,-1,13
 196 580 196 580 196 549 c 2,14,-1
 196 151 l 2,15,16
 196 120 196 120 219 98 c 128,-1,17
 242 76 242 76 279 76 c 2,18,-1
 431 76 l 1,19,-1
 431 0 l 1,0,-1
EndSplineSet
Position2: "'cpsp' Capital Spacing in Latin lookup 0 subtable" dx=5 dy=0 dh=10 dv=0
EndChar

StartChar: D
Encoding: 68 68 40
Width: 540
GlyphClass: 2
Flags: W
LayerCount: 2
Fore
SplineSet
458 158 m 2,0,1
 458 72 458 72 418.5 36 c 128,-1,2
 379 0 379 0 288 0 c 2,3,-1
 82 0 l 1,4,-1
 82 700 l 1,5,-1
 276 700 l 2,6,7
 366 700 366 700 412 663.5 c 128,-1,8
 458 627 458 627 458 544 c 2,9,-1
 458 158 l 2,0,1
371 148 m 2,10,-1
 371 553 l 2,11,12
 371 586 371 586 351 605.5 c 128,-1,13
 331 625 331 625 298 625 c 2,14,-1
 169 625 l 1,15,-1
 169 75 l 1,16,-1
 297 75 l 2,17,18
 335 75 335 75 353 92.5 c 128,-1,19
 371 110 371 110 371 148 c 2,10,-1
EndSplineSet
Position2: "'cpsp' Capital Spacing in Latin lookup 0 subtable" dx=5 dy=0 dh=10 dv=0
EndChar

StartChar: E
Encoding: 69 69 41
Width: 540
GlyphClass: 2
Flags: W
LayerCount: 2
Fore
SplineSet
437 0 m 1,0,-1
 103 0 l 1,1,-1
 103 700 l 1,2,-1
 437 700 l 1,3,-1
 437 627 l 1,4,-1
 190 627 l 1,5,-1
 190 398 l 1,6,-1
 412 398 l 1,7,-1
 412 325 l 1,8,-1
 190 325 l 1,9,-1
 190 73 l 1,10,-1
 437 73 l 1,11,-1
 437 0 l 1,0,-1
EndSplineSet
Position2: "'cpsp' Capital Spacing in Latin lookup 0 subtable" dx=5 dy=0 dh=10 dv=0
EndChar

StartChar: F
Encoding: 70 70 42
Width: 540
GlyphClass: 2
Flags: W
LayerCount: 2
Fore
SplineSet
440 627 m 1,0,-1
 193 627 l 1,1,-1
 193 388 l 1,2,-1
 415 388 l 1,3,-1
 415 315 l 1,4,-1
 193 315 l 1,5,-1
 193 0 l 1,6,-1
 106 0 l 1,7,-1
 106 700 l 1,8,-1
 440 700 l 1,9,-1
 440 627 l 1,0,-1
EndSplineSet
Position2: "'cpsp' Capital Spacing in Latin lookup 0 subtable" dx=5 dy=0 dh=10 dv=0
EndChar

StartChar: G
Encoding: 71 71 43
Width: 540
GlyphClass: 2
Flags: W
LayerCount: 2
Fore
SplineSet
445 0 m 1,0,-1
 274 0 l 2,1,2
 187 0 187 0 140.5 42.5 c 128,-1,3
 94 85 94 85 94 170 c 2,4,-1
 94 530 l 2,5,6
 94 615 94 615 140.5 657.5 c 128,-1,7
 187 700 187 700 274 700 c 2,8,-1
 415 700 l 1,9,-1
 415 624 l 1,10,-1
 264 624 l 2,11,12
 227 624 227 624 204 602 c 128,-1,13
 181 580 181 580 181 549 c 2,14,-1
 181 151 l 2,15,16
 181 120 181 120 204 98 c 128,-1,17
 227 76 227 76 264 76 c 2,18,-1
 362 76 l 1,19,-1
 362 293 l 1,20,-1
 275 293 l 1,21,-1
 275 368 l 1,22,-1
 445 368 l 1,23,-1
 445 0 l 1,0,-1
EndSplineSet
Position2: "'cpsp' Capital Spacing in Latin lookup 0 subtable" dx=5 dy=0 dh=10 dv=0
EndChar

StartChar: H
Encoding: 72 72 44
Width: 540
GlyphClass: 2
Flags: W
LayerCount: 2
Fore
SplineSet
460 0 m 1,0,-1
 373 0 l 1,1,-1
 373 322 l 1,2,-1
 167 322 l 1,3,-1
 167 0 l 1,4,-1
 80 0 l 1,5,-1
 80 700 l 1,6,-1
 167 700 l 1,7,-1
 167 396 l 1,8,-1
 373 396 l 1,9,-1
 373 700 l 1,10,-1
 460 700 l 1,11,-1
 460 0 l 1,0,-1
EndSplineSet
Position2: "'cpsp' Capital Spacing in Latin lookup 0 subtable" dx=5 dy=0 dh=10 dv=0
EndChar

StartChar: I
Encoding: 73 73 45
Width: 540
GlyphClass: 2
Flags: W
LayerCount: 2
Fore
SplineSet
403 0 m 1,0,-1
 136 0 l 1,1,-1
 136 73 l 1,2,-1
 226 73 l 1,3,-1
 226 627 l 1,4,-1
 136 627 l 1,5,-1
 136 700 l 1,6,-1
 403 700 l 1,7,-1
 403 627 l 1,8,-1
 313 627 l 1,9,-1
 313 73 l 1,10,-1
 403 73 l 1,11,-1
 403 0 l 1,0,-1
EndSplineSet
Position2: "'cpsp' Capital Spacing in Latin lookup 0 subtable" dx=5 dy=0 dh=10 dv=0
EndChar

StartChar: J
Encoding: 74 74 46
Width: 540
GlyphClass: 2
Flags: W
LayerCount: 2
Fore
SplineSet
410 170 m 2,0,1
 410 85 410 85 363.5 42.5 c 128,-1,2
 317 0 317 0 230 0 c 2,3,-1
 125 0 l 1,4,-1
 125 76 l 1,5,-1
 240 76 l 2,6,7
 277 76 277 76 300 98 c 128,-1,8
 323 120 323 120 323 151 c 2,9,-1
 323 625 l 1,10,-1
 162 625 l 1,11,-1
 162 700 l 1,12,-1
 410 700 l 1,13,-1
 410 170 l 2,0,1
EndSplineSet
Position2: "'cpsp' Capital Spacing in Latin lookup 0 subtable" dx=5 dy=0 dh=10 dv=0
EndChar

StartChar: K
Encoding: 75 75 47
Width: 540
GlyphClass: 2
Flags: W
LayerCount: 2
Fore
SplineSet
168 0 m 1,0,-1
 81 0 l 1,1,-1
 81 700 l 1,2,-1
 168 700 l 1,3,-1
 168 398 l 1,4,-1
 358 700 l 1,5,-1
 453 700 l 1,6,-1
 260 391 l 1,7,-1
 465 0 l 1,8,-1
 365 0 l 1,9,-1
 206 315 l 1,10,-1
 168 258 l 1,11,-1
 168 0 l 1,0,-1
EndSplineSet
Position2: "'cpsp' Capital Spacing in Latin lookup 0 subtable" dx=5 dy=0 dh=10 dv=0
EndChar

StartChar: L
Encoding: 76 76 48
Width: 540
GlyphClass: 2
Flags: W
LayerCount: 2
Fore
SplineSet
425 0 m 1,0,-1
 115 0 l 1,1,-1
 115 700 l 1,2,-1
 202 700 l 1,3,-1
 202 76 l 1,4,-1
 425 76 l 1,5,-1
 425 0 l 1,0,-1
EndSplineSet
Position2: "'cpsp' Capital Spacing in Latin lookup 0 subtable" dx=5 dy=0 dh=10 dv=0
EndChar

StartChar: M
Encoding: 77 77 49
Width: 540
GlyphClass: 2
Flags: W
LayerCount: 2
Fore
SplineSet
488 0 m 1,0,-1
 410 0 l 1,1,-1
 410 628 l 1,2,-1
 310 235 l 1,3,-1
 227 235 l 1,4,-1
 129 628 l 1,5,-1
 129 0 l 1,6,-1
 53 0 l 1,7,-1
 53 700 l 1,8,-1
 192 700 l 1,9,-1
 272 342 l 1,10,-1
 353 700 l 1,11,-1
 488 700 l 1,12,-1
 488 0 l 1,0,-1
EndSplineSet
Position2: "'cpsp' Capital Spacing in Latin lookup 0 subtable" dx=5 dy=0 dh=10 dv=0
EndChar

StartChar: N
Encoding: 78 78 50
Width: 540
GlyphClass: 2
Flags: W
LayerCount: 2
Fore
SplineSet
460 0 m 1,0,-1
 317 0 l 1,1,-1
 160 626 l 1,2,-1
 160 0 l 1,3,-1
 79 0 l 1,4,-1
 79 700 l 1,5,-1
 221 700 l 1,6,-1
 379 74 l 1,7,-1
 379 700 l 1,8,-1
 460 700 l 1,9,-1
 460 0 l 1,0,-1
EndSplineSet
Position2: "'cpsp' Capital Spacing in Latin lookup 0 subtable" dx=5 dy=0 dh=10 dv=0
EndChar

StartChar: O
Encoding: 79 79 51
Width: 540
GlyphClass: 2
Flags: W
LayerCount: 2
Fore
SplineSet
470 170 m 2,0,1
 470 85 470 85 423.5 42.5 c 128,-1,2
 377 0 377 0 290 0 c 2,3,-1
 250 0 l 2,4,5
 163 0 163 0 116.5 42.5 c 128,-1,6
 70 85 70 85 70 170 c 2,7,-1
 70 530 l 2,8,9
 70 615 70 615 116.5 657.5 c 128,-1,10
 163 700 163 700 250 700 c 2,11,-1
 290 700 l 2,12,13
 377 700 377 700 423.5 657.5 c 128,-1,14
 470 615 470 615 470 530 c 2,15,-1
 470 170 l 2,0,1
383 151 m 2,16,-1
 383 549 l 2,17,18
 383 580 383 580 360 602 c 128,-1,19
 337 624 337 624 300 624 c 2,20,-1
 240 624 l 2,21,22
 203 624 203 624 180 602 c 128,-1,23
 157 580 157 580 157 549 c 2,24,-1
 157 151 l 2,25,26
 157 120 157 120 180 98 c 128,-1,27
 203 76 203 76 240 76 c 2,28,-1
 300 76 l 2,29,30
 337 76 337 76 360 98 c 128,-1,31
 383 120 383 120 383 151 c 2,16,-1
EndSplineSet
Substitution2: "'ordn' Ordinals in Latin lookup 4 subtable" ordmasculine
Substitution2: "'aalt' Access All Alternates in Latin lookup 0 subtable" ordmasculine
Position2: "'cpsp' Capital Spacing in Latin lookup 0 subtable" dx=5 dy=0 dh=10 dv=0
EndChar

StartChar: P
Encoding: 80 80 52
Width: 540
GlyphClass: 2
Flags: W
LayerCount: 2
Fore
SplineSet
451 430 m 2,0,1
 451 272 451 272 281 272 c 2,2,-1
 177 272 l 1,3,-1
 177 0 l 1,4,-1
 90 0 l 1,5,-1
 90 700 l 1,6,-1
 279 700 l 2,7,8
 451 700 451 700 451 544 c 2,9,-1
 451 430 l 2,0,1
364 420 m 2,10,-1
 364 553 l 2,11,12
 364 591 364 591 346.5 608 c 128,-1,13
 329 625 329 625 291 625 c 2,14,-1
 177 625 l 1,15,-1
 177 347 l 1,16,-1
 291 347 l 2,17,18
 329 347 329 347 346.5 364.5 c 128,-1,19
 364 382 364 382 364 420 c 2,10,-1
EndSplineSet
Position2: "'cpsp' Capital Spacing in Latin lookup 0 subtable" dx=5 dy=0 dh=10 dv=0
EndChar

StartChar: Q
Encoding: 81 81 53
Width: 540
GlyphClass: 2
Flags: W
LayerCount: 2
Fore
SplineSet
290 0 m 2,0,-1
 250 0 l 2,1,2
 163 0 163 0 116.5 42.5 c 128,-1,3
 70 85 70 85 70 170 c 2,4,-1
 70 530 l 2,5,6
 70 615 70 615 116.5 657.5 c 128,-1,7
 163 700 163 700 250 700 c 2,8,-1
 290 700 l 2,9,10
 377 700 377 700 423.5 657.5 c 128,-1,11
 470 615 470 615 470 530 c 2,12,-1
 470 170 l 2,13,14
 470 111 470 111 447 71 c 1,15,-1
 520 -2 l 1,16,-1
 463 -59 l 1,17,-1
 386 18 l 1,18,19
 347 0 347 0 290 0 c 2,0,-1
383 151 m 2,20,-1
 383 549 l 2,21,22
 383 580 383 580 360 602 c 128,-1,23
 337 624 337 624 300 624 c 2,24,-1
 240 624 l 2,25,26
 203 624 203 624 180 602 c 128,-1,27
 157 580 157 580 157 549 c 2,28,-1
 157 151 l 2,29,30
 157 120 157 120 180 98 c 128,-1,31
 203 76 203 76 240 76 c 2,32,-1
 300 76 l 2,33,34
 337 76 337 76 360 98 c 128,-1,35
 383 120 383 120 383 151 c 2,20,-1
EndSplineSet
Position2: "'cpsp' Capital Spacing in Latin lookup 0 subtable" dx=5 dy=0 dh=10 dv=0
EndChar

StartChar: R
Encoding: 82 82 54
Width: 540
GlyphClass: 2
Flags: W
LayerCount: 2
Fore
SplineSet
157 290 m 1,0,-1
 157 0 l 1,1,-1
 70 0 l 1,2,-1
 70 700 l 1,3,-1
 258 700 l 2,4,5
 430 700 430 700 430 544 c 2,6,-1
 430 448 l 2,7,8
 430 335 430 335 340 307 c 1,9,-1
 479 0 l 1,10,-1
 384 0 l 1,11,-1
 255 290 l 1,12,-1
 157 290 l 1,0,-1
343 438 m 2,13,-1
 343 553 l 2,14,15
 343 591 343 591 325.5 608 c 128,-1,16
 308 625 308 625 270 625 c 2,17,-1
 157 625 l 1,18,-1
 157 365 l 1,19,-1
 270 365 l 2,20,21
 308 365 308 365 325.5 382.5 c 128,-1,22
 343 400 343 400 343 438 c 2,13,-1
EndSplineSet
Position2: "'cpsp' Capital Spacing in Latin lookup 0 subtable" dx=5 dy=0 dh=10 dv=0
EndChar

StartChar: S
Encoding: 83 83 55
Width: 540
GlyphClass: 2
Flags: W
LayerCount: 2
Fore
SplineSet
439 170 m 2,0,1
 439 85 439 85 392.5 42.5 c 128,-1,2
 346 0 346 0 259 0 c 2,3,-1
 117 0 l 1,4,-1
 117 76 l 1,5,-1
 269 76 l 2,6,7
 306 76 306 76 329 98 c 128,-1,8
 352 120 352 120 352 151 c 2,9,-1
 352 255 l 2,10,11
 352 285 352 285 336.5 303.5 c 128,-1,12
 321 322 321 322 290 322 c 2,13,-1
 260 322 l 2,14,15
 186 322 186 322 143 365.5 c 128,-1,16
 100 409 100 409 100 492 c 2,17,-1
 100 530 l 2,18,19
 100 615 100 615 146.5 657.5 c 128,-1,20
 193 700 193 700 280 700 c 2,21,-1
 423 700 l 1,22,-1
 423 624 l 1,23,-1
 270 624 l 2,24,25
 233 624 233 624 210 602 c 128,-1,26
 187 580 187 580 187 549 c 2,27,-1
 187 473 l 2,28,29
 187 442 187 442 207 421.5 c 128,-1,30
 227 401 227 401 259 401 c 2,31,-1
 289 401 l 2,32,33
 360 401 360 401 399.5 360 c 128,-1,34
 439 319 439 319 439 236 c 2,35,-1
 439 170 l 2,0,1
EndSplineSet
Position2: "'cpsp' Capital Spacing in Latin lookup 0 subtable" dx=5 dy=0 dh=10 dv=0
EndChar

StartChar: T
Encoding: 84 84 56
Width: 540
GlyphClass: 2
Flags: W
LayerCount: 2
Fore
SplineSet
472 624 m 1,0,-1
 313 624 l 1,1,-1
 313 0 l 1,2,-1
 226 0 l 1,3,-1
 226 624 l 1,4,-1
 67 624 l 1,5,-1
 67 700 l 1,6,-1
 472 700 l 1,7,-1
 472 624 l 1,0,-1
EndSplineSet
Position2: "'cpsp' Capital Spacing in Latin lookup 0 subtable" dx=5 dy=0 dh=10 dv=0
EndChar

StartChar: U
Encoding: 85 85 57
Width: 540
GlyphClass: 2
Flags: W
LayerCount: 2
Fore
SplineSet
462 170 m 2,0,1
 462 85 462 85 415.5 42.5 c 128,-1,2
 369 0 369 0 282 0 c 2,3,-1
 257 0 l 2,4,5
 170 0 170 0 123.5 42.5 c 128,-1,6
 77 85 77 85 77 170 c 2,7,-1
 77 700 l 1,8,-1
 164 700 l 1,9,-1
 164 151 l 2,10,11
 164 120 164 120 187 98 c 128,-1,12
 210 76 210 76 247 76 c 2,13,-1
 292 76 l 2,14,15
 329 76 329 76 352 98 c 128,-1,16
 375 120 375 120 375 151 c 2,17,-1
 375 700 l 1,18,-1
 462 700 l 1,19,-1
 462 170 l 2,0,1
EndSplineSet
Position2: "'cpsp' Capital Spacing in Latin lookup 0 subtable" dx=5 dy=0 dh=10 dv=0
EndChar

StartChar: V
Encoding: 86 86 58
Width: 540
GlyphClass: 2
Flags: W
LayerCount: 2
Fore
SplineSet
479 700 m 1,0,-1
 322 0 l 1,1,-1
 203 0 l 1,2,-1
 56 700 l 1,3,-1
 144 700 l 1,4,-1
 264 88 l 1,5,-1
 393 700 l 1,6,-1
 479 700 l 1,0,-1
EndSplineSet
Position2: "'cpsp' Capital Spacing in Latin lookup 0 subtable" dx=5 dy=0 dh=10 dv=0
EndChar

StartChar: W
Encoding: 87 87 59
Width: 540
GlyphClass: 2
Flags: W
LayerCount: 2
Fore
SplineSet
485 700 m 1,0,-1
 451 0 l 1,1,-1
 325 0 l 1,2,-1
 268 284 l 1,3,-1
 205 0 l 1,4,-1
 85 0 l 1,5,-1
 51 700 l 1,6,-1
 125 700 l 1,7,-1
 155 75 l 1,8,-1
 238 405 l 1,9,-1
 300 405 l 1,10,-1
 385 75 l 1,11,-1
 416 700 l 1,12,-1
 485 700 l 1,0,-1
EndSplineSet
Position2: "'cpsp' Capital Spacing in Latin lookup 0 subtable" dx=5 dy=0 dh=10 dv=0
EndChar

StartChar: X
Encoding: 88 88 60
Width: 540
GlyphClass: 2
Flags: W
LayerCount: 2
Fore
SplineSet
489 0 m 1,0,-1
 391 0 l 1,1,-1
 271 263 l 1,2,-1
 145 0 l 1,3,-1
 51 0 l 1,4,-1
 225 362 l 1,5,-1
 67 700 l 1,6,-1
 162 700 l 1,7,-1
 272 463 l 1,8,-1
 386 700 l 1,9,-1
 479 700 l 1,10,-1
 317 363 l 1,11,-1
 489 0 l 1,0,-1
EndSplineSet
Position2: "'cpsp' Capital Spacing in Latin lookup 0 subtable" dx=5 dy=0 dh=10 dv=0
EndChar

StartChar: Y
Encoding: 89 89 61
Width: 540
GlyphClass: 2
Flags: W
LayerCount: 2
Fore
SplineSet
313 0 m 1,0,-1
 223 0 l 1,1,-1
 223 325 l 1,2,-1
 44 700 l 1,3,-1
 140 700 l 1,4,-1
 272 409 l 1,5,-1
 404 700 l 1,6,-1
 495 700 l 1,7,-1
 313 325 l 1,8,-1
 313 0 l 1,0,-1
EndSplineSet
Position2: "'cpsp' Capital Spacing in Latin lookup 0 subtable" dx=5 dy=0 dh=10 dv=0
EndChar

StartChar: Z
Encoding: 90 90 62
Width: 540
GlyphClass: 2
Flags: W
LayerCount: 2
Fore
SplineSet
441 74 m 1,0,-1
 441 0 l 1,1,-1
 87 0 l 1,2,-1
 87 88 l 1,3,-1
 361 626 l 1,4,-1
 110 626 l 1,5,-1
 110 700 l 1,6,-1
 451 700 l 1,7,-1
 451 612 l 1,8,-1
 178 74 l 1,9,-1
 441 74 l 1,0,-1
EndSplineSet
Position2: "'cpsp' Capital Spacing in Latin lookup 0 subtable" dx=5 dy=0 dh=10 dv=0
EndChar

StartChar: bracketleft
Encoding: 91 91 63
Width: 540
GlyphClass: 2
Flags: W
LayerCount: 2
Fore
SplineSet
375 -120 m 1,0,-1
 165 -120 l 1,1,-1
 165 820 l 1,2,-1
 375 820 l 1,3,-1
 375 745 l 1,4,-1
 245 745 l 1,5,-1
 245 -45 l 1,6,-1
 375 -45 l 1,7,-1
 375 -120 l 1,0,-1
EndSplineSet
EndChar

StartChar: backslash
Encoding: 92 92 64
Width: 540
GlyphClass: 2
Flags: W
LayerCount: 2
Fore
SplineSet
406 -110 m 1,0,-1
 50 810 l 1,1,-1
 134 810 l 1,2,-1
 490 -110 l 1,3,-1
 406 -110 l 1,0,-1
EndSplineSet
EndChar

StartChar: bracketright
Encoding: 93 93 65
Width: 540
GlyphClass: 2
Flags: W
LayerCount: 2
Fore
SplineSet
375 -120 m 1,0,-1
 165 -120 l 1,1,-1
 165 -45 l 1,2,-1
 295 -45 l 1,3,-1
 295 745 l 1,4,-1
 165 745 l 1,5,-1
 165 820 l 1,6,-1
 375 820 l 1,7,-1
 375 -120 l 1,0,-1
EndSplineSet
EndChar

StartChar: asciicircum
Encoding: 94 94 66
Width: 540
GlyphClass: 2
Flags: W
LayerCount: 2
Fore
SplineSet
468 420 m 1,0,-1
 377 420 l 1,1,-1
 273 700 l 1,2,-1
 159 420 l 1,3,-1
 71 420 l 1,4,-1
 215 760 l 1,5,-1
 329 760 l 1,6,-1
 468 420 l 1,0,-1
EndSplineSet
EndChar

StartChar: underscore
Encoding: 95 95 67
Width: 540
GlyphClass: 2
Flags: W
LayerCount: 2
Fore
SplineSet
522 -170 m 1,0,-1
 18 -170 l 1,1,-1
 18 -95 l 1,2,-1
 522 -95 l 1,3,-1
 522 -170 l 1,0,-1
EndSplineSet
EndChar

StartChar: grave
Encoding: 96 96 68
Width: 540
GlyphClass: 2
Flags: W
LayerCount: 2
Fore
SplineSet
371 580 m 1,0,-1
 285 580 l 1,1,-1
 163 715 l 1,2,-1
 267 715 l 1,3,-1
 371 580 l 1,0,-1
EndSplineSet
EndChar

StartChar: a
Encoding: 97 97 69
Width: 540
GlyphClass: 2
Flags: W
LayerCount: 2
Fore
SplineSet
472 0 m 1,0,-1
 417 0 l 2,1,2
 387 0 387 0 362 30 c 1,3,4
 339 0 339 0 301 0 c 2,5,-1
 212 0 l 2,6,7
 136 0 136 0 101.5 30.5 c 128,-1,8
 67 61 67 61 67 135 c 2,9,-1
 67 155 l 2,10,11
 67 310 67 310 213 310 c 2,12,-1
 337 310 l 1,13,-1
 337 360 l 2,14,15
 337 425 337 425 262 425 c 2,16,-1
 107 425 l 1,17,-1
 107 500 l 1,18,-1
 252 500 l 2,19,20
 339 500 339 500 380.5 462 c 128,-1,21
 422 424 422 424 422 340 c 2,22,-1
 422 100 l 2,23,24
 422 70 422 70 472 70 c 1,25,-1
 472 0 l 1,0,-1
291 75 m 2,26,27
 324 75 324 75 332 93 c 1,28,29
 337 107 337 107 337 125 c 2,30,-1
 337 235 l 1,31,-1
 212 235 l 2,32,33
 186 235 186 235 169 218 c 128,-1,34
 152 201 152 201 152 175 c 2,35,-1
 152 125 l 2,36,37
 152 99 152 99 164 87 c 128,-1,38
 176 75 176 75 202 75 c 2,39,-1
 291 75 l 2,26,27
EndSplineSet
Substitution2: "'ordn' Ordinals in Latin lookup 4 subtable" ordfeminine
Substitution2: "'aalt' Access All Alternates in Latin lookup 0 subtable" ordfeminine
EndChar

StartChar: b
Encoding: 98 98 70
Width: 540
GlyphClass: 2
Flags: W
LayerCount: 2
Fore
SplineSet
453 160 m 2,0,1
 453 76 453 76 411.5 38 c 128,-1,2
 370 0 370 0 283 0 c 2,3,-1
 87 0 l 1,4,-1
 87 700 l 1,5,-1
 172 700 l 1,6,-1
 172 480 l 1,7,8
 202 500 202 500 247 500 c 2,9,-1
 283 500 l 2,10,11
 371 500 371 500 412 462.5 c 128,-1,12
 453 425 453 425 453 340 c 2,13,-1
 453 160 l 2,0,1
237 425 m 2,14,15
 204 425 204 425 188 407.5 c 128,-1,16
 172 390 172 390 172 370 c 2,17,-1
 172 75 l 1,18,-1
 293 75 l 2,19,20
 368 75 368 75 368 140 c 2,21,-1
 368 360 l 2,22,23
 368 425 368 425 293 425 c 2,24,-1
 237 425 l 2,14,15
EndSplineSet
EndChar

StartChar: c
Encoding: 99 99 71
Width: 540
GlyphClass: 2
Flags: W
LayerCount: 2
Fore
SplineSet
419 0 m 1,0,-1
 290 0 l 2,1,2
 202 0 202 0 161 37.5 c 128,-1,3
 120 75 120 75 120 160 c 2,4,-1
 120 340 l 2,5,6
 120 424 120 424 161.5 462 c 128,-1,7
 203 500 203 500 290 500 c 2,8,-1
 419 500 l 1,9,-1
 419 425 l 1,10,-1
 280 425 l 2,11,12
 205 425 205 425 205 360 c 2,13,-1
 205 140 l 2,14,15
 205 75 205 75 280 75 c 2,16,-1
 419 75 l 1,17,-1
 419 0 l 1,0,-1
EndSplineSet
EndChar

StartChar: d
Encoding: 100 100 72
Width: 540
GlyphClass: 2
Flags: W
LayerCount: 2
Fore
SplineSet
455 0 m 1,0,-1
 375 0 l 1,1,-1
 375 23 l 1,2,3
 342 0 342 0 295 0 c 2,4,-1
 254 0 l 2,5,6
 166 0 166 0 125 37.5 c 128,-1,7
 84 75 84 75 84 160 c 2,8,-1
 84 340 l 2,9,10
 84 424 84 424 125.5 462 c 128,-1,11
 167 500 167 500 254 500 c 2,12,-1
 370 500 l 1,13,-1
 370 700 l 1,14,-1
 455 700 l 1,15,-1
 455 0 l 1,0,-1
305 75 m 2,16,17
 338 75 338 75 354 92.5 c 128,-1,18
 370 110 370 110 370 130 c 2,19,-1
 370 425 l 1,20,-1
 244 425 l 2,21,22
 169 425 169 425 169 360 c 2,23,-1
 169 140 l 2,24,25
 169 75 169 75 244 75 c 2,26,-1
 305 75 l 2,16,17
EndSplineSet
EndChar

StartChar: e
Encoding: 101 101 73
Width: 540
GlyphClass: 2
Flags: W
LayerCount: 2
Fore
SplineSet
413 0 m 1,0,-1
 264 0 l 2,1,2
 176 0 176 0 135 37.5 c 128,-1,3
 94 75 94 75 94 160 c 2,4,-1
 94 340 l 2,5,6
 94 426 94 426 131 463 c 128,-1,7
 168 500 168 500 254 500 c 2,8,-1
 301 500 l 2,9,10
 445 500 445 500 445 345 c 2,11,-1
 445 215 l 1,12,-1
 179 215 l 1,13,-1
 179 140 l 2,14,15
 179 75 179 75 254 75 c 2,16,-1
 413 75 l 1,17,-1
 413 0 l 1,0,-1
179 360 m 2,18,-1
 179 290 l 1,19,-1
 362 290 l 1,20,-1
 362 365 l 2,21,22
 362 391 362 391 345 408 c 128,-1,23
 328 425 328 425 302 425 c 2,24,-1
 244 425 l 2,25,26
 208 425 208 425 193.5 408.5 c 128,-1,27
 179 392 179 392 179 360 c 2,18,-1
EndSplineSet
EndChar

StartChar: f
Encoding: 102 102 74
Width: 540
GlyphClass: 2
Flags: W
LayerCount: 2
Fore
SplineSet
440 625 m 1,0,-1
 304 625 l 2,1,2
 288 625 288 625 278.5 616.5 c 128,-1,3
 269 608 269 608 269 595 c 2,4,-1
 269 500 l 1,5,-1
 430 500 l 1,6,-1
 430 425 l 1,7,-1
 269 425 l 1,8,-1
 269 75 l 1,9,-1
 390 75 l 1,10,-1
 390 0 l 1,11,-1
 99 0 l 1,12,-1
 99 75 l 1,13,-1
 184 75 l 1,14,-1
 184 425 l 1,15,-1
 99 425 l 1,16,-1
 99 500 l 1,17,-1
 184 500 l 1,18,-1
 184 590 l 2,19,20
 184 641 184 641 213 670.5 c 128,-1,21
 242 700 242 700 288 700 c 2,22,-1
 440 700 l 1,23,-1
 440 625 l 1,0,-1
EndSplineSet
EndChar

StartChar: g
Encoding: 103 103 75
Width: 540
GlyphClass: 2
Flags: W
LayerCount: 2
Fore
SplineSet
467 -35 m 2,0,1
 467 -170 467 -170 300 -170 c 2,2,-1
 92 -170 l 1,3,-1
 92 -95 l 1,4,-1
 310 -95 l 2,5,6
 346 -95 346 -95 364 -81 c 128,-1,7
 382 -67 382 -67 382 -45 c 2,8,-1
 382 -13 l 2,9,10
 382 37 382 37 310 37 c 2,11,-1
 137 37 l 1,12,-1
 137 175 l 1,13,14
 72 210 72 210 72 315 c 2,15,-1
 72 340 l 2,16,17
 72 424 72 424 113.5 462 c 128,-1,18
 155 500 155 500 242 500 c 2,19,-1
 452 500 l 1,20,-1
 452 315 l 2,21,22
 452 240 452 240 411 197.5 c 128,-1,23
 370 155 370 155 302 155 c 2,24,-1
 222 155 l 1,25,-1
 222 112 l 1,26,-1
 300 112 l 2,27,28
 467 112 467 112 467 -23 c 2,29,-1
 467 -35 l 2,0,1
302 230 m 2,30,31
 333 230 333 230 349 250 c 128,-1,32
 365 270 365 270 367 292 c 1,33,-1
 367 425 l 1,34,-1
 232 425 l 2,35,36
 157 425 157 425 157 360 c 2,37,-1
 157 295 l 2,38,39
 157 230 157 230 232 230 c 2,40,-1
 302 230 l 2,30,31
EndSplineSet
EndChar

StartChar: h
Encoding: 104 104 76
Width: 540
GlyphClass: 2
Flags: W
LayerCount: 2
Fore
SplineSet
172 0 m 1,0,-1
 87 0 l 1,1,-1
 87 700 l 1,2,-1
 172 700 l 1,3,-1
 172 480 l 1,4,5
 202 500 202 500 247 500 c 2,6,-1
 293 500 l 2,7,8
 374 500 374 500 413.5 462 c 128,-1,9
 453 424 453 424 453 340 c 2,10,-1
 453 0 l 1,11,-1
 368 0 l 1,12,-1
 368 360 l 2,13,14
 368 390 368 390 350.5 407.5 c 128,-1,15
 333 425 333 425 303 425 c 2,16,-1
 237 425 l 2,17,18
 205 425 205 425 189 408.5 c 128,-1,19
 173 392 173 392 172 373 c 1,20,-1
 172 0 l 1,0,-1
EndSplineSet
EndChar

StartChar: i
Encoding: 105 105 77
Width: 540
GlyphClass: 2
Flags: W
LayerCount: 2
Fore
SplineSet
317 610 m 1,0,-1
 222 610 l 1,1,-1
 222 700 l 1,2,-1
 317 700 l 1,3,-1
 317 610 l 1,0,-1
460 0 m 1,4,-1
 227 0 l 1,5,-1
 227 425 l 1,6,-1
 80 425 l 1,7,-1
 80 500 l 1,8,-1
 312 500 l 1,9,-1
 312 75 l 1,10,-1
 460 75 l 1,11,-1
 460 0 l 1,4,-1
EndSplineSet
EndChar

StartChar: j
Encoding: 106 106 78
Width: 540
GlyphClass: 2
Flags: W
LayerCount: 2
Fore
SplineSet
137 -95 m 1,0,-1
 278 -95 l 2,1,2
 294 -95 294 -95 303.5 -86.5 c 128,-1,3
 313 -78 313 -78 313 -65 c 2,4,-1
 313 425 l 1,5,-1
 166 425 l 1,6,-1
 166 500 l 1,7,-1
 398 500 l 1,8,-1
 398 -60 l 2,9,10
 398 -111 398 -111 369 -140.5 c 128,-1,11
 340 -170 340 -170 294 -170 c 2,12,-1
 137 -170 l 1,13,-1
 137 -95 l 1,0,-1
402 610 m 1,14,-1
 307 610 l 1,15,-1
 307 700 l 1,16,-1
 402 700 l 1,17,-1
 402 610 l 1,14,-1
EndSplineSet
EndChar

StartChar: k
Encoding: 107 107 79
Width: 540
GlyphClass: 2
Flags: W
LayerCount: 2
Fore
SplineSet
181 0 m 1,0,-1
 96 0 l 1,1,-1
 96 700 l 1,2,-1
 181 700 l 1,3,-1
 181 322 l 1,4,-1
 338 500 l 1,5,-1
 445 500 l 1,6,-1
 271 303 l 1,7,-1
 459 0 l 1,8,-1
 354 0 l 1,9,-1
 207 244 l 1,10,-1
 181 214 l 1,11,-1
 181 0 l 1,0,-1
EndSplineSet
EndChar

StartChar: l
Encoding: 108 108 80
Width: 540
GlyphClass: 2
Flags: W
LayerCount: 2
Fore
SplineSet
470 0 m 1,0,-1
 302 0 l 2,1,2
 268 0 268 0 242.5 24 c 128,-1,3
 217 48 217 48 217 100 c 2,4,-1
 217 625 l 1,5,-1
 70 625 l 1,6,-1
 70 700 l 1,7,-1
 302 700 l 1,8,-1
 302 105 l 2,9,10
 302 89 302 89 310 82 c 128,-1,11
 318 75 318 75 337 75 c 2,12,-1
 470 75 l 1,13,-1
 470 0 l 1,0,-1
EndSplineSet
EndChar

StartChar: m
Encoding: 109 109 81
Width: 540
GlyphClass: 2
Flags: W
LayerCount: 2
Fore
SplineSet
123 0 m 1,0,-1
 43 0 l 1,1,-1
 43 500 l 1,2,-1
 118 500 l 1,3,-1
 118 477 l 1,4,5
 144 500 144 500 180 500 c 2,6,-1
 186 500 l 2,7,8
 256 500 256 500 285 460 c 1,9,10
 318 500 318 500 372 500 c 2,11,-1
 378 500 l 2,12,13
 439 500 439 500 468 469 c 128,-1,14
 497 438 497 438 497 359 c 2,15,-1
 497 0 l 1,16,-1
 417 0 l 1,17,-1
 417 360 l 2,18,19
 417 401 417 401 408.5 417 c 128,-1,20
 400 433 400 433 370 433 c 2,21,-1
 364 433 l 2,22,23
 313 433 313 433 310 367 c 1,24,-1
 310 0 l 1,25,-1
 230 0 l 1,26,-1
 230 360 l 2,27,28
 230 402 230 402 220 417.5 c 128,-1,29
 210 433 210 433 184 433 c 2,30,-1
 178 433 l 2,31,32
 126 433 126 433 123 376 c 1,33,-1
 123 0 l 1,0,-1
EndSplineSet
EndChar

StartChar: n
Encoding: 110 110 82
Width: 540
GlyphClass: 2
Flags: W
LayerCount: 2
Fore
SplineSet
172 0 m 1,0,-1
 87 0 l 1,1,-1
 87 500 l 1,2,-1
 167 500 l 1,3,-1
 167 476 l 1,4,5
 198 500 198 500 247 500 c 2,6,-1
 293 500 l 2,7,8
 374 500 374 500 413.5 462 c 128,-1,9
 453 424 453 424 453 340 c 2,10,-1
 453 0 l 1,11,-1
 368 0 l 1,12,-1
 368 360 l 2,13,14
 368 390 368 390 350.5 407.5 c 128,-1,15
 333 425 333 425 303 425 c 2,16,-1
 237 425 l 2,17,18
 204 425 204 425 188 407.5 c 128,-1,19
 172 390 172 390 172 370 c 2,20,-1
 172 0 l 1,0,-1
EndSplineSet
EndChar

StartChar: o
Encoding: 111 111 83
Width: 540
GlyphClass: 2
Flags: W
LayerCount: 2
Fore
SplineSet
456 160 m 2,0,1
 456 76 456 76 414.5 38 c 128,-1,2
 373 0 373 0 286 0 c 2,3,-1
 253 0 l 2,4,5
 166 0 166 0 124.5 38 c 128,-1,6
 83 76 83 76 83 160 c 2,7,-1
 83 340 l 2,8,9
 83 424 83 424 124.5 462 c 128,-1,10
 166 500 166 500 253 500 c 2,11,-1
 286 500 l 2,12,13
 373 500 373 500 414.5 462 c 128,-1,14
 456 424 456 424 456 340 c 2,15,-1
 456 160 l 2,0,1
371 140 m 2,16,-1
 371 360 l 2,17,18
 371 425 371 425 296 425 c 2,19,-1
 243 425 l 2,20,21
 168 425 168 425 168 360 c 2,22,-1
 168 140 l 2,23,24
 168 75 168 75 243 75 c 2,25,-1
 296 75 l 2,26,27
 371 75 371 75 371 140 c 2,16,-1
EndSplineSet
Substitution2: "'ordn' Ordinals in Latin lookup 4 subtable" ordmasculine
Substitution2: "'aalt' Access All Alternates in Latin lookup 0 subtable" ordmasculine
EndChar

StartChar: p
Encoding: 112 112 84
Width: 540
GlyphClass: 2
Flags: W
LayerCount: 2
Fore
SplineSet
172 -170 m 1,0,-1
 87 -170 l 1,1,-1
 87 500 l 1,2,-1
 167 500 l 1,3,-1
 167 476 l 1,4,5
 198 500 198 500 247 500 c 2,6,-1
 283 500 l 2,7,8
 371 500 371 500 412 462.5 c 128,-1,9
 453 425 453 425 453 340 c 2,10,-1
 453 160 l 2,11,12
 453 76 453 76 411.5 38 c 128,-1,13
 370 0 370 0 283 0 c 2,14,-1
 172 0 l 1,15,-1
 172 -170 l 1,0,-1
237 425 m 2,16,17
 204 425 204 425 188 407.5 c 128,-1,18
 172 390 172 390 172 370 c 2,19,-1
 172 75 l 1,20,-1
 293 75 l 2,21,22
 368 75 368 75 368 140 c 2,23,-1
 368 360 l 2,24,25
 368 425 368 425 293 425 c 2,26,-1
 237 425 l 2,16,17
EndSplineSet
EndChar

StartChar: q
Encoding: 113 113 85
Width: 540
GlyphClass: 2
Flags: W
LayerCount: 2
Fore
SplineSet
455 -170 m 1,0,-1
 370 -170 l 1,1,-1
 370 20 l 1,2,3
 339 0 339 0 295 0 c 2,4,-1
 254 0 l 2,5,6
 166 0 166 0 125 37.5 c 128,-1,7
 84 75 84 75 84 160 c 2,8,-1
 84 340 l 2,9,10
 84 424 84 424 125.5 462 c 128,-1,11
 167 500 167 500 254 500 c 2,12,-1
 455 500 l 1,13,-1
 455 -170 l 1,0,-1
305 75 m 2,14,15
 338 75 338 75 354 92.5 c 128,-1,16
 370 110 370 110 370 130 c 2,17,-1
 370 425 l 1,18,-1
 244 425 l 2,19,20
 169 425 169 425 169 360 c 2,21,-1
 169 140 l 2,22,23
 169 75 169 75 244 75 c 2,24,-1
 305 75 l 2,14,15
EndSplineSet
EndChar

StartChar: r
Encoding: 114 114 86
Width: 540
GlyphClass: 2
Flags: W
LayerCount: 2
Fore
SplineSet
367 0 m 1,0,-1
 100 0 l 1,1,-1
 100 75 l 1,2,-1
 173 75 l 1,3,-1
 173 425 l 1,4,-1
 100 425 l 1,5,-1
 100 500 l 1,6,-1
 253 500 l 1,7,-1
 253 473 l 1,8,9
 286 500 286 500 333 500 c 2,10,-1
 436 500 l 1,11,-1
 436 420 l 1,12,-1
 323 420 l 2,13,14
 291 420 291 420 275 399.5 c 128,-1,15
 259 379 259 379 258 358 c 1,16,-1
 258 75 l 1,17,-1
 367 75 l 1,18,-1
 367 0 l 1,0,-1
EndSplineSet
EndChar

StartChar: s
Encoding: 115 115 87
Width: 540
GlyphClass: 2
Flags: W
LayerCount: 2
Fore
SplineSet
422 125 m 2,0,1
 422 0 422 0 272 0 c 2,2,-1
 123 0 l 1,3,-1
 123 75 l 1,4,-1
 282 75 l 2,5,6
 337 75 337 75 337 120 c 2,7,-1
 337 173 l 2,8,9
 337 218 337 218 294 218 c 2,10,-1
 257 218 l 2,11,12
 187 218 187 218 152.5 248.5 c 128,-1,13
 118 279 118 279 118 345 c 2,14,-1
 118 374 l 2,15,16
 118 441 118 441 156 470.5 c 128,-1,17
 194 500 194 500 268 500 c 2,18,-1
 402 500 l 1,19,-1
 402 425 l 1,20,-1
 258 425 l 2,21,22
 233 425 233 425 218 413.5 c 128,-1,23
 203 402 203 402 203 380 c 2,24,-1
 203 344 l 2,25,26
 203 321 203 321 216.5 310 c 128,-1,27
 230 299 230 299 251 299 c 2,28,-1
 285 299 l 2,29,30
 422 299 422 299 422 170 c 2,31,-1
 422 125 l 2,0,1
EndSplineSet
EndChar

StartChar: t
Encoding: 116 116 88
Width: 540
GlyphClass: 2
Flags: W
LayerCount: 2
Fore
SplineSet
433 0 m 1,0,-1
 307 0 l 2,1,2
 256 0 256 0 229 33 c 128,-1,3
 202 66 202 66 202 120 c 2,4,-1
 202 425 l 1,5,-1
 107 425 l 1,6,-1
 107 500 l 1,7,-1
 202 500 l 1,8,-1
 202 620 l 1,9,-1
 287 620 l 1,10,-1
 287 500 l 1,11,-1
 433 500 l 1,12,-1
 433 425 l 1,13,-1
 287 425 l 1,14,-1
 287 115 l 2,15,16
 287 75 287 75 332 75 c 2,17,-1
 433 75 l 1,18,-1
 433 0 l 1,0,-1
EndSplineSet
EndChar

StartChar: u
Encoding: 117 117 89
Width: 540
GlyphClass: 2
Flags: W
LayerCount: 2
Fore
SplineSet
447 0 m 1,0,-1
 367 0 l 1,1,-1
 367 23 l 1,2,3
 334 0 334 0 287 0 c 2,4,-1
 253 0 l 2,5,6
 172 0 172 0 132.5 38 c 128,-1,7
 93 76 93 76 93 160 c 2,8,-1
 93 500 l 1,9,-1
 178 500 l 1,10,-1
 178 140 l 2,11,12
 178 110 178 110 195.5 92.5 c 128,-1,13
 213 75 213 75 243 75 c 2,14,-1
 297 75 l 2,15,16
 329 75 329 75 344.5 91 c 128,-1,17
 360 107 360 107 362 127 c 1,18,-1
 362 500 l 1,19,-1
 447 500 l 1,20,-1
 447 0 l 1,0,-1
EndSplineSet
EndChar

StartChar: v
Encoding: 118 118 90
Width: 540
GlyphClass: 2
Flags: W
LayerCount: 2
Fore
SplineSet
476 500 m 1,0,-1
 332 0 l 1,1,-1
 209 0 l 1,2,-1
 64 500 l 1,3,-1
 156 500 l 1,4,-1
 273 69 l 1,5,-1
 387 500 l 1,6,-1
 476 500 l 1,0,-1
EndSplineSet
EndChar

StartChar: w
Encoding: 119 119 91
Width: 540
GlyphClass: 2
Flags: W
LayerCount: 2
Fore
SplineSet
505 500 m 1,0,-1
 416 0 l 1,1,-1
 320 0 l 1,2,-1
 272 251 l 1,3,-1
 218 0 l 1,4,-1
 125 0 l 1,5,-1
 35 500 l 1,6,-1
 120 500 l 1,7,-1
 177 103 l 1,8,-1
 243 410 l 1,9,-1
 308 410 l 1,10,-1
 368 103 l 1,11,-1
 425 500 l 1,12,-1
 505 500 l 1,0,-1
EndSplineSet
EndChar

StartChar: x
Encoding: 120 120 92
Width: 540
GlyphClass: 2
Flags: W
LayerCount: 2
Fore
SplineSet
474 0 m 1,0,-1
 374 0 l 1,1,-1
 269 189 l 1,2,-1
 159 0 l 1,3,-1
 65 0 l 1,4,-1
 221 258 l 1,5,-1
 77 500 l 1,6,-1
 176 500 l 1,7,-1
 271 332 l 1,8,-1
 368 500 l 1,9,-1
 461 500 l 1,10,-1
 315 262 l 1,11,-1
 474 0 l 1,0,-1
EndSplineSet
EndChar

StartChar: y
Encoding: 121 121 93
Width: 540
GlyphClass: 2
Flags: W
LayerCount: 2
Fore
SplineSet
138 -95 m 1,0,-1
 180 -95 l 2,1,2
 204 -95 204 -95 216 -86 c 128,-1,3
 228 -77 228 -77 234 -55 c 2,4,-1
 248 0 l 1,5,-1
 228 0 l 1,6,-1
 63 500 l 1,7,-1
 155 500 l 1,8,-1
 280 81 l 1,9,-1
 389 500 l 1,10,-1
 476 500 l 1,11,-1
 321 -54 l 1,12,13
 302 -127 302 -127 271.5 -148.5 c 128,-1,14
 241 -170 241 -170 186 -170 c 2,15,-1
 138 -170 l 1,16,-1
 138 -95 l 1,0,-1
EndSplineSet
EndChar

StartChar: z
Encoding: 122 122 94
Width: 540
GlyphClass: 2
Flags: W
LayerCount: 2
Fore
SplineSet
424 74 m 1,0,-1
 424 0 l 1,1,-1
 106 0 l 1,2,-1
 106 80 l 1,3,-1
 340 426 l 1,4,-1
 126 426 l 1,5,-1
 126 500 l 1,6,-1
 434 500 l 1,7,-1
 434 411 l 1,8,-1
 202 74 l 1,9,-1
 424 74 l 1,0,-1
EndSplineSet
EndChar

StartChar: braceleft
Encoding: 123 123 95
Width: 540
GlyphClass: 2
Flags: W
LayerCount: 2
Fore
SplineSet
147 295 m 1,0,-1
 147 405 l 1,1,2
 187 405 187 405 202.5 417.5 c 128,-1,3
 218 430 218 430 218 469 c 2,4,-1
 218 698 l 2,5,6
 218 765 218 765 243 792.5 c 128,-1,7
 268 820 268 820 327 820 c 2,8,-1
 392 820 l 1,9,-1
 392 750 l 1,10,-1
 341 750 l 2,11,12
 317 750 317 750 306.5 742.5 c 128,-1,13
 296 735 296 735 296 713 c 2,14,-1
 296 469 l 2,15,16
 296 419 296 419 271.5 387 c 128,-1,17
 247 355 247 355 211 349 c 1,18,19
 247 345 247 345 271.5 313 c 128,-1,20
 296 281 296 281 296 231 c 2,21,-1
 296 -13 l 2,22,23
 296 -35 296 -35 306.5 -42.5 c 128,-1,24
 317 -50 317 -50 341 -50 c 2,25,-1
 392 -50 l 1,26,-1
 392 -120 l 1,27,-1
 327 -120 l 2,28,29
 268 -120 268 -120 243 -92.5 c 128,-1,30
 218 -65 218 -65 218 2 c 2,31,-1
 218 231 l 2,32,33
 218 270 218 270 202.5 282.5 c 128,-1,34
 187 295 187 295 147 295 c 1,0,-1
EndSplineSet
EndChar

StartChar: bar
Encoding: 124 124 96
Width: 540
GlyphClass: 2
Flags: W
LayerCount: 2
Fore
SplineSet
310 -110 m 1,0,-1
 230 -110 l 1,1,-1
 230 810 l 1,2,-1
 310 810 l 1,3,-1
 310 -110 l 1,0,-1
EndSplineSet
EndChar

StartChar: braceright
Encoding: 125 125 97
Width: 540
GlyphClass: 2
Flags: W
LayerCount: 2
Fore
SplineSet
392 405 m 1,0,-1
 392 295 l 1,1,2
 352 295 352 295 336.5 282.5 c 128,-1,3
 321 270 321 270 321 231 c 2,4,-1
 321 2 l 2,5,6
 321 -65 321 -65 296 -92.5 c 128,-1,7
 271 -120 271 -120 212 -120 c 2,8,-1
 147 -120 l 1,9,-1
 147 -50 l 1,10,-1
 198 -50 l 2,11,12
 222 -50 222 -50 232.5 -42.5 c 128,-1,13
 243 -35 243 -35 243 -13 c 2,14,-1
 243 231 l 2,15,16
 243 281 243 281 267.5 313 c 128,-1,17
 292 345 292 345 328 349 c 1,18,19
 292 355 292 355 267.5 387 c 128,-1,20
 243 419 243 419 243 469 c 2,21,-1
 243 713 l 2,22,23
 243 735 243 735 232.5 742.5 c 128,-1,24
 222 750 222 750 198 750 c 2,25,-1
 147 750 l 1,26,-1
 147 820 l 1,27,-1
 212 820 l 2,28,29
 271 820 271 820 296 792.5 c 128,-1,30
 321 765 321 765 321 698 c 2,31,-1
 321 469 l 2,32,33
 321 430 321 430 336.5 417.5 c 128,-1,34
 352 405 352 405 392 405 c 1,0,-1
EndSplineSet
EndChar

StartChar: asciitilde
Encoding: 126 126 98
Width: 540
GlyphClass: 2
Flags: W
LayerCount: 2
Fore
SplineSet
197 381 m 2,0,-1
 212 381 l 2,1,2
 224 381 224 381 278 361 c 128,-1,3
 332 341 332 341 343 341 c 2,4,-1
 353 341 l 2,5,6
 364 341 364 341 421 368 c 2,7,-1
 440 377 l 1,8,-1
 440 297 l 1,9,10
 369 262 369 262 352 262 c 2,11,-1
 337 262 l 2,12,13
 331 262 331 262 274.5 282 c 128,-1,14
 218 302 218 302 207 302 c 2,15,-1
 197 302 l 2,16,17
 184 302 184 302 121 275 c 2,18,-1
 100 266 l 1,19,-1
 100 346 l 1,20,21
 178 381 178 381 197 381 c 2,0,-1
EndSplineSet
EndChar

StartChar: exclamdown
Encoding: 161 161 100
Width: 540
GlyphClass: 2
Flags: W
LayerCount: 2
Fore
SplineSet
220 500 m 1,0,-1
 320 500 l 1,1,-1
 320 400 l 1,2,-1
 220 400 l 1,3,-1
 220 500 l 1,0,-1
228 292 m 1,4,-1
 313 292 l 1,5,-1
 313 -200 l 1,6,-1
 228 -200 l 1,7,-1
 228 292 l 1,4,-1
EndSplineSet
EndChar

StartChar: cent
Encoding: 162 162 101
Width: 540
GlyphClass: 2
Flags: W
LayerCount: 2
Fore
SplineSet
340 -110 m 1,0,-1
 260 -110 l 1,1,-1
 260 0 l 1,2,3
 188 6 188 6 154 43.5 c 128,-1,4
 120 81 120 81 120 159 c 2,5,-1
 120 339 l 2,6,7
 120 416 120 416 154 453.5 c 128,-1,8
 188 491 188 491 260 497 c 1,9,-1
 260 600 l 1,10,-1
 340 600 l 1,11,-1
 340 499 l 1,12,-1
 419 499 l 1,13,-1
 419 424 l 1,14,-1
 280 424 l 2,15,16
 205 424 205 424 205 359 c 2,17,-1
 205 139 l 2,18,19
 205 74 205 74 280 74 c 2,20,-1
 419 74 l 1,21,-1
 419 -1 l 1,22,-1
 340 -1 l 1,23,-1
 340 -110 l 1,0,-1
EndSplineSet
EndChar

StartChar: sterling
Encoding: 163 163 102
Width: 540
GlyphClass: 2
Flags: W
LayerCount: 2
Fore
SplineSet
92 340 m 1,0,-1
 92 413 l 1,1,-1
 162 413 l 1,2,-1
 162 530 l 2,3,4
 162 615 162 615 208.5 657.5 c 128,-1,5
 255 700 255 700 342 700 c 2,6,-1
 439 700 l 1,7,-1
 439 624 l 1,8,-1
 332 624 l 2,9,10
 295 624 295 624 272 602 c 128,-1,11
 249 580 249 580 249 549 c 2,12,-1
 249 413 l 1,13,-1
 377 413 l 1,14,-1
 377 340 l 1,15,-1
 249 340 l 1,16,-1
 249 73 l 1,17,-1
 447 73 l 1,18,-1
 447 0 l 1,19,-1
 92 0 l 1,20,-1
 92 73 l 1,21,-1
 162 73 l 1,22,-1
 162 340 l 1,23,-1
 92 340 l 1,0,-1
EndSplineSet
EndChar

StartChar: currency
Encoding: 164 164 103
Width: 540
GlyphClass: 2
Flags: W
LayerCount: 2
Fore
SplineSet
73 252 m 2,0,-1
 73 350 l 2,1,2
 73 398 73 398 85 429 c 1,3,-1
 14 501 l 1,4,-1
 71 558 l 1,5,-1
 139 490 l 1,6,7
 176 510 176 510 243 510 c 2,8,-1
 296 510 l 2,9,10
 361 510 361 510 400 489 c 1,11,-1
 469 558 l 1,12,-1
 526 501 l 1,13,-1
 453 428 l 1,14,15
 466 398 466 398 466 350 c 2,16,-1
 466 252 l 2,17,18
 466 206 466 206 454 175 c 1,19,-1
 526 103 l 1,20,-1
 469 46 l 1,21,-1
 402 113 l 1,22,23
 362 92 362 92 296 92 c 2,24,-1
 243 92 l 2,25,26
 174 92 174 92 138 113 c 1,27,-1
 71 46 l 1,28,-1
 14 103 l 1,29,-1
 85 174 l 1,30,31
 73 206 73 206 73 252 c 2,0,-1
381 232 m 2,32,-1
 381 370 l 2,33,34
 381 435 381 435 306 435 c 2,35,-1
 233 435 l 2,36,37
 158 435 158 435 158 370 c 2,38,-1
 158 232 l 2,39,40
 158 167 158 167 233 167 c 2,41,-1
 306 167 l 2,42,43
 381 167 381 167 381 232 c 2,32,-1
EndSplineSet
EndChar

StartChar: yen
Encoding: 165 165 104
Width: 540
GlyphClass: 2
Flags: W
LayerCount: 2
Fore
SplineSet
444 115 m 1,0,-1
 314 115 l 1,1,-1
 314 0 l 1,2,-1
 224 0 l 1,3,-1
 224 115 l 1,4,-1
 94 115 l 1,5,-1
 94 190 l 1,6,-1
 224 190 l 1,7,-1
 224 265 l 1,8,-1
 94 265 l 1,9,-1
 94 340 l 1,10,-1
 221 340 l 1,11,-1
 55 700 l 1,12,-1
 151 700 l 1,13,-1
 273 427 l 1,14,-1
 394 700 l 1,15,-1
 485 700 l 1,16,-1
 316 340 l 1,17,-1
 444 340 l 1,18,-1
 444 265 l 1,19,-1
 314 265 l 1,20,-1
 314 190 l 1,21,-1
 444 190 l 1,22,-1
 444 115 l 1,0,-1
EndSplineSet
EndChar

StartChar: brokenbar
Encoding: 166 166 105
Width: 540
GlyphClass: 2
Flags: W
LayerCount: 2
Fore
SplineSet
310 -110 m 1,0,-1
 230 -110 l 1,1,-1
 230 250 l 1,2,-1
 310 250 l 1,3,-1
 310 -110 l 1,0,-1
310 450 m 1,4,-1
 230 450 l 1,5,-1
 230 810 l 1,6,-1
 310 810 l 1,7,-1
 310 450 l 1,4,-1
EndSplineSet
EndChar

StartChar: section
Encoding: 167 167 106
Width: 540
GlyphClass: 2
Flags: W
LayerCount: 2
Fore
SplineSet
113 355 m 2,0,1
 113 430 113 430 157 462 c 1,2,3
 127 494 127 494 127 550 c 2,4,-1
 127 560 l 2,5,6
 127 700 127 700 277 700 c 2,7,-1
 401 700 l 1,8,-1
 401 625 l 1,9,-1
 267 625 l 2,10,11
 243 625 243 625 227.5 613.5 c 128,-1,12
 212 602 212 602 212 580 c 2,13,-1
 212 540 l 2,14,15
 212 495 212 495 260 495 c 2,16,-1
 289 495 l 2,17,18
 426 495 426 495 426 350 c 2,19,-1
 426 345 l 2,20,21
 426 277 426 277 382 238 c 1,22,23
 412 216 412 216 412 150 c 2,24,-1
 412 140 l 2,25,26
 412 0 412 0 262 0 c 2,27,-1
 138 0 l 1,28,-1
 138 75 l 1,29,-1
 272 75 l 2,30,31
 296 75 296 75 311.5 86.5 c 128,-1,32
 327 98 327 98 327 120 c 2,33,-1
 327 160 l 2,34,35
 327 205 327 205 283 205 c 2,36,-1
 250 205 l 2,37,38
 113 205 113 205 113 350 c 2,39,-1
 113 355 l 2,0,1
289 420 m 2,40,-1
 233 420 l 2,41,42
 198 420 198 420 198 375 c 2,43,-1
 198 330 l 2,44,45
 198 280 198 280 251 280 c 2,46,-1
 306 280 l 2,47,48
 341 280 341 280 341 325 c 2,49,-1
 341 370 l 2,50,51
 341 394 341 394 330 407 c 128,-1,52
 319 420 319 420 289 420 c 2,40,-1
EndSplineSet
EndChar

StartChar: dieresis
Encoding: 168 168 107
Width: 540
GlyphClass: 2
Flags: W
LayerCount: 2
Fore
SplineSet
412 595 m 1,0,-1
 327 595 l 1,1,-1
 327 675 l 1,2,-1
 412 675 l 1,3,-1
 412 595 l 1,0,-1
212 595 m 1,4,-1
 127 595 l 1,5,-1
 127 675 l 1,6,-1
 212 675 l 1,7,-1
 212 595 l 1,4,-1
EndSplineSet
EndChar

StartChar: copyright
Encoding: 169 169 108
Width: 540
GlyphClass: 2
Flags: W
LayerCount: 2
Fore
SplineSet
357 157 m 1,0,-1
 283 157 l 2,1,2
 175 157 175 157 175 251 c 2,3,-1
 175 449 l 2,4,5
 175 543 175 543 283 543 c 2,6,-1
 358 543 l 1,7,-1
 358 492 l 1,8,-1
 278 492 l 2,9,10
 256 492 256 492 244 480 c 128,-1,11
 232 468 232 468 232 450 c 2,12,-1
 232 250 l 2,13,14
 232 232 232 232 244 220 c 128,-1,15
 256 208 256 208 278 208 c 2,16,-1
 357 208 l 1,17,-1
 357 157 l 1,0,-1
515 170 m 2,18,19
 515 86 515 86 472 43 c 128,-1,20
 429 0 429 0 352 0 c 2,21,-1
 188 0 l 2,22,23
 111 0 111 0 68 43 c 128,-1,24
 25 86 25 86 25 170 c 2,25,-1
 25 530 l 2,26,27
 25 614 25 614 68 657 c 128,-1,28
 111 700 111 700 188 700 c 2,29,-1
 352 700 l 2,30,31
 429 700 429 700 472 657 c 128,-1,32
 515 614 515 614 515 530 c 2,33,-1
 515 170 l 2,18,19
443 147 m 2,34,-1
 443 552 l 2,35,36
 443 585 443 585 418.5 610.5 c 128,-1,37
 394 636 394 636 352 636 c 2,38,-1
 188 636 l 2,39,40
 145 636 145 636 121 610.5 c 128,-1,41
 97 585 97 585 97 552 c 2,42,-1
 97 147 l 2,43,44
 97 114 97 114 121 88.5 c 128,-1,45
 145 63 145 63 188 63 c 2,46,-1
 352 63 l 2,47,48
 395 63 395 63 419 88.5 c 128,-1,49
 443 114 443 114 443 147 c 2,34,-1
EndSplineSet
EndChar

StartChar: ordfeminine
Encoding: 170 170 109
Width: 540
GlyphClass: 2
Flags: W
LayerCount: 2
Fore
SplineSet
414 324 m 1,0,-1
 369 324 l 2,1,2
 346 324 346 324 329 344 c 1,3,4
 312 324 312 324 286 324 c 2,5,-1
 234 324 l 2,6,7
 177 324 177 324 151 347.5 c 128,-1,8
 125 371 125 371 125 426 c 2,9,-1
 125 441 l 2,10,11
 125 557 125 557 235 557 c 2,12,-1
 309 557 l 1,13,-1
 309 595 l 2,14,15
 309 639 309 639 256 639 c 2,16,-1
 155 639 l 1,17,-1
 155 700 l 1,18,-1
 249 700 l 2,19,20
 314 700 314 700 345.5 671.5 c 128,-1,21
 377 643 377 643 377 580 c 2,22,-1
 377 399 l 2,23,24
 377 377 377 377 414 377 c 1,25,-1
 414 324 l 1,0,-1
398 0 m 1,26,-1
 147 0 l 1,27,-1
 147 75 l 1,28,-1
 398 75 l 1,29,-1
 398 0 l 1,26,-1
274 383 m 2,30,31
 290 383 290 383 298.5 390 c 128,-1,32
 307 397 307 397 308 403 c 128,-1,33
 309 409 309 409 309 420 c 2,34,-1
 309 499 l 1,35,-1
 238 499 l 2,36,37
 218 499 218 499 205.5 486.5 c 128,-1,38
 193 474 193 474 193 454 c 2,39,-1
 193 422 l 2,40,41
 193 383 193 383 230 383 c 2,42,-1
 274 383 l 2,30,31
EndSplineSet
EndChar

StartChar: guillemotleft
Encoding: 171 171 110
Width: 540
GlyphClass: 2
Flags: W
LayerCount: 2
Fore
SplineSet
267 92 m 1,0,-1
 201 92 l 1,1,-1
 112 299 l 1,2,-1
 201 506 l 1,3,-1
 267 506 l 1,4,-1
 204 299 l 1,5,-1
 267 92 l 1,0,-1
427 92 m 1,6,-1
 361 92 l 1,7,-1
 272 299 l 1,8,-1
 361 506 l 1,9,-1
 427 506 l 1,10,-1
 364 299 l 1,11,-1
 427 92 l 1,6,-1
EndSplineSet
EndChar

StartChar: logicalnot
Encoding: 172 172 111
Width: 540
GlyphClass: 2
Flags: W
LayerCount: 2
Fore
SplineSet
477 106 m 1,0,-1
 392 106 l 1,1,-1
 392 275 l 1,2,-1
 62 275 l 1,3,-1
 62 350 l 1,4,-1
 477 350 l 1,5,-1
 477 106 l 1,0,-1
EndSplineSet
EndChar

StartChar: uni00AD
Encoding: 173 173 112
Width: 540
GlyphClass: 2
Flags: W
LayerCount: 2
Fore
SplineSet
432 275 m 1,0,-1
 107 275 l 1,1,-1
 107 350 l 1,2,-1
 432 350 l 1,3,-1
 432 275 l 1,0,-1
EndSplineSet
EndChar

StartChar: registered
Encoding: 174 174 113
Width: 540
GlyphClass: 2
Flags: W
LayerCount: 2
Fore
SplineSet
515 170 m 2,0,1
 515 86 515 86 472 43 c 128,-1,2
 429 0 429 0 352 0 c 2,3,-1
 188 0 l 2,4,5
 111 0 111 0 68 43 c 128,-1,6
 25 86 25 86 25 170 c 2,7,-1
 25 530 l 2,8,9
 25 614 25 614 68 657 c 128,-1,10
 111 700 111 700 188 700 c 2,11,-1
 352 700 l 2,12,13
 429 700 429 700 472 657 c 128,-1,14
 515 614 515 614 515 530 c 2,15,-1
 515 170 l 2,0,1
443 147 m 2,16,-1
 443 552 l 2,17,18
 443 585 443 585 418.5 610.5 c 128,-1,19
 394 636 394 636 352 636 c 2,20,-1
 188 636 l 2,21,22
 145 636 145 636 121 610.5 c 128,-1,23
 97 585 97 585 97 552 c 2,24,-1
 97 147 l 2,25,26
 97 114 97 114 121 88.5 c 128,-1,27
 145 63 145 63 188 63 c 2,28,-1
 352 63 l 2,29,30
 395 63 395 63 419 88.5 c 128,-1,31
 443 114 443 114 443 147 c 2,16,-1
225 317 m 1,32,-1
 225 159 l 1,33,-1
 169 159 l 1,34,-1
 169 543 l 1,35,-1
 276 543 l 2,36,37
 380 543 380 543 380 457 c 2,38,-1
 380 404 l 2,39,40
 380 342 380 342 326 326 c 1,41,-1
 409 159 l 1,42,-1
 348 159 l 1,43,-1
 270 317 l 1,44,-1
 225 317 l 1,32,-1
319 403 m 2,45,-1
 319 457 l 2,46,47
 319 496 319 496 276 496 c 2,48,-1
 225 496 l 1,49,-1
 225 363 l 1,50,-1
 276 363 l 2,51,52
 319 363 319 363 319 403 c 2,45,-1
EndSplineSet
EndChar

StartChar: macron
Encoding: 175 175 114
Width: 540
GlyphClass: 2
Flags: W
LayerCount: 2
Fore
SplineSet
397 605 m 1,0,-1
 142 605 l 1,1,-1
 142 675 l 1,2,-1
 397 675 l 1,3,-1
 397 605 l 1,0,-1
EndSplineSet
EndChar

StartChar: degree
Encoding: 176 176 115
Width: 540
GlyphClass: 2
Flags: W
LayerCount: 2
Fore
SplineSet
411 516 m 2,0,1
 411 458 411 458 375 427.5 c 128,-1,2
 339 397 339 397 284 397 c 2,3,-1
 256 397 l 2,4,5
 201 397 201 397 165 427.5 c 128,-1,6
 129 458 129 458 129 516 c 2,7,-1
 129 582 l 2,8,9
 129 640 129 640 164.5 670.5 c 128,-1,10
 200 701 200 701 256 701 c 2,11,-1
 284 701 l 2,12,13
 340 701 340 701 375.5 670.5 c 128,-1,14
 411 640 411 640 411 582 c 2,15,-1
 411 516 l 2,0,1
342 513 m 2,16,-1
 342 585 l 2,17,18
 342 607 342 607 325.5 623 c 128,-1,19
 309 639 309 639 284 639 c 2,20,-1
 256 639 l 2,21,22
 231 639 231 639 214.5 623 c 128,-1,23
 198 607 198 607 198 585 c 2,24,-1
 198 513 l 2,25,26
 198 491 198 491 214.5 475 c 128,-1,27
 231 459 231 459 256 459 c 2,28,-1
 284 459 l 2,29,30
 309 459 309 459 325.5 475 c 128,-1,31
 342 491 342 491 342 513 c 2,16,-1
EndSplineSet
EndChar

StartChar: plusminus
Encoding: 177 177 116
Width: 540
GlyphClass: 2
Flags: W
LayerCount: 2
Fore
SplineSet
460 275 m 1,0,-1
 310 275 l 1,1,-1
 310 143 l 1,2,-1
 230 143 l 1,3,-1
 230 275 l 1,4,-1
 80 275 l 1,5,-1
 80 350 l 1,6,-1
 230 350 l 1,7,-1
 230 508 l 1,8,-1
 310 508 l 1,9,-1
 310 350 l 1,10,-1
 460 350 l 1,11,-1
 460 275 l 1,0,-1
460 0 m 1,12,-1
 80 0 l 1,13,-1
 80 75 l 1,14,-1
 460 75 l 1,15,-1
 460 0 l 1,12,-1
EndSplineSet
EndChar

StartChar: twosuperior
Encoding: 178 178 117
Width: 540
GlyphClass: 2
Flags: W
LayerCount: 2
Fore
SplineSet
390 205 m 1,0,-1
 150 205 l 1,1,-1
 150 278 l 1,2,-1
 262 431 l 2,3,4
 295 476 295 476 303.5 495 c 128,-1,5
 312 514 312 514 312 551 c 2,6,-1
 312 587 l 2,7,8
 312 636 312 636 251 636 c 2,9,-1
 165 636 l 1,10,-1
 165 700 l 1,11,-1
 244 700 l 2,12,13
 318 700 318 700 351.5 671.5 c 128,-1,14
 385 643 385 643 385 581 c 2,15,-1
 385 558 l 2,16,17
 385 486 385 486 364 454 c 0,18,19
 357 443 357 443 331 408 c 2,20,-1
 228 269 l 1,21,-1
 390 269 l 1,22,-1
 390 205 l 1,0,-1
EndSplineSet
EndChar

StartChar: threesuperior
Encoding: 179 179 118
Width: 540
GlyphClass: 2
Flags: W
LayerCount: 2
Fore
SplineSet
381 324 m 2,0,1
 381 261 381 261 351.5 233 c 128,-1,2
 322 205 322 205 254 205 c 2,3,-1
 158 205 l 1,4,-1
 158 269 l 1,5,-1
 251 269 l 2,6,7
 307 269 307 269 307 319 c 2,8,-1
 307 374 l 2,9,10
 307 398 307 398 292 412 c 128,-1,11
 277 426 277 426 252 426 c 2,12,-1
 181 426 l 1,13,-1
 181 490 l 1,14,-1
 244 490 l 2,15,16
 268 490 268 490 283.5 503.5 c 128,-1,17
 299 517 299 517 299 542 c 2,18,-1
 299 584 l 2,19,20
 299 613 299 613 286 624.5 c 128,-1,21
 273 636 273 636 244 636 c 2,22,-1
 158 636 l 1,23,-1
 158 700 l 1,24,-1
 245 700 l 2,25,26
 374 700 374 700 374 583 c 2,27,-1
 374 548 l 2,28,29
 374 491 374 491 330 461 c 1,30,31
 381 434 381 434 381 369 c 2,32,-1
 381 324 l 2,0,1
EndSplineSet
EndChar

StartChar: acute
Encoding: 180 180 119
Width: 540
GlyphClass: 2
Flags: W
LayerCount: 2
Fore
SplineSet
254 580 m 1,0,-1
 168 580 l 1,1,-1
 272 715 l 1,2,-1
 376 715 l 1,3,-1
 254 580 l 1,0,-1
EndSplineSet
EndChar

StartChar: mu
Encoding: 181 181 120
Width: 540
GlyphClass: 2
Flags: W
LayerCount: 2
Fore
SplineSet
188 -170 m 1,0,-1
 103 -170 l 1,1,-1
 103 500 l 1,2,-1
 188 500 l 1,3,-1
 188 140 l 2,4,5
 188 110 188 110 205.5 92.5 c 128,-1,6
 223 75 223 75 253 75 c 2,7,-1
 287 75 l 2,8,9
 320 75 320 75 336 92.5 c 128,-1,10
 352 110 352 110 352 130 c 2,11,-1
 352 500 l 1,12,-1
 437 500 l 1,13,-1
 437 0 l 1,14,-1
 357 0 l 1,15,-1
 357 23 l 1,16,17
 324 0 324 0 277 0 c 2,18,-1
 263 0 l 2,19,20
 218 0 218 0 188 10 c 1,21,-1
 188 -170 l 1,0,-1
EndSplineSet
EndChar

StartChar: paragraph
Encoding: 182 182 121
Width: 540
GlyphClass: 2
Flags: W
LayerCount: 2
Fore
SplineSet
318 0 m 1,0,-1
 235 0 l 1,1,-1
 235 374 l 1,2,-1
 229 374 l 2,3,4
 141 374 141 374 101.5 408.5 c 128,-1,5
 62 443 62 443 62 527 c 2,6,-1
 62 540 l 2,7,8
 62 625 62 625 102 662.5 c 128,-1,9
 142 700 142 700 229 700 c 2,10,-1
 318 700 l 1,11,-1
 318 630 l 1,12,-1
 218 630 l 2,13,14
 182 630 182 630 162.5 610.5 c 128,-1,15
 143 591 143 591 143 560 c 2,16,-1
 143 507 l 2,17,18
 143 442 143 442 218 442 c 2,19,-1
 318 442 l 1,20,-1
 318 0 l 1,0,-1
453 0 m 1,21,-1
 373 0 l 1,22,-1
 373 700 l 1,23,-1
 453 700 l 1,24,-1
 453 0 l 1,21,-1
EndSplineSet
EndChar

StartChar: periodcentered
Encoding: 183 183 122
Width: 540
GlyphClass: 2
Flags: W
LayerCount: 2
Fore
SplineSet
320 260 m 1,0,-1
 220 260 l 1,1,-1
 220 360 l 1,2,-1
 320 360 l 1,3,-1
 320 260 l 1,0,-1
EndSplineSet
EndChar

StartChar: cedilla
Encoding: 184 184 123
Width: 540
GlyphClass: 2
Flags: W
LayerCount: 2
Fore
SplineSet
268 -200 m 2,0,-1
 183 -200 l 1,1,-1
 183 -136 l 1,2,-1
 250 -136 l 2,3,4
 283 -136 283 -136 283 -105 c 0,5,6
 283 -88 283 -88 274.5 -82 c 128,-1,7
 266 -76 266 -76 248 -76 c 2,8,-1
 199 -76 l 1,9,-1
 199 50 l 1,10,-1
 269 50 l 1,11,-1
 269 -21 l 1,12,13
 315 -21 315 -21 335.5 -38.5 c 128,-1,14
 356 -56 356 -56 356 -96 c 128,-1,15
 356 -136 356 -136 347.5 -156.5 c 128,-1,16
 339 -177 339 -177 324 -186 c 0,17,18
 300 -200 300 -200 268 -200 c 2,0,-1
EndSplineSet
EndChar

StartChar: onesuperior
Encoding: 185 185 124
Width: 540
GlyphClass: 2
Flags: W
LayerCount: 2
Fore
SplineSet
393 205 m 1,0,-1
 154 205 l 1,1,-1
 154 269 l 1,2,-1
 245 269 l 1,3,-1
 245 633 l 1,4,-1
 146 594 l 1,5,-1
 146 662 l 1,6,-1
 237 700 l 1,7,-1
 319 700 l 1,8,-1
 319 269 l 1,9,-1
 393 269 l 1,10,-1
 393 205 l 1,0,-1
EndSplineSet
EndChar

StartChar: ordmasculine
Encoding: 186 186 125
Width: 540
GlyphClass: 2
Flags: W
LayerCount: 2
Fore
SplineSet
408 0 m 1,0,-1
 132 0 l 1,1,-1
 132 75 l 1,2,-1
 408 75 l 1,3,-1
 408 0 l 1,0,-1
400 446 m 2,4,5
 400 383 400 383 369 354.5 c 128,-1,6
 338 326 338 326 273 326 c 2,7,-1
 263 326 l 2,8,9
 197 326 197 326 166 354.5 c 128,-1,10
 135 383 135 383 135 446 c 2,11,-1
 135 582 l 2,12,13
 135 645 135 645 166 673.5 c 128,-1,14
 197 702 197 702 263 702 c 2,15,-1
 273 702 l 2,16,17
 338 702 338 702 369 673.5 c 128,-1,18
 400 645 400 645 400 582 c 2,19,-1
 400 446 l 2,4,5
332 435 m 2,20,-1
 332 593 l 2,21,22
 332 641 332 641 276 641 c 2,23,-1
 259 641 l 2,24,25
 203 641 203 641 203 593 c 2,26,-1
 203 435 l 2,27,28
 203 387 203 387 259 387 c 2,29,-1
 276 387 l 2,30,31
 332 387 332 387 332 435 c 2,20,-1
EndSplineSet
EndChar

StartChar: guillemotright
Encoding: 187 187 126
Width: 540
GlyphClass: 2
Flags: W
LayerCount: 2
Fore
SplineSet
338 92 m 1,0,-1
 272 92 l 1,1,-1
 335 299 l 1,2,-1
 272 506 l 1,3,-1
 338 506 l 1,4,-1
 427 299 l 1,5,-1
 338 92 l 1,0,-1
178 92 m 1,6,-1
 112 92 l 1,7,-1
 175 299 l 1,8,-1
 112 506 l 1,9,-1
 178 506 l 1,10,-1
 267 299 l 1,11,-1
 178 92 l 1,6,-1
EndSplineSet
EndChar

StartChar: onequarter
Encoding: 188 188 127
Width: 540
GlyphClass: 3
Flags: W
LayerCount: 2
Fore
SplineSet
185 205 m 1,0,-1
 29 205 l 1,1,-1
 29 269 l 1,2,-1
 77 269 l 1,3,-1
 77 630 l 1,4,-1
 11 591 l 1,5,-1
 11 662 l 1,6,-1
 79 700 l 1,7,-1
 151 700 l 1,8,-1
 151 269 l 1,9,-1
 185 269 l 1,10,-1
 185 205 l 1,0,-1
528 117 m 1,11,-1
 498 117 l 1,12,-1
 498 0 l 1,13,-1
 428 0 l 1,14,-1
 428 117 l 1,15,-1
 327 117 l 1,16,-1
 327 191 l 1,17,-1
 381 495 l 1,18,-1
 450 495 l 1,19,-1
 388 181 l 1,20,-1
 424 181 l 1,21,-1
 451 324 l 1,22,-1
 498 324 l 1,23,-1
 498 181 l 1,24,-1
 528 181 l 1,25,-1
 528 117 l 1,11,-1
449 810 m 1,26,-1
 193 -110 l 1,27,-1
 119 -110 l 1,28,-1
 375 810 l 1,29,-1
 449 810 l 1,26,-1
EndSplineSet
Ligature2: "'frac' Diagonal Fractions in Latin lookup 1 subtable" onesuperior fraction four
Ligature2: "'frac' Diagonal Fractions in Latin lookup 1 subtable" onesuperior slash four
Ligature2: "'frac' Diagonal Fractions in Latin lookup 1 subtable" one fraction four
Ligature2: "'frac' Diagonal Fractions in Latin lookup 1 subtable" one slash four
EndChar

StartChar: onehalf
Encoding: 189 189 128
Width: 540
GlyphClass: 3
Flags: W
LayerCount: 2
Fore
SplineSet
185 205 m 1,0,-1
 29 205 l 1,1,-1
 29 269 l 1,2,-1
 77 269 l 1,3,-1
 77 630 l 1,4,-1
 11 591 l 1,5,-1
 11 662 l 1,6,-1
 79 700 l 1,7,-1
 151 700 l 1,8,-1
 151 269 l 1,9,-1
 185 269 l 1,10,-1
 185 205 l 1,0,-1
535 0 m 1,11,-1
 365 0 l 1,12,-1
 365 73 l 1,13,-1
 443 246 l 2,14,15
 452 266 452 266 454.5 283.5 c 128,-1,16
 457 301 457 301 457 346 c 2,17,-1
 457 392 l 2,18,19
 457 431 457 431 416 431 c 2,20,-1
 380 431 l 1,21,-1
 380 495 l 1,22,-1
 409 495 l 2,23,24
 480 495 480 495 505 471 c 128,-1,25
 530 447 530 447 530 386 c 2,26,-1
 530 353 l 2,27,28
 530 286 530 286 527 262 c 128,-1,29
 524 238 524 238 512 216 c 1,30,-1
 441 64 l 1,31,-1
 535 64 l 1,32,-1
 535 0 l 1,11,-1
453 810 m 1,33,-1
 197 -110 l 1,34,-1
 123 -110 l 1,35,-1
 365 810 l 1,36,-1
 453 810 l 1,33,-1
EndSplineSet
Ligature2: "'frac' Diagonal Fractions in Latin lookup 1 subtable" onesuperior fraction twosuperior
Ligature2: "'frac' Diagonal Fractions in Latin lookup 1 subtable" onesuperior fraction two
Ligature2: "'frac' Diagonal Fractions in Latin lookup 1 subtable" onesuperior slash twosuperior
Ligature2: "'frac' Diagonal Fractions in Latin lookup 1 subtable" onesuperior slash two
Ligature2: "'frac' Diagonal Fractions in Latin lookup 1 subtable" one fraction twosuperior
Ligature2: "'frac' Diagonal Fractions in Latin lookup 1 subtable" one fraction two
Ligature2: "'frac' Diagonal Fractions in Latin lookup 1 subtable" one slash twosuperior
Ligature2: "'frac' Diagonal Fractions in Latin lookup 1 subtable" one slash two
EndChar

StartChar: threequarters
Encoding: 190 190 129
Width: 540
GlyphClass: 3
Flags: W
LayerCount: 2
Fore
SplineSet
198 324 m 2,0,1
 198 260 198 260 171 232.5 c 128,-1,2
 144 205 144 205 77 205 c 2,3,-1
 21 205 l 1,4,-1
 21 267 l 1,5,-1
 74 267 l 2,6,7
 101 267 101 267 114.5 278.5 c 128,-1,8
 128 290 128 290 128 317 c 2,9,-1
 128 376 l 2,10,11
 128 400 128 400 113.5 414 c 128,-1,12
 99 428 99 428 75 428 c 2,13,-1
 44 428 l 1,14,-1
 44 488 l 1,15,-1
 67 488 l 2,16,17
 91 488 91 488 105.5 501.5 c 128,-1,18
 120 515 120 515 120 540 c 2,19,-1
 120 586 l 2,20,21
 120 615 120 615 108 626.5 c 128,-1,22
 96 638 96 638 67 638 c 2,23,-1
 21 638 l 1,24,-1
 21 700 l 1,25,-1
 68 700 l 2,26,27
 131 700 131 700 161 672 c 128,-1,28
 191 644 191 644 191 583 c 2,29,-1
 191 548 l 2,30,31
 191 491 191 491 147 461 c 1,32,33
 198 434 198 434 198 369 c 2,34,-1
 198 324 l 2,0,1
528 117 m 1,35,-1
 498 117 l 1,36,-1
 498 0 l 1,37,-1
 428 0 l 1,38,-1
 428 117 l 1,39,-1
 327 117 l 1,40,-1
 327 191 l 1,41,-1
 381 495 l 1,42,-1
 450 495 l 1,43,-1
 388 181 l 1,44,-1
 424 181 l 1,45,-1
 451 324 l 1,46,-1
 498 324 l 1,47,-1
 498 181 l 1,48,-1
 528 181 l 1,49,-1
 528 117 l 1,35,-1
443 810 m 1,50,-1
 187 -110 l 1,51,-1
 113 -110 l 1,52,-1
 369 810 l 1,53,-1
 443 810 l 1,50,-1
EndSplineSet
Ligature2: "'frac' Diagonal Fractions in Latin lookup 1 subtable" threesuperior fraction four
Ligature2: "'frac' Diagonal Fractions in Latin lookup 1 subtable" threesuperior slash four
Ligature2: "'frac' Diagonal Fractions in Latin lookup 1 subtable" three fraction four
Ligature2: "'frac' Diagonal Fractions in Latin lookup 1 subtable" three slash four
EndChar

StartChar: questiondown
Encoding: 191 191 130
Width: 540
GlyphClass: 2
Flags: W
LayerCount: 2
Fore
SplineSet
247 500 m 1,0,-1
 347 500 l 1,1,-1
 347 400 l 1,2,-1
 247 400 l 1,3,-1
 247 500 l 1,0,-1
131 -18 m 2,4,5
 131 41 131 41 141.5 66 c 128,-1,6
 152 91 152 91 202 142 c 2,7,-1
 255 196 l 1,8,-1
 255 292 l 1,9,-1
 340 292 l 1,10,-1
 340 171 l 1,11,-1
 282 110 l 2,12,13
 237 63 237 63 226.5 43.5 c 128,-1,14
 216 24 216 24 216 -9 c 2,15,-1
 216 -59 l 2,16,17
 216 -124 216 -124 289 -124 c 2,18,-1
 414 -124 l 1,19,-1
 414 -200 l 1,20,-1
 299 -200 l 2,21,22
 131 -200 131 -200 131 -50 c 2,23,-1
 131 -18 l 2,4,5
EndSplineSet
EndChar

StartChar: Agrave
Encoding: 192 192 131
Width: 540
GlyphClass: 2
Flags: W
LayerCount: 2
Fore
SplineSet
357 726 m 1,0,-1
 274 726 l 1,1,-1
 142 841 l 1,2,-1
 253 841 l 1,3,-1
 357 726 l 1,0,-1
352 252 m 1,4,-1
 270 634 l 1,5,-1
 189 252 l 1,6,-1
 352 252 l 1,4,-1
495 0 m 1,7,-1
 406 0 l 1,8,-1
 368 177 l 1,9,-1
 173 177 l 1,10,-1
 134 0 l 1,11,-1
 45 0 l 1,12,-1
 214 700 l 1,13,-1
 329 700 l 1,14,-1
 495 0 l 1,7,-1
EndSplineSet
Position2: "'cpsp' Capital Spacing in Latin lookup 0 subtable" dx=5 dy=0 dh=10 dv=0
EndChar

StartChar: Aacute
Encoding: 193 193 132
Width: 540
GlyphClass: 2
Flags: W
LayerCount: 2
Fore
SplineSet
264 726 m 1,0,-1
 181 726 l 1,1,-1
 285 841 l 1,2,-1
 396 841 l 1,3,-1
 264 726 l 1,0,-1
352 252 m 1,4,-1
 270 634 l 1,5,-1
 181 252 l 1,6,-1
 352 252 l 1,4,-1
495 0 m 1,7,-1
 406 0 l 1,8,-1
 368 177 l 1,9,-1
 173 177 l 1,10,-1
 134 0 l 1,11,-1
 45 0 l 1,12,-1
 214 700 l 1,13,-1
 329 700 l 1,14,-1
 495 0 l 1,7,-1
EndSplineSet
Position2: "'cpsp' Capital Spacing in Latin lookup 0 subtable" dx=5 dy=0 dh=10 dv=0
EndChar

StartChar: Acircumflex
Encoding: 194 194 133
Width: 540
GlyphClass: 2
Flags: W
LayerCount: 2
Fore
SplineSet
426 730 m 1,0,-1
 329 730 l 1,1,-1
 269 794 l 1,2,-1
 209 730 l 1,3,-1
 113 730 l 1,4,-1
 223 845 l 1,5,-1
 315 845 l 1,6,-1
 426 730 l 1,0,-1
352 252 m 1,7,-1
 270 634 l 1,8,-1
 189 252 l 1,9,-1
 352 252 l 1,7,-1
495 0 m 1,10,-1
 406 0 l 1,11,-1
 368 177 l 1,12,-1
 173 177 l 1,13,-1
 134 0 l 1,14,-1
 45 0 l 1,15,-1
 214 700 l 1,16,-1
 329 700 l 1,17,-1
 495 0 l 1,10,-1
EndSplineSet
Position2: "'cpsp' Capital Spacing in Latin lookup 0 subtable" dx=5 dy=0 dh=10 dv=0
EndChar

StartChar: Atilde
Encoding: 195 195 134
Width: 540
GlyphClass: 2
Flags: W
LayerCount: 2
Fore
SplineSet
352 252 m 1,0,-1
 270 634 l 1,1,-1
 189 252 l 1,2,-1
 352 252 l 1,0,-1
495 0 m 1,3,-1
 406 0 l 1,4,-1
 368 177 l 1,5,-1
 173 177 l 1,6,-1
 134 0 l 1,7,-1
 45 0 l 1,8,-1
 214 700 l 1,9,-1
 329 700 l 1,10,-1
 495 0 l 1,3,-1
212 840 m 2,11,-1
 227 840 l 2,12,13
 239 840 239 840 283 820 c 128,-1,14
 327 800 327 800 338 800 c 2,15,-1
 348 800 l 2,16,17
 359 800 359 800 401 827 c 2,18,-1
 415 836 l 1,19,-1
 415 764 l 1,20,21
 364 731 364 731 347 731 c 2,22,-1
 332 731 l 2,23,24
 326 731 326 731 279.5 751 c 128,-1,25
 233 771 233 771 222 771 c 2,26,-1
 212 771 l 2,27,28
 199 771 199 771 151 744 c 2,29,-1
 135 735 l 1,30,-1
 135 807 l 1,31,32
 193 840 193 840 212 840 c 2,11,-1
EndSplineSet
Position2: "'cpsp' Capital Spacing in Latin lookup 0 subtable" dx=5 dy=0 dh=10 dv=0
EndChar

StartChar: Adieresis
Encoding: 196 196 135
Width: 540
GlyphClass: 2
Flags: W
LayerCount: 2
Fore
SplineSet
352 252 m 1,0,-1
 270 634 l 1,1,-1
 189 252 l 1,2,-1
 352 252 l 1,0,-1
495 0 m 1,3,-1
 406 0 l 1,4,-1
 368 177 l 1,5,-1
 173 177 l 1,6,-1
 134 0 l 1,7,-1
 45 0 l 1,8,-1
 214 700 l 1,9,-1
 329 700 l 1,10,-1
 495 0 l 1,3,-1
332 735 m 1,11,-1
 332 815 l 1,12,-1
 406 815 l 1,13,-1
 417 735 l 1,14,-1
 332 735 l 1,11,-1
217 735 m 1,15,-1
 132 735 l 1,16,-1
 132 815 l 1,17,-1
 217 815 l 1,18,-1
 217 735 l 1,15,-1
EndSplineSet
Position2: "'cpsp' Capital Spacing in Latin lookup 0 subtable" dx=5 dy=0 dh=10 dv=0
EndChar

StartChar: Aring
Encoding: 197 197 136
Width: 540
GlyphClass: 2
Flags: W
LayerCount: 2
Fore
SplineSet
179 741 m 2,0,-1
 179 770 l 2,1,2
 179 812 179 812 203.5 833.5 c 128,-1,3
 228 855 228 855 268 855 c 2,4,-1
 274 855 l 2,5,6
 314 855 314 855 338.5 833.5 c 128,-1,7
 363 812 363 812 363 770 c 2,8,-1
 363 741 l 1,9,10
 361 696 361 696 335 675 c 1,11,-1
 495 0 l 1,12,-1
 406 0 l 1,13,-1
 368 177 l 1,14,-1
 173 177 l 1,15,-1
 134 0 l 1,16,-1
 45 0 l 1,17,-1
 208 674 l 1,18,19
 179 697 179 697 179 741 c 2,0,-1
352 252 m 1,20,-1
 270 634 l 1,21,-1
 189 252 l 1,22,-1
 352 252 l 1,20,-1
306 740 m 2,23,-1
 306 771 l 2,24,25
 306 809 306 809 274 809 c 2,26,-1
 268 809 l 2,27,28
 234 809 234 809 234 771 c 2,29,-1
 234 740 l 2,30,31
 234 702 234 702 268 702 c 2,32,-1
 274 702 l 2,33,34
 306 702 306 702 306 740 c 2,23,-1
EndSplineSet
Position2: "'cpsp' Capital Spacing in Latin lookup 0 subtable" dx=5 dy=0 dh=10 dv=0
EndChar

StartChar: AE
Encoding: 198 198 137
Width: 540
GlyphClass: 2
Flags: W
LayerCount: 2
Fore
SplineSet
518 0 m 1,0,-1
 307 0 l 1,1,-1
 292 177 l 1,2,-1
 141 177 l 1,3,-1
 99 0 l 1,4,-1
 15 0 l 1,5,-1
 191 700 l 1,6,-1
 498 700 l 1,7,-1
 498 627 l 1,8,-1
 325 627 l 1,9,-1
 348 398 l 1,10,-1
 493 398 l 1,11,-1
 493 325 l 1,12,-1
 356 325 l 1,13,-1
 381 73 l 1,14,-1
 518 73 l 1,15,-1
 518 0 l 1,0,-1
247 627 m 1,16,-1
 159 252 l 1,17,-1
 283 252 l 1,18,-1
 247 627 l 1,16,-1
EndSplineSet
Position2: "'cpsp' Capital Spacing in Latin lookup 0 subtable" dx=5 dy=0 dh=10 dv=0
EndChar

StartChar: Ccedilla
Encoding: 199 199 138
Width: 540
GlyphClass: 2
Flags: W
LayerCount: 2
Fore
SplineSet
321 -200 m 2,0,-1
 236 -200 l 1,1,-1
 236 -136 l 1,2,-1
 303 -136 l 2,3,4
 336 -136 336 -136 336 -105 c 0,5,6
 336 -88 336 -88 327.5 -82 c 128,-1,7
 319 -76 319 -76 301 -76 c 2,8,-1
 252 -76 l 1,9,-1
 252 2 l 1,10,11
 109 19 109 19 109 170 c 2,12,-1
 109 530 l 2,13,14
 109 615 109 615 155.5 657.5 c 128,-1,15
 202 700 202 700 289 700 c 2,16,-1
 431 700 l 1,17,-1
 431 624 l 1,18,-1
 279 624 l 2,19,20
 242 624 242 624 219 602 c 128,-1,21
 196 580 196 580 196 549 c 2,22,-1
 196 151 l 2,23,24
 196 120 196 120 219 98 c 128,-1,25
 242 76 242 76 279 76 c 2,26,-1
 431 76 l 1,27,-1
 431 0 l 1,28,-1
 322 0 l 1,29,-1
 322 -21 l 1,30,31
 368 -21 368 -21 388.5 -38.5 c 128,-1,32
 409 -56 409 -56 409 -96 c 128,-1,33
 409 -136 409 -136 400.5 -156.5 c 128,-1,34
 392 -177 392 -177 378 -186 c 1,35,36
 353 -200 353 -200 321 -200 c 2,0,-1
EndSplineSet
Position2: "'cpsp' Capital Spacing in Latin lookup 0 subtable" dx=5 dy=0 dh=10 dv=0
EndChar

StartChar: Egrave
Encoding: 200 200 139
Width: 540
GlyphClass: 2
Flags: W
LayerCount: 2
Fore
SplineSet
352 726 m 1,0,-1
 269 726 l 1,1,-1
 137 841 l 1,2,-1
 248 841 l 1,3,-1
 352 726 l 1,0,-1
437 0 m 1,4,-1
 103 0 l 1,5,-1
 103 700 l 1,6,-1
 437 700 l 1,7,-1
 437 627 l 1,8,-1
 190 627 l 1,9,-1
 190 398 l 1,10,-1
 412 398 l 1,11,-1
 412 325 l 1,12,-1
 190 325 l 1,13,-1
 190 73 l 1,14,-1
 437 73 l 1,15,-1
 437 0 l 1,4,-1
EndSplineSet
Position2: "'cpsp' Capital Spacing in Latin lookup 0 subtable" dx=5 dy=0 dh=10 dv=0
EndChar

StartChar: Eacute
Encoding: 201 201 140
Width: 540
GlyphClass: 2
Flags: W
LayerCount: 2
Fore
SplineSet
265 726 m 1,0,-1
 182 726 l 1,1,-1
 286 841 l 1,2,-1
 397 841 l 1,3,-1
 265 726 l 1,0,-1
437 0 m 1,4,-1
 103 0 l 1,5,-1
 103 700 l 1,6,-1
 437 700 l 1,7,-1
 437 627 l 1,8,-1
 190 627 l 1,9,-1
 190 398 l 1,10,-1
 412 398 l 1,11,-1
 412 325 l 1,12,-1
 190 325 l 1,13,-1
 190 73 l 1,14,-1
 437 73 l 1,15,-1
 437 0 l 1,4,-1
EndSplineSet
Position2: "'cpsp' Capital Spacing in Latin lookup 0 subtable" dx=5 dy=0 dh=10 dv=0
EndChar

StartChar: Ecircumflex
Encoding: 202 202 141
Width: 540
GlyphClass: 2
Flags: W
LayerCount: 2
Fore
SplineSet
427 730 m 1,0,-1
 330 730 l 1,1,-1
 270 794 l 1,2,-1
 210 730 l 1,3,-1
 114 730 l 1,4,-1
 224 845 l 1,5,-1
 316 845 l 1,6,-1
 427 730 l 1,0,-1
437 0 m 1,7,-1
 103 0 l 1,8,-1
 103 700 l 1,9,-1
 437 700 l 1,10,-1
 437 627 l 1,11,-1
 190 627 l 1,12,-1
 190 398 l 1,13,-1
 412 398 l 1,14,-1
 412 325 l 1,15,-1
 190 325 l 1,16,-1
 190 73 l 1,17,-1
 437 73 l 1,18,-1
 437 0 l 1,7,-1
EndSplineSet
Position2: "'cpsp' Capital Spacing in Latin lookup 0 subtable" dx=5 dy=0 dh=10 dv=0
EndChar

StartChar: Edieresis
Encoding: 203 203 142
Width: 540
GlyphClass: 2
Flags: W
LayerCount: 2
Fore
SplineSet
437 0 m 1,0,-1
 103 0 l 1,1,-1
 103 700 l 1,2,-1
 437 700 l 1,3,-1
 437 627 l 1,4,-1
 190 627 l 1,5,-1
 190 398 l 1,6,-1
 412 398 l 1,7,-1
 412 325 l 1,8,-1
 190 325 l 1,9,-1
 190 73 l 1,10,-1
 437 73 l 1,11,-1
 437 0 l 1,0,-1
412 735 m 1,12,-1
 327 735 l 1,13,-1
 327 815 l 1,14,-1
 412 815 l 1,15,-1
 412 735 l 1,12,-1
212 735 m 1,16,-1
 127 735 l 1,17,-1
 127 815 l 1,18,-1
 212 815 l 1,19,-1
 212 735 l 1,16,-1
EndSplineSet
Position2: "'cpsp' Capital Spacing in Latin lookup 0 subtable" dx=5 dy=0 dh=10 dv=0
EndChar

StartChar: Igrave
Encoding: 204 204 143
Width: 540
GlyphClass: 2
Flags: W
LayerCount: 2
Fore
SplineSet
351 726 m 1,0,-1
 268 726 l 1,1,-1
 136 841 l 1,2,-1
 247 841 l 1,3,-1
 351 726 l 1,0,-1
406 0 m 1,4,-1
 139 0 l 1,5,-1
 139 73 l 1,6,-1
 229 73 l 1,7,-1
 229 627 l 1,8,-1
 139 627 l 1,9,-1
 139 700 l 1,10,-1
 406 700 l 1,11,-1
 406 627 l 1,12,-1
 316 627 l 1,13,-1
 316 73 l 1,14,-1
 406 73 l 1,15,-1
 406 0 l 1,4,-1
EndSplineSet
Position2: "'cpsp' Capital Spacing in Latin lookup 0 subtable" dx=5 dy=0 dh=10 dv=0
EndChar

StartChar: Iacute
Encoding: 205 205 144
Width: 540
GlyphClass: 2
Flags: W
LayerCount: 2
Fore
SplineSet
260 726 m 1,0,-1
 177 726 l 1,1,-1
 281 841 l 1,2,-1
 392 841 l 1,3,-1
 260 726 l 1,0,-1
403 0 m 1,4,-1
 136 0 l 1,5,-1
 136 73 l 1,6,-1
 226 73 l 1,7,-1
 226 627 l 1,8,-1
 136 627 l 1,9,-1
 136 700 l 1,10,-1
 403 700 l 1,11,-1
 403 627 l 1,12,-1
 313 627 l 1,13,-1
 313 73 l 1,14,-1
 403 73 l 1,15,-1
 403 0 l 1,4,-1
EndSplineSet
Position2: "'cpsp' Capital Spacing in Latin lookup 0 subtable" dx=5 dy=0 dh=10 dv=0
EndChar

StartChar: Icircumflex
Encoding: 206 206 145
Width: 540
GlyphClass: 2
Flags: W
LayerCount: 2
Fore
SplineSet
427 730 m 1,0,-1
 330 730 l 1,1,-1
 270 794 l 1,2,-1
 210 730 l 1,3,-1
 114 730 l 1,4,-1
 224 845 l 1,5,-1
 316 845 l 1,6,-1
 427 730 l 1,0,-1
404 0 m 1,7,-1
 137 0 l 1,8,-1
 137 73 l 1,9,-1
 227 73 l 1,10,-1
 227 627 l 1,11,-1
 137 627 l 1,12,-1
 137 700 l 1,13,-1
 404 700 l 1,14,-1
 404 627 l 1,15,-1
 314 627 l 1,16,-1
 314 73 l 1,17,-1
 404 73 l 1,18,-1
 404 0 l 1,7,-1
EndSplineSet
Position2: "'cpsp' Capital Spacing in Latin lookup 0 subtable" dx=5 dy=0 dh=10 dv=0
EndChar

StartChar: Idieresis
Encoding: 207 207 146
Width: 540
GlyphClass: 2
Flags: W
LayerCount: 2
Fore
SplineSet
403 0 m 1,0,-1
 136 0 l 1,1,-1
 136 73 l 1,2,-1
 226 73 l 1,3,-1
 226 627 l 1,4,-1
 136 627 l 1,5,-1
 136 700 l 1,6,-1
 403 700 l 1,7,-1
 403 627 l 1,8,-1
 313 627 l 1,9,-1
 313 73 l 1,10,-1
 403 73 l 1,11,-1
 403 0 l 1,0,-1
413 735 m 1,12,-1
 328 735 l 1,13,-1
 328 815 l 1,14,-1
 413 815 l 1,15,-1
 413 735 l 1,12,-1
213 735 m 1,16,-1
 128 735 l 1,17,-1
 128 815 l 1,18,-1
 213 815 l 1,19,-1
 213 735 l 1,16,-1
EndSplineSet
Position2: "'cpsp' Capital Spacing in Latin lookup 0 subtable" dx=5 dy=0 dh=10 dv=0
EndChar

StartChar: Eth
Encoding: 208 208 147
Width: 540
GlyphClass: 2
Flags: W
LayerCount: 2
Fore
SplineSet
467 158 m 2,0,1
 467 72 467 72 427.5 36 c 128,-1,2
 388 0 388 0 297 0 c 2,3,-1
 91 0 l 1,4,-1
 91 325 l 1,5,-1
 34 325 l 1,6,-1
 34 400 l 1,7,-1
 91 400 l 1,8,-1
 91 700 l 1,9,-1
 285 700 l 2,10,11
 375 700 375 700 421 663.5 c 128,-1,12
 467 627 467 627 467 544 c 2,13,-1
 467 158 l 2,0,1
380 148 m 2,14,-1
 380 553 l 2,15,16
 380 586 380 586 360 605.5 c 128,-1,17
 340 625 340 625 307 625 c 2,18,-1
 178 625 l 1,19,-1
 178 400 l 1,20,-1
 294 400 l 1,21,-1
 294 325 l 1,22,-1
 178 325 l 1,23,-1
 178 75 l 1,24,-1
 306 75 l 2,25,26
 344 75 344 75 362 92.5 c 128,-1,27
 380 110 380 110 380 148 c 2,14,-1
EndSplineSet
Position2: "'cpsp' Capital Spacing in Latin lookup 0 subtable" dx=5 dy=0 dh=10 dv=0
EndChar

StartChar: Ntilde
Encoding: 209 209 148
Width: 540
GlyphClass: 2
Flags: W
LayerCount: 2
Fore
SplineSet
460 0 m 1,0,-1
 317 0 l 1,1,-1
 160 626 l 1,2,-1
 160 0 l 1,3,-1
 79 0 l 1,4,-1
 79 700 l 1,5,-1
 221 700 l 1,6,-1
 379 74 l 1,7,-1
 379 700 l 1,8,-1
 460 700 l 1,9,-1
 460 0 l 1,0,-1
210 840 m 2,10,-1
 225 840 l 2,11,12
 237 840 237 840 281 820 c 128,-1,13
 325 800 325 800 336 800 c 2,14,-1
 346 800 l 2,15,16
 357 800 357 800 399 827 c 2,17,-1
 413 836 l 1,18,-1
 413 764 l 1,19,20
 362 731 362 731 345 731 c 2,21,-1
 330 731 l 2,22,23
 324 731 324 731 277.5 751 c 128,-1,24
 231 771 231 771 220 771 c 2,25,-1
 210 771 l 2,26,27
 197 771 197 771 149 744 c 2,28,-1
 133 735 l 1,29,-1
 133 807 l 1,30,31
 191 840 191 840 210 840 c 2,10,-1
EndSplineSet
Position2: "'cpsp' Capital Spacing in Latin lookup 0 subtable" dx=5 dy=0 dh=10 dv=0
EndChar

StartChar: Ograve
Encoding: 210 210 149
Width: 540
GlyphClass: 2
Flags: W
LayerCount: 2
Fore
SplineSet
351 726 m 1,0,-1
 268 726 l 1,1,-1
 136 841 l 1,2,-1
 247 841 l 1,3,-1
 351 726 l 1,0,-1
470 170 m 2,4,5
 470 85 470 85 423.5 42.5 c 128,-1,6
 377 0 377 0 290 0 c 2,7,-1
 250 0 l 2,8,9
 163 0 163 0 116.5 42.5 c 128,-1,10
 70 85 70 85 70 170 c 2,11,-1
 70 530 l 2,12,13
 70 615 70 615 116.5 657.5 c 128,-1,14
 163 700 163 700 250 700 c 2,15,-1
 290 700 l 2,16,17
 377 700 377 700 423.5 657.5 c 128,-1,18
 470 615 470 615 470 530 c 2,19,-1
 470 170 l 2,4,5
383 151 m 2,20,-1
 383 549 l 2,21,22
 383 580 383 580 360 602 c 128,-1,23
 337 624 337 624 300 624 c 2,24,-1
 240 624 l 2,25,26
 203 624 203 624 180 602 c 128,-1,27
 157 580 157 580 157 549 c 2,28,-1
 157 151 l 2,29,30
 157 120 157 120 180 98 c 128,-1,31
 203 76 203 76 240 76 c 2,32,-1
 300 76 l 2,33,34
 337 76 337 76 360 98 c 128,-1,35
 383 120 383 120 383 151 c 2,20,-1
EndSplineSet
Position2: "'cpsp' Capital Spacing in Latin lookup 0 subtable" dx=5 dy=0 dh=10 dv=0
EndChar

StartChar: Oacute
Encoding: 211 211 150
Width: 540
GlyphClass: 2
Flags: W
LayerCount: 2
Fore
SplineSet
267 726 m 1,0,-1
 184 726 l 1,1,-1
 288 841 l 1,2,-1
 399 841 l 1,3,-1
 267 726 l 1,0,-1
470 170 m 2,4,5
 470 85 470 85 423.5 42.5 c 128,-1,6
 377 0 377 0 290 0 c 2,7,-1
 250 0 l 2,8,9
 163 0 163 0 116.5 42.5 c 128,-1,10
 70 85 70 85 70 170 c 2,11,-1
 70 530 l 2,12,13
 70 615 70 615 116.5 657.5 c 128,-1,14
 163 700 163 700 250 700 c 2,15,-1
 290 700 l 2,16,17
 377 700 377 700 423.5 657.5 c 128,-1,18
 470 615 470 615 470 530 c 2,19,-1
 470 170 l 2,4,5
383 151 m 2,20,-1
 383 549 l 2,21,22
 383 580 383 580 360 602 c 128,-1,23
 337 624 337 624 300 624 c 2,24,-1
 240 624 l 2,25,26
 203 624 203 624 180 602 c 128,-1,27
 157 580 157 580 157 549 c 2,28,-1
 157 151 l 2,29,30
 157 120 157 120 180 98 c 128,-1,31
 203 76 203 76 240 76 c 2,32,-1
 300 76 l 2,33,34
 337 76 337 76 360 98 c 128,-1,35
 383 120 383 120 383 151 c 2,20,-1
EndSplineSet
Position2: "'cpsp' Capital Spacing in Latin lookup 0 subtable" dx=5 dy=0 dh=10 dv=0
EndChar

StartChar: Ocircumflex
Encoding: 212 212 151
Width: 540
GlyphClass: 2
Flags: W
LayerCount: 2
Fore
SplineSet
426 730 m 1,0,-1
 329 730 l 1,1,-1
 269 794 l 1,2,-1
 209 730 l 1,3,-1
 113 730 l 1,4,-1
 223 845 l 1,5,-1
 315 845 l 1,6,-1
 426 730 l 1,0,-1
470 170 m 2,7,8
 470 85 470 85 423.5 42.5 c 128,-1,9
 377 0 377 0 290 0 c 2,10,-1
 250 0 l 2,11,12
 163 0 163 0 116.5 42.5 c 128,-1,13
 70 85 70 85 70 170 c 2,14,-1
 70 530 l 2,15,16
 70 615 70 615 116.5 657.5 c 128,-1,17
 163 700 163 700 250 700 c 2,18,-1
 290 700 l 2,19,20
 377 700 377 700 423.5 657.5 c 128,-1,21
 470 615 470 615 470 530 c 2,22,-1
 470 170 l 2,7,8
383 151 m 2,23,-1
 383 549 l 2,24,25
 383 580 383 580 360 602 c 128,-1,26
 337 624 337 624 300 624 c 2,27,-1
 240 624 l 2,28,29
 203 624 203 624 180 602 c 128,-1,30
 157 580 157 580 157 549 c 2,31,-1
 157 151 l 2,32,33
 157 120 157 120 180 98 c 128,-1,34
 203 76 203 76 240 76 c 2,35,-1
 300 76 l 2,36,37
 337 76 337 76 360 98 c 128,-1,38
 383 120 383 120 383 151 c 2,23,-1
EndSplineSet
Position2: "'cpsp' Capital Spacing in Latin lookup 0 subtable" dx=5 dy=0 dh=10 dv=0
EndChar

StartChar: Otilde
Encoding: 213 213 152
Width: 540
GlyphClass: 2
Flags: W
LayerCount: 2
Fore
SplineSet
470 170 m 2,0,1
 470 85 470 85 423.5 42.5 c 128,-1,2
 377 0 377 0 290 0 c 2,3,-1
 250 0 l 2,4,5
 163 0 163 0 116.5 42.5 c 128,-1,6
 70 85 70 85 70 170 c 2,7,-1
 70 530 l 2,8,9
 70 615 70 615 116.5 657.5 c 128,-1,10
 163 700 163 700 250 700 c 2,11,-1
 290 700 l 2,12,13
 377 700 377 700 423.5 657.5 c 128,-1,14
 470 615 470 615 470 530 c 2,15,-1
 470 170 l 2,0,1
383 151 m 2,16,-1
 383 549 l 2,17,18
 383 580 383 580 360 602 c 128,-1,19
 337 624 337 624 300 624 c 2,20,-1
 240 624 l 2,21,22
 203 624 203 624 180 602 c 128,-1,23
 157 580 157 580 157 549 c 2,24,-1
 157 151 l 2,25,26
 157 120 157 120 180 98 c 128,-1,27
 203 76 203 76 240 76 c 2,28,-1
 300 76 l 2,29,30
 337 76 337 76 360 98 c 128,-1,31
 383 120 383 120 383 151 c 2,16,-1
209 840 m 2,32,-1
 224 840 l 2,33,34
 236 840 236 840 280 820 c 128,-1,35
 324 800 324 800 335 800 c 2,36,-1
 345 800 l 2,37,38
 356 800 356 800 398 827 c 2,39,-1
 412 836 l 1,40,-1
 412 764 l 1,41,42
 361 731 361 731 344 731 c 2,43,-1
 329 731 l 2,44,45
 323 731 323 731 276.5 751 c 128,-1,46
 230 771 230 771 219 771 c 2,47,-1
 209 771 l 2,48,49
 196 771 196 771 148 744 c 2,50,-1
 132 735 l 1,51,-1
 132 807 l 1,52,53
 190 840 190 840 209 840 c 2,32,-1
EndSplineSet
Position2: "'cpsp' Capital Spacing in Latin lookup 0 subtable" dx=5 dy=0 dh=10 dv=0
EndChar

StartChar: Odieresis
Encoding: 214 214 153
Width: 540
GlyphClass: 2
Flags: W
LayerCount: 2
Fore
SplineSet
416 735 m 1,0,-1
 331 735 l 1,1,-1
 331 815 l 1,2,-1
 416 815 l 1,3,-1
 416 735 l 1,0,-1
216 735 m 1,4,-1
 131 735 l 1,5,-1
 131 815 l 1,6,-1
 216 815 l 1,7,-1
 216 735 l 1,4,-1
470 170 m 2,8,9
 470 85 470 85 423.5 42.5 c 128,-1,10
 377 0 377 0 290 0 c 2,11,-1
 250 0 l 2,12,13
 163 0 163 0 116.5 42.5 c 128,-1,14
 70 85 70 85 70 170 c 2,15,-1
 70 530 l 2,16,17
 70 615 70 615 116.5 657.5 c 128,-1,18
 163 700 163 700 250 700 c 2,19,-1
 290 700 l 2,20,21
 377 700 377 700 423.5 657.5 c 128,-1,22
 470 615 470 615 470 530 c 2,23,-1
 470 170 l 2,8,9
383 151 m 2,24,-1
 383 549 l 2,25,26
 383 580 383 580 360 602 c 128,-1,27
 337 624 337 624 300 624 c 2,28,-1
 240 624 l 2,29,30
 203 624 203 624 180 602 c 128,-1,31
 157 580 157 580 157 549 c 2,32,-1
 157 151 l 2,33,34
 157 120 157 120 180 98 c 128,-1,35
 203 76 203 76 240 76 c 2,36,-1
 300 76 l 2,37,38
 337 76 337 76 360 98 c 128,-1,39
 383 120 383 120 383 151 c 2,24,-1
EndSplineSet
Position2: "'cpsp' Capital Spacing in Latin lookup 0 subtable" dx=5 dy=0 dh=10 dv=0
EndChar

StartChar: multiply
Encoding: 215 215 154
Width: 540
GlyphClass: 2
Flags: W
LayerCount: 2
Fore
SplineSet
387 137 m 1,0,-1
 270 253 l 1,1,-1
 153 137 l 1,2,-1
 97 193 l 1,3,-1
 213 310 l 1,4,-1
 97 427 l 1,5,-1
 153 483 l 1,6,-1
 270 367 l 1,7,-1
 387 483 l 1,8,-1
 443 427 l 1,9,-1
 327 310 l 1,10,-1
 443 193 l 1,11,-1
 387 137 l 1,0,-1
EndSplineSet
EndChar

StartChar: Oslash
Encoding: 216 216 155
Width: 540
GlyphClass: 2
Flags: W
LayerCount: 2
Fore
SplineSet
470 170 m 2,0,1
 470 85 470 85 423.5 42.5 c 128,-1,2
 377 0 377 0 290 0 c 2,3,-1
 250 0 l 2,4,5
 223 0 223 0 211 2 c 1,6,-1
 185 -91 l 1,7,-1
 109 -91 l 1,8,-1
 141 24 l 1,9,10
 70 66 70 66 70 170 c 2,11,-1
 70 530 l 2,12,13
 70 615 70 615 116.5 657.5 c 128,-1,14
 163 700 163 700 250 700 c 2,15,-1
 290 700 l 2,16,17
 303 700 303 700 327 698 c 1,18,-1
 353 791 l 1,19,-1
 429 791 l 1,20,-1
 397 676 l 1,21,22
 470 636 470 636 470 530 c 2,23,-1
 470 170 l 2,0,1
383 151 m 2,24,-1
 383 549 l 2,25,26
 383 569 383 569 372 586 c 1,27,-1
 231 76 l 1,28,-1
 300 76 l 2,29,30
 337 76 337 76 360 98 c 128,-1,31
 383 120 383 120 383 151 c 2,24,-1
157 151 m 2,32,33
 157 131 157 131 166 116 c 1,34,-1
 306 624 l 1,35,-1
 240 624 l 2,36,37
 203 624 203 624 180 602 c 128,-1,38
 157 580 157 580 157 549 c 2,39,-1
 157 151 l 2,32,33
EndSplineSet
Position2: "'cpsp' Capital Spacing in Latin lookup 0 subtable" dx=5 dy=0 dh=10 dv=0
EndChar

StartChar: Ugrave
Encoding: 217 217 156
Width: 540
GlyphClass: 2
Flags: W
LayerCount: 2
Fore
SplineSet
331 726 m 1,0,-1
 248 726 l 1,1,-1
 116 841 l 1,2,-1
 227 841 l 1,3,-1
 331 726 l 1,0,-1
462 170 m 2,4,5
 462 85 462 85 415.5 42.5 c 128,-1,6
 369 0 369 0 282 0 c 2,7,-1
 257 0 l 2,8,9
 170 0 170 0 123.5 42.5 c 128,-1,10
 77 85 77 85 77 170 c 2,11,-1
 77 700 l 1,12,-1
 164 700 l 1,13,-1
 164 151 l 2,14,15
 164 120 164 120 187 98 c 128,-1,16
 210 76 210 76 247 76 c 2,17,-1
 292 76 l 2,18,19
 329 76 329 76 352 98 c 128,-1,20
 375 120 375 120 375 151 c 2,21,-1
 375 700 l 1,22,-1
 462 700 l 1,23,-1
 462 170 l 2,4,5
EndSplineSet
Position2: "'cpsp' Capital Spacing in Latin lookup 0 subtable" dx=5 dy=0 dh=10 dv=0
EndChar

StartChar: Uacute
Encoding: 218 218 157
Width: 540
GlyphClass: 2
Flags: W
LayerCount: 2
Fore
SplineSet
294 726 m 1,0,-1
 211 726 l 1,1,-1
 315 841 l 1,2,-1
 426 841 l 1,3,-1
 294 726 l 1,0,-1
462 170 m 2,4,5
 462 85 462 85 415.5 42.5 c 128,-1,6
 369 0 369 0 282 0 c 2,7,-1
 257 0 l 2,8,9
 170 0 170 0 123.5 42.5 c 128,-1,10
 77 85 77 85 77 170 c 2,11,-1
 77 700 l 1,12,-1
 164 700 l 1,13,-1
 164 151 l 2,14,15
 164 120 164 120 187 98 c 128,-1,16
 210 76 210 76 247 76 c 2,17,-1
 292 76 l 2,18,19
 329 76 329 76 352 98 c 128,-1,20
 375 120 375 120 375 151 c 2,21,-1
 375 700 l 1,22,-1
 462 700 l 1,23,-1
 462 170 l 2,4,5
EndSplineSet
Position2: "'cpsp' Capital Spacing in Latin lookup 0 subtable" dx=5 dy=0 dh=10 dv=0
EndChar

StartChar: Ucircumflex
Encoding: 219 219 158
Width: 540
GlyphClass: 2
Flags: W
LayerCount: 2
Fore
SplineSet
431 730 m 1,0,-1
 334 730 l 1,1,-1
 274 794 l 1,2,-1
 214 730 l 1,3,-1
 118 730 l 1,4,-1
 228 845 l 1,5,-1
 320 845 l 1,6,-1
 431 730 l 1,0,-1
462 170 m 2,7,8
 462 85 462 85 415.5 42.5 c 128,-1,9
 369 0 369 0 282 0 c 2,10,-1
 257 0 l 2,11,12
 170 0 170 0 123.5 42.5 c 128,-1,13
 77 85 77 85 77 170 c 2,14,-1
 77 700 l 1,15,-1
 164 700 l 1,16,-1
 164 151 l 2,17,18
 164 120 164 120 187 98 c 128,-1,19
 210 76 210 76 247 76 c 2,20,-1
 292 76 l 2,21,22
 329 76 329 76 352 98 c 128,-1,23
 375 120 375 120 375 151 c 2,24,-1
 375 700 l 1,25,-1
 462 700 l 1,26,-1
 462 170 l 2,7,8
EndSplineSet
Position2: "'cpsp' Capital Spacing in Latin lookup 0 subtable" dx=5 dy=0 dh=10 dv=0
EndChar

StartChar: Udieresis
Encoding: 220 220 159
Width: 540
GlyphClass: 2
Flags: W
LayerCount: 2
Fore
SplineSet
414 735 m 1,0,-1
 329 735 l 1,1,-1
 329 815 l 1,2,-1
 414 815 l 1,3,-1
 414 735 l 1,0,-1
214 735 m 1,4,-1
 129 735 l 1,5,-1
 129 815 l 1,6,-1
 214 815 l 1,7,-1
 214 735 l 1,4,-1
462 170 m 2,8,9
 462 85 462 85 415.5 42.5 c 128,-1,10
 369 0 369 0 282 0 c 2,11,-1
 257 0 l 2,12,13
 170 0 170 0 123.5 42.5 c 128,-1,14
 77 85 77 85 77 170 c 2,15,-1
 77 700 l 1,16,-1
 164 700 l 1,17,-1
 164 151 l 2,18,19
 164 120 164 120 187 98 c 128,-1,20
 210 76 210 76 247 76 c 2,21,-1
 292 76 l 2,22,23
 329 76 329 76 352 98 c 128,-1,24
 375 120 375 120 375 151 c 2,25,-1
 375 700 l 1,26,-1
 462 700 l 1,27,-1
 462 170 l 2,8,9
EndSplineSet
Position2: "'cpsp' Capital Spacing in Latin lookup 0 subtable" dx=5 dy=0 dh=10 dv=0
EndChar

StartChar: Yacute
Encoding: 221 221 160
Width: 540
GlyphClass: 2
Flags: W
LayerCount: 2
Fore
SplineSet
269 726 m 1,0,-1
 186 726 l 1,1,-1
 290 841 l 1,2,-1
 401 841 l 1,3,-1
 269 726 l 1,0,-1
313 0 m 1,4,-1
 223 0 l 1,5,-1
 223 325 l 1,6,-1
 44 700 l 1,7,-1
 140 700 l 1,8,-1
 272 409 l 1,9,-1
 404 700 l 1,10,-1
 495 700 l 1,11,-1
 313 325 l 1,12,-1
 313 0 l 1,4,-1
EndSplineSet
Position2: "'cpsp' Capital Spacing in Latin lookup 0 subtable" dx=5 dy=0 dh=10 dv=0
EndChar

StartChar: Thorn
Encoding: 222 222 161
Width: 540
GlyphClass: 2
Flags: W
LayerCount: 2
Fore
SplineSet
455 300 m 2,0,1
 455 142 455 142 285 142 c 2,2,-1
 181 142 l 1,3,-1
 181 0 l 1,4,-1
 94 0 l 1,5,-1
 94 700 l 1,6,-1
 181 700 l 1,7,-1
 181 570 l 1,8,-1
 283 570 l 2,9,10
 455 570 455 570 455 414 c 2,11,-1
 455 300 l 2,0,1
368 290 m 2,12,-1
 368 423 l 2,13,14
 368 461 368 461 350.5 478 c 128,-1,15
 333 495 333 495 295 495 c 2,16,-1
 181 495 l 1,17,-1
 181 217 l 1,18,-1
 295 217 l 2,19,20
 333 217 333 217 350.5 234.5 c 128,-1,21
 368 252 368 252 368 290 c 2,12,-1
EndSplineSet
Position2: "'cpsp' Capital Spacing in Latin lookup 0 subtable" dx=5 dy=0 dh=10 dv=0
EndChar

StartChar: germandbls
Encoding: 223 223 162
Width: 540
GlyphClass: 2
Flags: W
LayerCount: 2
Fore
SplineSet
163 0 m 1,0,-1
 78 0 l 1,1,-1
 78 560 l 2,2,3
 78 630 78 630 121 665 c 128,-1,4
 164 700 164 700 228 700 c 2,5,-1
 267 700 l 2,6,7
 355 700 355 700 396 662.5 c 128,-1,8
 437 625 437 625 437 540 c 2,9,-1
 437 415 l 1,10,-1
 359 415 l 2,11,12
 329 415 329 415 316.5 404 c 128,-1,13
 304 393 304 393 304 370 c 2,14,-1
 304 355 l 2,15,16
 304 310 304 310 347 310 c 0,17,18
 402 310 402 310 434 278 c 128,-1,19
 466 246 466 246 466 190 c 2,20,-1
 466 125 l 2,21,22
 466 69 466 69 431 34.5 c 128,-1,23
 396 0 396 0 328 0 c 2,24,-1
 216 0 l 1,25,-1
 216 75 l 1,26,-1
 334 75 l 2,27,28
 381 75 381 75 381 120 c 2,29,-1
 381 190 l 2,30,31
 381 235 381 235 332.5 235 c 128,-1,32
 284 235 284 235 251.5 268 c 128,-1,33
 219 301 219 301 219 356 c 2,34,-1
 219 366 l 2,35,36
 219 430 219 430 253 456.5 c 128,-1,37
 287 483 287 483 352 486 c 1,38,-1
 352 560 l 2,39,40
 352 625 352 625 277 625 c 2,41,-1
 223 625 l 2,42,43
 190 625 190 625 176.5 608 c 128,-1,44
 163 591 163 591 163 570 c 2,45,-1
 163 0 l 1,0,-1
EndSplineSet
EndChar

StartChar: agrave
Encoding: 224 224 163
Width: 540
GlyphClass: 2
Flags: W
LayerCount: 2
Fore
SplineSet
472 0 m 1,0,-1
 417 0 l 2,1,2
 387 0 387 0 362 30 c 1,3,4
 339 0 339 0 301 0 c 2,5,-1
 212 0 l 2,6,7
 136 0 136 0 101.5 30.5 c 128,-1,8
 67 61 67 61 67 135 c 2,9,-1
 67 155 l 2,10,11
 67 310 67 310 213 310 c 2,12,-1
 337 310 l 1,13,-1
 337 360 l 2,14,15
 337 425 337 425 262 425 c 2,16,-1
 107 425 l 1,17,-1
 107 500 l 1,18,-1
 252 500 l 2,19,20
 339 500 339 500 380.5 462 c 128,-1,21
 422 424 422 424 422 340 c 2,22,-1
 422 100 l 2,23,24
 422 70 422 70 472 70 c 1,25,-1
 472 0 l 1,0,-1
291 75 m 2,26,27
 324 75 324 75 332 93 c 1,28,29
 337 107 337 107 337 125 c 2,30,-1
 337 235 l 1,31,-1
 212 235 l 2,32,33
 186 235 186 235 169 218 c 128,-1,34
 152 201 152 201 152 175 c 2,35,-1
 152 125 l 2,36,37
 152 99 152 99 164 87 c 128,-1,38
 176 75 176 75 202 75 c 2,39,-1
 291 75 l 2,26,27
342 580 m 1,40,-1
 256 580 l 1,41,-1
 134 715 l 1,42,-1
 238 715 l 1,43,-1
 342 580 l 1,40,-1
EndSplineSet
EndChar

StartChar: aacute
Encoding: 225 225 164
Width: 540
GlyphClass: 2
Flags: W
LayerCount: 2
Fore
SplineSet
472 0 m 1,0,-1
 417 0 l 2,1,2
 387 0 387 0 362 30 c 1,3,4
 339 0 339 0 301 0 c 2,5,-1
 212 0 l 2,6,7
 136 0 136 0 101.5 30.5 c 128,-1,8
 67 61 67 61 67 135 c 2,9,-1
 67 155 l 2,10,11
 67 310 67 310 213 310 c 2,12,-1
 337 310 l 1,13,-1
 337 360 l 2,14,15
 337 425 337 425 262 425 c 2,16,-1
 107 425 l 1,17,-1
 107 500 l 1,18,-1
 252 500 l 2,19,20
 339 500 339 500 380.5 462 c 128,-1,21
 422 424 422 424 422 340 c 2,22,-1
 422 100 l 2,23,24
 422 70 422 70 472 70 c 1,25,-1
 472 0 l 1,0,-1
291 75 m 2,26,27
 324 75 324 75 332 93 c 1,28,29
 337 107 337 107 337 125 c 2,30,-1
 337 235 l 1,31,-1
 212 235 l 2,32,33
 186 235 186 235 169 218 c 128,-1,34
 152 201 152 201 152 175 c 2,35,-1
 152 125 l 2,36,37
 152 99 152 99 164 87 c 128,-1,38
 176 75 176 75 202 75 c 2,39,-1
 291 75 l 2,26,27
288 580 m 1,40,-1
 202 580 l 1,41,-1
 306 715 l 1,42,-1
 410 715 l 1,43,-1
 288 580 l 1,40,-1
EndSplineSet
EndChar

StartChar: acircumflex
Encoding: 226 226 165
Width: 540
GlyphClass: 2
Flags: W
LayerCount: 2
Fore
SplineSet
472 0 m 1,0,-1
 417 0 l 2,1,2
 387 0 387 0 362 30 c 1,3,4
 339 0 339 0 301 0 c 2,5,-1
 212 0 l 2,6,7
 136 0 136 0 101.5 30.5 c 128,-1,8
 67 61 67 61 67 135 c 2,9,-1
 67 155 l 2,10,11
 67 310 67 310 213 310 c 2,12,-1
 337 310 l 1,13,-1
 337 360 l 2,14,15
 337 425 337 425 262 425 c 2,16,-1
 107 425 l 1,17,-1
 107 500 l 1,18,-1
 252 500 l 2,19,20
 339 500 339 500 380.5 462 c 128,-1,21
 422 424 422 424 422 340 c 2,22,-1
 422 100 l 2,23,24
 422 70 422 70 472 70 c 1,25,-1
 472 0 l 1,0,-1
291 75 m 2,26,27
 324 75 324 75 332 93 c 1,28,29
 337 107 337 107 337 125 c 2,30,-1
 337 235 l 1,31,-1
 212 235 l 2,32,33
 186 235 186 235 169 218 c 128,-1,34
 152 201 152 201 152 175 c 2,35,-1
 152 125 l 2,36,37
 152 99 152 99 164 87 c 128,-1,38
 176 75 176 75 202 75 c 2,39,-1
 291 75 l 2,26,27
411 580 m 1,40,-1
 314 580 l 1,41,-1
 254 655 l 1,42,-1
 194 580 l 1,43,-1
 98 580 l 1,44,-1
 210 715 l 1,45,-1
 298 715 l 1,46,-1
 411 580 l 1,40,-1
EndSplineSet
EndChar

StartChar: atilde
Encoding: 227 227 166
Width: 540
GlyphClass: 2
Flags: W
LayerCount: 2
Fore
SplineSet
472 0 m 1,0,-1
 417 0 l 2,1,2
 387 0 387 0 362 30 c 1,3,4
 339 0 339 0 301 0 c 2,5,-1
 212 0 l 2,6,7
 136 0 136 0 101.5 30.5 c 128,-1,8
 67 61 67 61 67 135 c 2,9,-1
 67 155 l 2,10,11
 67 310 67 310 213 310 c 2,12,-1
 337 310 l 1,13,-1
 337 360 l 2,14,15
 337 425 337 425 262 425 c 2,16,-1
 107 425 l 1,17,-1
 107 500 l 1,18,-1
 252 500 l 2,19,20
 339 500 339 500 380.5 462 c 128,-1,21
 422 424 422 424 422 340 c 2,22,-1
 422 100 l 2,23,24
 422 70 422 70 472 70 c 1,25,-1
 472 0 l 1,0,-1
291 75 m 2,26,27
 324 75 324 75 332 93 c 1,28,29
 337 107 337 107 337 125 c 2,30,-1
 337 235 l 1,31,-1
 212 235 l 2,32,33
 186 235 186 235 169 218 c 128,-1,34
 152 201 152 201 152 175 c 2,35,-1
 152 125 l 2,36,37
 152 99 152 99 164 87 c 128,-1,38
 176 75 176 75 202 75 c 2,39,-1
 291 75 l 2,26,27
183 700 m 2,40,-1
 198 700 l 2,41,42
 210 700 210 700 254 680 c 128,-1,43
 298 660 298 660 309 660 c 2,44,-1
 319 660 l 2,45,46
 330 660 330 660 372 687 c 2,47,-1
 386 696 l 1,48,-1
 386 624 l 1,49,50
 335 591 335 591 318 591 c 2,51,-1
 303 591 l 2,52,53
 297 591 297 591 250.5 611 c 128,-1,54
 204 631 204 631 193 631 c 2,55,-1
 183 631 l 2,56,57
 170 631 170 631 122 604 c 2,58,-1
 106 595 l 1,59,-1
 106 667 l 1,60,61
 164 700 164 700 183 700 c 2,40,-1
EndSplineSet
EndChar

StartChar: adieresis
Encoding: 228 228 167
Width: 540
GlyphClass: 2
Flags: W
LayerCount: 2
Fore
SplineSet
472 0 m 1,0,-1
 417 0 l 2,1,2
 387 0 387 0 362 30 c 1,3,4
 339 0 339 0 301 0 c 2,5,-1
 212 0 l 2,6,7
 136 0 136 0 101.5 30.5 c 128,-1,8
 67 61 67 61 67 135 c 2,9,-1
 67 155 l 2,10,11
 67 310 67 310 213 310 c 2,12,-1
 337 310 l 1,13,-1
 337 360 l 2,14,15
 337 425 337 425 262 425 c 2,16,-1
 107 425 l 1,17,-1
 107 500 l 1,18,-1
 252 500 l 2,19,20
 339 500 339 500 380.5 462 c 128,-1,21
 422 424 422 424 422 340 c 2,22,-1
 422 100 l 2,23,24
 422 70 422 70 472 70 c 1,25,-1
 472 0 l 1,0,-1
291 75 m 2,26,27
 324 75 324 75 332 93 c 1,28,29
 337 107 337 107 337 125 c 2,30,-1
 337 235 l 1,31,-1
 212 235 l 2,32,33
 186 235 186 235 169 218 c 128,-1,34
 152 201 152 201 152 175 c 2,35,-1
 152 125 l 2,36,37
 152 99 152 99 164 87 c 128,-1,38
 176 75 176 75 202 75 c 2,39,-1
 291 75 l 2,26,27
391 595 m 1,40,-1
 306 595 l 1,41,-1
 306 675 l 1,42,-1
 391 675 l 1,43,-1
 391 595 l 1,40,-1
191 595 m 1,44,-1
 106 595 l 1,45,-1
 106 675 l 1,46,-1
 191 675 l 1,47,-1
 191 595 l 1,44,-1
EndSplineSet
EndChar

StartChar: aring
Encoding: 229 229 168
Width: 540
GlyphClass: 2
Flags: W
LayerCount: 2
Fore
SplineSet
344 633 m 2,0,1
 344 592 344 592 319 570 c 128,-1,2
 294 548 294 548 255 548 c 2,3,-1
 249 548 l 2,4,5
 210 548 210 548 185 570 c 128,-1,6
 160 592 160 592 160 633 c 2,7,-1
 160 662 l 2,8,9
 160 704 160 704 184.5 725.5 c 128,-1,10
 209 747 209 747 249 747 c 2,11,-1
 255 747 l 2,12,13
 295 747 295 747 319.5 725.5 c 128,-1,14
 344 704 344 704 344 662 c 2,15,-1
 344 633 l 2,0,1
287 632 m 2,16,-1
 287 663 l 2,17,18
 287 701 287 701 255 701 c 2,19,-1
 249 701 l 2,20,21
 215 701 215 701 215 663 c 2,22,-1
 215 632 l 2,23,24
 215 594 215 594 249 594 c 2,25,-1
 255 594 l 2,26,27
 287 594 287 594 287 632 c 2,16,-1
472 0 m 1,28,-1
 417 0 l 2,29,30
 387 0 387 0 362 30 c 1,31,32
 339 0 339 0 301 0 c 2,33,-1
 212 0 l 2,34,35
 136 0 136 0 101.5 30.5 c 128,-1,36
 67 61 67 61 67 135 c 2,37,-1
 67 155 l 2,38,39
 67 310 67 310 213 310 c 2,40,-1
 337 310 l 1,41,-1
 337 360 l 2,42,43
 337 425 337 425 262 425 c 2,44,-1
 107 425 l 1,45,-1
 107 500 l 1,46,-1
 252 500 l 2,47,48
 339 500 339 500 380.5 462 c 128,-1,49
 422 424 422 424 422 340 c 2,50,-1
 422 100 l 2,51,52
 422 70 422 70 472 70 c 1,53,-1
 472 0 l 1,28,-1
291 75 m 2,54,55
 324 75 324 75 332 93 c 1,56,57
 337 107 337 107 337 125 c 2,58,-1
 337 235 l 1,59,-1
 212 235 l 2,60,61
 186 235 186 235 169 218 c 128,-1,62
 152 201 152 201 152 175 c 2,63,-1
 152 125 l 2,64,65
 152 99 152 99 164 87 c 128,-1,66
 176 75 176 75 202 75 c 2,67,-1
 291 75 l 2,54,55
EndSplineSet
EndChar

StartChar: ae
Encoding: 230 230 169
Width: 540
GlyphClass: 2
Flags: W
LayerCount: 2
Fore
SplineSet
484 0 m 1,0,-1
 395 0 l 2,1,2
 299 0 299 0 273 47 c 1,3,4
 248 0 248 0 174 0 c 2,5,-1
 160 0 l 2,6,7
 93 0 93 0 59 31.5 c 128,-1,8
 25 63 25 63 25 135 c 2,9,-1
 25 147 l 2,10,11
 25 302 25 302 166 302 c 2,12,-1
 232 302 l 1,13,-1
 232 360 l 2,14,15
 232 425 232 425 165 425 c 2,16,-1
 60 425 l 1,17,-1
 60 500 l 1,18,-1
 155 500 l 2,19,20
 232 500 232 500 275 463 c 1,21,22
 296 483 296 483 316.5 491.5 c 128,-1,23
 337 500 337 500 375 500 c 2,24,-1
 382 500 l 2,25,26
 452 500 452 500 484 461 c 128,-1,27
 516 422 516 422 516 345 c 2,28,-1
 516 229 l 1,29,-1
 315 229 l 1,30,-1
 315 132 l 1,31,32
 318 73 318 73 385 73 c 2,33,-1
 484 73 l 1,34,-1
 484 0 l 1,0,-1
232 123 m 2,35,-1
 232 229 l 1,36,-1
 163 229 l 2,37,38
 137 229 137 229 122.5 211.5 c 128,-1,39
 108 194 108 194 108 167 c 2,40,-1
 108 123 l 2,41,42
 108 97 108 97 120 85 c 128,-1,43
 132 73 132 73 158 73 c 2,44,-1
 184 73 l 2,45,46
 232 73 232 73 232 123 c 2,35,-1
315 362 m 2,47,-1
 315 302 l 1,48,-1
 435 302 l 1,49,-1
 435 367 l 2,50,51
 435 394 435 394 421.5 410.5 c 128,-1,52
 408 427 408 427 383 427 c 2,53,-1
 375 427 l 2,54,55
 340 427 340 427 327.5 411 c 128,-1,56
 315 395 315 395 315 362 c 2,47,-1
EndSplineSet
EndChar

StartChar: ccedilla
Encoding: 231 231 170
Width: 540
GlyphClass: 2
Flags: W
LayerCount: 2
Fore
SplineSet
311 -200 m 2,0,-1
 226 -200 l 1,1,-1
 226 -136 l 1,2,-1
 293 -136 l 2,3,4
 326 -136 326 -136 326 -105 c 0,5,6
 326 -88 326 -88 317.5 -82 c 128,-1,7
 309 -76 309 -76 291 -76 c 2,8,-1
 242 -76 l 1,9,-1
 242 3 l 1,10,11
 180 12 180 12 150 49.5 c 128,-1,12
 120 87 120 87 120 160 c 2,13,-1
 120 340 l 2,14,15
 120 424 120 424 161.5 462 c 128,-1,16
 203 500 203 500 290 500 c 2,17,-1
 419 500 l 1,18,-1
 419 425 l 1,19,-1
 280 425 l 2,20,21
 205 425 205 425 205 360 c 2,22,-1
 205 140 l 2,23,24
 205 75 205 75 280 75 c 2,25,-1
 419 75 l 1,26,-1
 419 0 l 1,27,-1
 312 0 l 1,28,-1
 312 -21 l 1,29,30
 358 -21 358 -21 378.5 -38.5 c 128,-1,31
 399 -56 399 -56 399 -96 c 128,-1,32
 399 -136 399 -136 390.5 -156.5 c 128,-1,33
 382 -177 382 -177 368 -186 c 1,34,35
 343 -200 343 -200 311 -200 c 2,0,-1
EndSplineSet
EndChar

StartChar: egrave
Encoding: 232 232 171
Width: 540
GlyphClass: 2
Flags: W
LayerCount: 2
Fore
SplineSet
413 0 m 1,0,-1
 264 0 l 2,1,2
 176 0 176 0 135 37.5 c 128,-1,3
 94 75 94 75 94 160 c 2,4,-1
 94 340 l 2,5,6
 94 426 94 426 131 463 c 128,-1,7
 168 500 168 500 254 500 c 2,8,-1
 301 500 l 2,9,10
 445 500 445 500 445 345 c 2,11,-1
 445 215 l 1,12,-1
 179 215 l 1,13,-1
 179 140 l 2,14,15
 179 75 179 75 254 75 c 2,16,-1
 413 75 l 1,17,-1
 413 0 l 1,0,-1
179 360 m 2,18,-1
 179 290 l 1,19,-1
 362 290 l 1,20,-1
 362 365 l 2,21,22
 362 391 362 391 345 408 c 128,-1,23
 328 425 328 425 302 425 c 2,24,-1
 244 425 l 2,25,26
 208 425 208 425 193.5 408.5 c 128,-1,27
 179 392 179 392 179 360 c 2,18,-1
365 580 m 1,28,-1
 279 580 l 1,29,-1
 157 715 l 1,30,-1
 261 715 l 1,31,-1
 365 580 l 1,28,-1
EndSplineSet
EndChar

StartChar: eacute
Encoding: 233 233 172
Width: 540
GlyphClass: 2
Flags: W
LayerCount: 2
Fore
SplineSet
413 0 m 1,0,-1
 264 0 l 2,1,2
 176 0 176 0 135 37.5 c 128,-1,3
 94 75 94 75 94 160 c 2,4,-1
 94 340 l 2,5,6
 94 426 94 426 131 463 c 128,-1,7
 168 500 168 500 254 500 c 2,8,-1
 301 500 l 2,9,10
 445 500 445 500 445 345 c 2,11,-1
 445 215 l 1,12,-1
 179 215 l 1,13,-1
 179 140 l 2,14,15
 179 75 179 75 254 75 c 2,16,-1
 413 75 l 1,17,-1
 413 0 l 1,0,-1
179 360 m 2,18,-1
 179 290 l 1,19,-1
 362 290 l 1,20,-1
 362 365 l 2,21,22
 362 391 362 391 345 408 c 128,-1,23
 328 425 328 425 302 425 c 2,24,-1
 244 425 l 2,25,26
 208 425 208 425 193.5 408.5 c 128,-1,27
 179 392 179 392 179 360 c 2,18,-1
304 580 m 1,28,-1
 218 580 l 1,29,-1
 322 715 l 1,30,-1
 426 715 l 1,31,-1
 304 580 l 1,28,-1
EndSplineSet
EndChar

StartChar: ecircumflex
Encoding: 234 234 173
Width: 540
GlyphClass: 2
Flags: W
LayerCount: 2
Fore
SplineSet
413 0 m 1,0,-1
 264 0 l 2,1,2
 176 0 176 0 135 37.5 c 128,-1,3
 94 75 94 75 94 160 c 2,4,-1
 94 340 l 2,5,6
 94 426 94 426 131 463 c 128,-1,7
 168 500 168 500 254 500 c 2,8,-1
 301 500 l 2,9,10
 445 500 445 500 445 345 c 2,11,-1
 445 215 l 1,12,-1
 179 215 l 1,13,-1
 179 140 l 2,14,15
 179 75 179 75 254 75 c 2,16,-1
 413 75 l 1,17,-1
 413 0 l 1,0,-1
179 360 m 2,18,-1
 179 290 l 1,19,-1
 362 290 l 1,20,-1
 362 365 l 2,21,22
 362 391 362 391 345 408 c 128,-1,23
 328 425 328 425 302 425 c 2,24,-1
 244 425 l 2,25,26
 208 425 208 425 193.5 408.5 c 128,-1,27
 179 392 179 392 179 360 c 2,18,-1
428 580 m 1,28,-1
 331 580 l 1,29,-1
 271 655 l 1,30,-1
 211 580 l 1,31,-1
 115 580 l 1,32,-1
 227 715 l 1,33,-1
 315 715 l 1,34,-1
 428 580 l 1,28,-1
EndSplineSet
EndChar

StartChar: edieresis
Encoding: 235 235 174
Width: 540
GlyphClass: 2
Flags: W
LayerCount: 2
Fore
SplineSet
413 0 m 1,0,-1
 264 0 l 2,1,2
 176 0 176 0 135 37.5 c 128,-1,3
 94 75 94 75 94 160 c 2,4,-1
 94 340 l 2,5,6
 94 426 94 426 131 463 c 128,-1,7
 168 500 168 500 254 500 c 2,8,-1
 301 500 l 2,9,10
 445 500 445 500 445 345 c 2,11,-1
 445 215 l 1,12,-1
 179 215 l 1,13,-1
 179 140 l 2,14,15
 179 75 179 75 254 75 c 2,16,-1
 413 75 l 1,17,-1
 413 0 l 1,0,-1
179 360 m 2,18,-1
 179 290 l 1,19,-1
 362 290 l 1,20,-1
 362 365 l 2,21,22
 362 391 362 391 345 408 c 128,-1,23
 328 425 328 425 302 425 c 2,24,-1
 244 425 l 2,25,26
 208 425 208 425 193.5 408.5 c 128,-1,27
 179 392 179 392 179 360 c 2,18,-1
418 595 m 1,28,-1
 333 595 l 1,29,-1
 333 675 l 1,30,-1
 418 675 l 1,31,-1
 418 595 l 1,28,-1
218 595 m 1,32,-1
 133 595 l 1,33,-1
 133 675 l 1,34,-1
 218 675 l 1,35,-1
 218 595 l 1,32,-1
EndSplineSet
EndChar

StartChar: igrave
Encoding: 236 236 175
Width: 540
GlyphClass: 2
Flags: W
LayerCount: 2
Fore
SplineSet
357 580 m 1,0,-1
 271 580 l 1,1,-1
 149 715 l 1,2,-1
 253 715 l 1,3,-1
 357 580 l 1,0,-1
460 0 m 1,4,-1
 227 0 l 1,5,-1
 227 425 l 1,6,-1
 80 425 l 1,7,-1
 80 500 l 1,8,-1
 312 500 l 1,9,-1
 312 75 l 1,10,-1
 460 75 l 1,11,-1
 460 0 l 1,4,-1
EndSplineSet
EndChar

StartChar: iacute
Encoding: 237 237 176
Width: 540
GlyphClass: 2
Flags: W
LayerCount: 2
Fore
SplineSet
291 580 m 1,0,-1
 205 580 l 1,1,-1
 309 715 l 1,2,-1
 413 715 l 1,3,-1
 291 580 l 1,0,-1
460 0 m 1,4,-1
 227 0 l 1,5,-1
 227 425 l 1,6,-1
 80 425 l 1,7,-1
 80 500 l 1,8,-1
 312 500 l 1,9,-1
 312 75 l 1,10,-1
 460 75 l 1,11,-1
 460 0 l 1,4,-1
EndSplineSet
EndChar

StartChar: icircumflex
Encoding: 238 238 177
Width: 540
GlyphClass: 2
Flags: W
LayerCount: 2
Fore
SplineSet
430 580 m 1,0,-1
 333 580 l 1,1,-1
 273 655 l 1,2,-1
 213 580 l 1,3,-1
 117 580 l 1,4,-1
 229 715 l 1,5,-1
 317 715 l 1,6,-1
 430 580 l 1,0,-1
460 0 m 1,7,-1
 227 0 l 1,8,-1
 227 425 l 1,9,-1
 80 425 l 1,10,-1
 80 500 l 1,11,-1
 312 500 l 1,12,-1
 312 75 l 1,13,-1
 460 75 l 1,14,-1
 460 0 l 1,7,-1
EndSplineSet
EndChar

StartChar: idieresis
Encoding: 239 239 178
Width: 540
GlyphClass: 2
Flags: W
LayerCount: 2
Fore
SplineSet
413 595 m 1,0,-1
 328 595 l 1,1,-1
 328 675 l 1,2,-1
 413 675 l 1,3,-1
 413 595 l 1,0,-1
213 595 m 1,4,-1
 128 595 l 1,5,-1
 128 675 l 1,6,-1
 213 675 l 1,7,-1
 213 595 l 1,4,-1
460 0 m 1,8,-1
 227 0 l 1,9,-1
 227 425 l 1,10,-1
 80 425 l 1,11,-1
 80 500 l 1,12,-1
 312 500 l 1,13,-1
 312 75 l 1,14,-1
 460 75 l 1,15,-1
 460 0 l 1,8,-1
EndSplineSet
EndChar

StartChar: eth
Encoding: 240 240 179
Width: 540
GlyphClass: 2
Flags: W
LayerCount: 2
Fore
SplineSet
147 626 m 1,0,-1
 147 700 l 1,1,-1
 266 700 l 1,2,-1
 296 750 l 1,3,-1
 378 750 l 1,4,-1
 342 690 l 1,5,6
 445 658 445 658 445 530 c 2,7,-1
 445 170 l 2,8,9
 445 88 445 88 400 44 c 128,-1,10
 355 0 355 0 287 0 c 2,11,-1
 252 0 l 2,12,13
 184 0 184 0 139 44 c 128,-1,14
 94 88 94 88 94 170 c 2,15,-1
 94 300 l 2,16,17
 94 384 94 384 135 422 c 128,-1,18
 176 460 176 460 262 460 c 2,19,-1
 360 460 l 1,20,-1
 360 549 l 2,21,22
 360 574 360 574 344.5 594.5 c 128,-1,23
 329 615 329 615 303 622 c 1,24,-1
 270 566 l 1,25,-1
 188 566 l 1,26,-1
 223 626 l 1,27,-1
 147 626 l 1,0,-1
360 385 m 1,28,-1
 252 385 l 2,29,30
 179 385 179 385 179 319 c 2,31,-1
 179 151 l 2,32,33
 179 119 179 119 200 97 c 128,-1,34
 221 75 221 75 257 75 c 2,35,-1
 282 75 l 2,36,37
 318 75 318 75 339 97 c 128,-1,38
 360 119 360 119 360 151 c 2,39,-1
 360 385 l 1,28,-1
EndSplineSet
EndChar

StartChar: ntilde
Encoding: 241 241 180
Width: 540
GlyphClass: 2
Flags: W
LayerCount: 2
Fore
SplineSet
172 0 m 1,0,-1
 87 0 l 1,1,-1
 87 500 l 1,2,-1
 167 500 l 1,3,-1
 167 476 l 1,4,5
 198 500 198 500 247 500 c 2,6,-1
 293 500 l 2,7,8
 374 500 374 500 413.5 462 c 128,-1,9
 453 424 453 424 453 340 c 2,10,-1
 453 0 l 1,11,-1
 368 0 l 1,12,-1
 368 360 l 2,13,14
 368 390 368 390 350.5 407.5 c 128,-1,15
 333 425 333 425 303 425 c 2,16,-1
 237 425 l 2,17,18
 204 425 204 425 188 407.5 c 128,-1,19
 172 390 172 390 172 370 c 2,20,-1
 172 0 l 1,0,-1
214 700 m 2,21,-1
 229 700 l 2,22,23
 241 700 241 700 285 680 c 128,-1,24
 329 660 329 660 340 660 c 2,25,-1
 350 660 l 2,26,27
 361 660 361 660 403 687 c 2,28,-1
 417 696 l 1,29,-1
 417 624 l 1,30,31
 366 591 366 591 349 591 c 2,32,-1
 334 591 l 2,33,34
 328 591 328 591 281.5 611 c 128,-1,35
 235 631 235 631 224 631 c 2,36,-1
 214 631 l 2,37,38
 201 631 201 631 153 604 c 2,39,-1
 137 595 l 1,40,-1
 137 667 l 1,41,42
 195 700 195 700 214 700 c 2,21,-1
EndSplineSet
EndChar

StartChar: ograve
Encoding: 242 242 181
Width: 540
GlyphClass: 2
Flags: W
LayerCount: 2
Fore
SplineSet
452 160 m 2,0,1
 452 76 452 76 410.5 38 c 128,-1,2
 369 0 369 0 282 0 c 2,3,-1
 249 0 l 2,4,5
 162 0 162 0 120.5 38 c 128,-1,6
 79 76 79 76 79 160 c 2,7,-1
 79 340 l 2,8,9
 79 424 79 424 120.5 462 c 128,-1,10
 162 500 162 500 249 500 c 2,11,-1
 282 500 l 2,12,13
 369 500 369 500 410.5 462 c 128,-1,14
 452 424 452 424 452 340 c 2,15,-1
 452 160 l 2,0,1
367 140 m 2,16,-1
 367 360 l 2,17,18
 367 425 367 425 292 425 c 2,19,-1
 239 425 l 2,20,21
 164 425 164 425 164 360 c 2,22,-1
 164 140 l 2,23,24
 164 75 164 75 239 75 c 2,25,-1
 292 75 l 2,26,27
 367 75 367 75 367 140 c 2,16,-1
365 580 m 1,28,-1
 279 580 l 1,29,-1
 157 715 l 1,30,-1
 261 715 l 1,31,-1
 365 580 l 1,28,-1
EndSplineSet
EndChar

StartChar: oacute
Encoding: 243 243 182
Width: 540
GlyphClass: 2
Flags: W
LayerCount: 2
Fore
SplineSet
456 160 m 2,0,1
 456 76 456 76 414.5 38 c 128,-1,2
 373 0 373 0 286 0 c 2,3,-1
 253 0 l 2,4,5
 166 0 166 0 124.5 38 c 128,-1,6
 83 76 83 76 83 160 c 2,7,-1
 83 340 l 2,8,9
 83 424 83 424 124.5 462 c 128,-1,10
 166 500 166 500 253 500 c 2,11,-1
 286 500 l 2,12,13
 373 500 373 500 414.5 462 c 128,-1,14
 456 424 456 424 456 340 c 2,15,-1
 456 160 l 2,0,1
371 140 m 2,16,-1
 371 360 l 2,17,18
 371 425 371 425 296 425 c 2,19,-1
 243 425 l 2,20,21
 168 425 168 425 168 360 c 2,22,-1
 168 140 l 2,23,24
 168 75 168 75 243 75 c 2,25,-1
 296 75 l 2,26,27
 371 75 371 75 371 140 c 2,16,-1
255 580 m 1,28,-1
 169 580 l 1,29,-1
 273 715 l 1,30,-1
 377 715 l 1,31,-1
 255 580 l 1,28,-1
EndSplineSet
EndChar

StartChar: ocircumflex
Encoding: 244 244 183
Width: 540
GlyphClass: 2
Flags: W
LayerCount: 2
Fore
SplineSet
456 160 m 2,0,1
 456 76 456 76 414.5 38 c 128,-1,2
 373 0 373 0 286 0 c 2,3,-1
 253 0 l 2,4,5
 166 0 166 0 124.5 38 c 128,-1,6
 83 76 83 76 83 160 c 2,7,-1
 83 340 l 2,8,9
 83 424 83 424 124.5 462 c 128,-1,10
 166 500 166 500 253 500 c 2,11,-1
 286 500 l 2,12,13
 373 500 373 500 414.5 462 c 128,-1,14
 456 424 456 424 456 340 c 2,15,-1
 456 160 l 2,0,1
371 140 m 2,16,-1
 371 360 l 2,17,18
 371 425 371 425 296 425 c 2,19,-1
 243 425 l 2,20,21
 168 425 168 425 168 360 c 2,22,-1
 168 140 l 2,23,24
 168 75 168 75 243 75 c 2,25,-1
 296 75 l 2,26,27
 371 75 371 75 371 140 c 2,16,-1
427 580 m 1,28,-1
 330 580 l 1,29,-1
 270 655 l 1,30,-1
 210 580 l 1,31,-1
 114 580 l 1,32,-1
 226 715 l 1,33,-1
 314 715 l 1,34,-1
 427 580 l 1,28,-1
EndSplineSet
EndChar

StartChar: otilde
Encoding: 245 245 184
Width: 540
GlyphClass: 2
Flags: W
LayerCount: 2
Fore
SplineSet
456 160 m 2,0,1
 456 76 456 76 414.5 38 c 128,-1,2
 373 0 373 0 286 0 c 2,3,-1
 253 0 l 2,4,5
 166 0 166 0 124.5 38 c 128,-1,6
 83 76 83 76 83 160 c 2,7,-1
 83 340 l 2,8,9
 83 424 83 424 124.5 462 c 128,-1,10
 166 500 166 500 253 500 c 2,11,-1
 286 500 l 2,12,13
 373 500 373 500 414.5 462 c 128,-1,14
 456 424 456 424 456 340 c 2,15,-1
 456 160 l 2,0,1
371 140 m 2,16,-1
 371 360 l 2,17,18
 371 425 371 425 296 425 c 2,19,-1
 243 425 l 2,20,21
 168 425 168 425 168 360 c 2,22,-1
 168 140 l 2,23,24
 168 75 168 75 243 75 c 2,25,-1
 296 75 l 2,26,27
 371 75 371 75 371 140 c 2,16,-1
207 700 m 2,28,-1
 222 700 l 2,29,30
 234 700 234 700 278 680 c 128,-1,31
 322 660 322 660 333 660 c 2,32,-1
 343 660 l 2,33,34
 354 660 354 660 396 687 c 2,35,-1
 410 696 l 1,36,-1
 410 624 l 1,37,38
 359 591 359 591 342 591 c 2,39,-1
 327 591 l 2,40,41
 321 591 321 591 274.5 611 c 128,-1,42
 228 631 228 631 217 631 c 2,43,-1
 207 631 l 2,44,45
 194 631 194 631 146 604 c 2,46,-1
 130 595 l 1,47,-1
 130 667 l 1,48,49
 188 700 188 700 207 700 c 2,28,-1
EndSplineSet
EndChar

StartChar: odieresis
Encoding: 246 246 185
Width: 540
GlyphClass: 2
Flags: W
LayerCount: 2
Fore
SplineSet
456 160 m 2,0,1
 456 76 456 76 414.5 38 c 128,-1,2
 373 0 373 0 286 0 c 2,3,-1
 253 0 l 2,4,5
 166 0 166 0 124.5 38 c 128,-1,6
 83 76 83 76 83 160 c 2,7,-1
 83 340 l 2,8,9
 83 424 83 424 124.5 462 c 128,-1,10
 166 500 166 500 253 500 c 2,11,-1
 286 500 l 2,12,13
 373 500 373 500 414.5 462 c 128,-1,14
 456 424 456 424 456 340 c 2,15,-1
 456 160 l 2,0,1
371 140 m 2,16,-1
 371 360 l 2,17,18
 371 425 371 425 296 425 c 2,19,-1
 243 425 l 2,20,21
 168 425 168 425 168 360 c 2,22,-1
 168 140 l 2,23,24
 168 75 168 75 243 75 c 2,25,-1
 296 75 l 2,26,27
 371 75 371 75 371 140 c 2,16,-1
413 595 m 1,28,-1
 328 595 l 1,29,-1
 328 675 l 1,30,-1
 413 675 l 1,31,-1
 413 595 l 1,28,-1
213 595 m 1,32,-1
 128 595 l 1,33,-1
 128 675 l 1,34,-1
 213 675 l 1,35,-1
 213 595 l 1,32,-1
EndSplineSet
EndChar

StartChar: divide
Encoding: 247 247 186
Width: 540
GlyphClass: 2
Flags: W
LayerCount: 2
Fore
SplineSet
460 275 m 1,0,-1
 80 275 l 1,1,-1
 80 350 l 1,2,-1
 460 350 l 1,3,-1
 460 275 l 1,0,-1
320 65 m 1,4,-1
 220 65 l 1,5,-1
 220 165 l 1,6,-1
 320 165 l 1,7,-1
 320 65 l 1,4,-1
320 460 m 1,8,-1
 220 460 l 1,9,-1
 220 560 l 1,10,-1
 320 560 l 1,11,-1
 320 460 l 1,8,-1
EndSplineSet
EndChar

StartChar: oslash
Encoding: 248 248 187
Width: 540
GlyphClass: 2
Flags: W
LayerCount: 2
Fore
SplineSet
456 160 m 2,0,1
 456 76 456 76 414.5 38 c 128,-1,2
 373 0 373 0 286 0 c 2,3,-1
 233 0 l 1,4,-1
 206 -89 l 1,5,-1
 128 -89 l 1,6,-1
 159 15 l 1,7,8
 83 48 83 48 83 160 c 2,9,-1
 83 340 l 2,10,11
 83 424 83 424 124.5 462 c 128,-1,12
 166 500 166 500 253 500 c 2,13,-1
 286 500 l 2,14,15
 300 500 300 500 306 499 c 1,16,-1
 334 589 l 1,17,-1
 411 589 l 1,18,-1
 379 484 l 1,19,20
 456 451 456 451 456 340 c 2,21,-1
 456 160 l 2,0,1
168 140 m 2,22,23
 168 112 168 112 183 95 c 1,24,-1
 284 425 l 1,25,-1
 243 425 l 2,26,27
 168 425 168 425 168 360 c 2,28,-1
 168 140 l 2,22,23
371 140 m 2,29,-1
 371 360 l 2,30,31
 371 388 371 388 355 404 c 1,32,-1
 255 75 l 1,33,-1
 296 75 l 2,34,35
 371 75 371 75 371 140 c 2,29,-1
EndSplineSet
EndChar

StartChar: ugrave
Encoding: 249 249 188
Width: 540
GlyphClass: 2
Flags: W
LayerCount: 2
Fore
SplineSet
447 0 m 1,0,-1
 367 0 l 1,1,-1
 367 23 l 1,2,3
 334 0 334 0 287 0 c 2,4,-1
 253 0 l 2,5,6
 172 0 172 0 132.5 38 c 128,-1,7
 93 76 93 76 93 160 c 2,8,-1
 93 500 l 1,9,-1
 178 500 l 1,10,-1
 178 140 l 2,11,12
 178 110 178 110 195.5 92.5 c 128,-1,13
 213 75 213 75 243 75 c 2,14,-1
 297 75 l 2,15,16
 329 75 329 75 344.5 91 c 128,-1,17
 360 107 360 107 362 127 c 1,18,-1
 362 500 l 1,19,-1
 447 500 l 1,20,-1
 447 0 l 1,0,-1
343 580 m 1,21,-1
 257 580 l 1,22,-1
 135 715 l 1,23,-1
 239 715 l 1,24,-1
 343 580 l 1,21,-1
EndSplineSet
EndChar

StartChar: uacute
Encoding: 250 250 189
Width: 540
GlyphClass: 2
Flags: W
LayerCount: 2
Fore
SplineSet
447 0 m 1,0,-1
 367 0 l 1,1,-1
 367 23 l 1,2,3
 334 0 334 0 287 0 c 2,4,-1
 253 0 l 2,5,6
 172 0 172 0 132.5 38 c 128,-1,7
 93 76 93 76 93 160 c 2,8,-1
 93 500 l 1,9,-1
 178 500 l 1,10,-1
 178 140 l 2,11,12
 178 110 178 110 195.5 92.5 c 128,-1,13
 213 75 213 75 243 75 c 2,14,-1
 297 75 l 2,15,16
 329 75 329 75 344.5 91 c 128,-1,17
 360 107 360 107 362 127 c 1,18,-1
 362 500 l 1,19,-1
 447 500 l 1,20,-1
 447 0 l 1,0,-1
303 580 m 1,21,-1
 217 580 l 1,22,-1
 321 715 l 1,23,-1
 425 715 l 1,24,-1
 303 580 l 1,21,-1
EndSplineSet
EndChar

StartChar: ucircumflex
Encoding: 251 251 190
Width: 540
GlyphClass: 2
Flags: W
LayerCount: 2
Fore
SplineSet
447 0 m 1,0,-1
 367 0 l 1,1,-1
 367 23 l 1,2,3
 334 0 334 0 287 0 c 2,4,-1
 253 0 l 2,5,6
 172 0 172 0 132.5 38 c 128,-1,7
 93 76 93 76 93 160 c 2,8,-1
 93 500 l 1,9,-1
 178 500 l 1,10,-1
 178 140 l 2,11,12
 178 110 178 110 195.5 92.5 c 128,-1,13
 213 75 213 75 243 75 c 2,14,-1
 297 75 l 2,15,16
 329 75 329 75 344.5 91 c 128,-1,17
 360 107 360 107 362 127 c 1,18,-1
 362 500 l 1,19,-1
 447 500 l 1,20,-1
 447 0 l 1,0,-1
426 580 m 1,21,-1
 329 580 l 1,22,-1
 269 655 l 1,23,-1
 209 580 l 1,24,-1
 113 580 l 1,25,-1
 225 715 l 1,26,-1
 313 715 l 1,27,-1
 426 580 l 1,21,-1
EndSplineSet
EndChar

StartChar: udieresis
Encoding: 252 252 191
Width: 540
GlyphClass: 2
Flags: W
LayerCount: 2
Fore
SplineSet
447 0 m 1,0,-1
 367 0 l 1,1,-1
 367 23 l 1,2,3
 334 0 334 0 287 0 c 2,4,-1
 253 0 l 2,5,6
 172 0 172 0 132.5 38 c 128,-1,7
 93 76 93 76 93 160 c 2,8,-1
 93 500 l 1,9,-1
 178 500 l 1,10,-1
 178 140 l 2,11,12
 178 110 178 110 195.5 92.5 c 128,-1,13
 213 75 213 75 243 75 c 2,14,-1
 297 75 l 2,15,16
 329 75 329 75 344.5 91 c 128,-1,17
 360 107 360 107 362 127 c 1,18,-1
 362 500 l 1,19,-1
 447 500 l 1,20,-1
 447 0 l 1,0,-1
410 595 m 1,21,-1
 325 595 l 1,22,-1
 325 675 l 1,23,-1
 410 675 l 1,24,-1
 410 595 l 1,21,-1
210 595 m 1,25,-1
 125 595 l 1,26,-1
 125 675 l 1,27,-1
 210 675 l 1,28,-1
 210 595 l 1,25,-1
EndSplineSet
EndChar

StartChar: yacute
Encoding: 253 253 192
Width: 540
GlyphClass: 2
Flags: W
LayerCount: 2
Fore
SplineSet
138 -95 m 1,0,-1
 180 -95 l 2,1,2
 204 -95 204 -95 216 -86 c 128,-1,3
 228 -77 228 -77 234 -55 c 2,4,-1
 248 0 l 1,5,-1
 228 0 l 1,6,-1
 63 500 l 1,7,-1
 155 500 l 1,8,-1
 280 81 l 1,9,-1
 389 500 l 1,10,-1
 476 500 l 1,11,-1
 321 -54 l 1,12,13
 302 -127 302 -127 271.5 -148.5 c 128,-1,14
 241 -170 241 -170 186 -170 c 2,15,-1
 138 -170 l 1,16,-1
 138 -95 l 1,0,-1
281 580 m 1,17,-1
 195 580 l 1,18,-1
 299 715 l 1,19,-1
 403 715 l 1,20,-1
 281 580 l 1,17,-1
EndSplineSet
EndChar

StartChar: thorn
Encoding: 254 254 193
Width: 540
GlyphClass: 2
Flags: W
LayerCount: 2
Fore
SplineSet
182 -170 m 1,0,-1
 97 -170 l 1,1,-1
 97 700 l 1,2,-1
 182 700 l 1,3,-1
 182 -170 l 1,0,-1
453 160 m 2,4,5
 453 160 453 160 453 340 c 0,6,7
 453 425 453 425 412 462.5 c 128,-1,8
 371 500 371 500 283 500 c 2,9,-1
 257 500 l 2,10,11
 157 500 157 500 125 399 c 1,12,-1
 182 370 l 1,13,14
 182 390 182 390 198 407.5 c 128,-1,15
 214 425 214 425 247 425 c 2,16,17
 247 425 247 425 293 425 c 0,18,19
 368 425 368 425 368 360 c 2,20,-1
 368 140 l 2,21,22
 368 75 368 75 293 75 c 2,23,-1
 152 75 l 1,24,-1
 152 0 l 1,25,-1
 283 0 l 2,26,27
 370 0 370 0 411.5 38 c 128,-1,28
 453 76 453 76 453 160 c 2,4,5
EndSplineSet
EndChar

StartChar: ydieresis
Encoding: 255 255 194
Width: 540
GlyphClass: 2
Flags: W
LayerCount: 2
Fore
SplineSet
138 -95 m 1,0,-1
 180 -95 l 2,1,2
 204 -95 204 -95 216 -86 c 128,-1,3
 228 -77 228 -77 234 -55 c 2,4,-1
 248 0 l 1,5,-1
 228 0 l 1,6,-1
 63 500 l 1,7,-1
 155 500 l 1,8,-1
 280 81 l 1,9,-1
 389 500 l 1,10,-1
 476 500 l 1,11,-1
 321 -54 l 1,12,13
 302 -127 302 -127 271.5 -148.5 c 128,-1,14
 241 -170 241 -170 186 -170 c 2,15,-1
 138 -170 l 1,16,-1
 138 -95 l 1,0,-1
412 595 m 1,17,-1
 327 595 l 1,18,-1
 327 675 l 1,19,-1
 412 675 l 1,20,-1
 412 595 l 1,17,-1
212 595 m 1,21,-1
 127 595 l 1,22,-1
 127 675 l 1,23,-1
 212 675 l 1,24,-1
 212 595 l 1,21,-1
EndSplineSet
EndChar

StartChar: dotlessi
Encoding: 305 305 195
Width: 540
GlyphClass: 2
Flags: W
LayerCount: 2
Fore
SplineSet
460 0 m 1,0,-1
 227 0 l 1,1,-1
 227 425 l 1,2,-1
 80 425 l 1,3,-1
 80 500 l 1,4,-1
 312 500 l 1,5,-1
 312 75 l 1,6,-1
 460 75 l 1,7,-1
 460 0 l 1,0,-1
EndSplineSet
EndChar

StartChar: Lslash
Encoding: 321 321 196
Width: 540
GlyphClass: 2
Flags: W
LayerCount: 2
Fore
SplineSet
475 0 m 1,0,-1
 165 0 l 1,1,-1
 165 343 l 1,2,-1
 75 300 l 1,3,-1
 75 380 l 1,4,-1
 165 423 l 1,5,-1
 165 700 l 1,6,-1
 252 700 l 1,7,-1
 252 465 l 1,8,-1
 365 520 l 1,9,-1
 365 440 l 1,10,-1
 252 385 l 1,11,-1
 252 76 l 1,12,-1
 475 76 l 1,13,-1
 475 0 l 1,0,-1
EndSplineSet
Position2: "'cpsp' Capital Spacing in Latin lookup 0 subtable" dx=5 dy=0 dh=10 dv=0
EndChar

StartChar: lslash
Encoding: 322 322 197
Width: 540
GlyphClass: 2
Flags: W
LayerCount: 2
Fore
SplineSet
470 0 m 1,0,-1
 302 0 l 2,1,2
 268 0 268 0 242.5 24 c 128,-1,3
 217 48 217 48 217 100 c 2,4,-1
 217 323 l 1,5,-1
 135 300 l 1,6,-1
 135 378 l 1,7,-1
 217 402 l 1,8,-1
 217 625 l 1,9,-1
 70 625 l 1,10,-1
 70 700 l 1,11,-1
 302 700 l 1,12,-1
 302 426 l 1,13,-1
 406 457 l 1,14,-1
 406 378 l 1,15,-1
 302 348 l 1,16,-1
 302 105 l 2,17,18
 302 89 302 89 310 82 c 128,-1,19
 318 75 318 75 337 75 c 2,20,-1
 470 75 l 1,21,-1
 470 0 l 1,0,-1
EndSplineSet
EndChar

StartChar: OE
Encoding: 338 338 198
Width: 540
GlyphClass: 2
Flags: W
LayerCount: 2
Fore
SplineSet
523 0 m 1,0,-1
 206 0 l 2,1,2
 119 0 119 0 72.5 42.5 c 128,-1,3
 26 85 26 85 26 170 c 2,4,-1
 26 530 l 2,5,6
 26 615 26 615 72.5 657.5 c 128,-1,7
 119 700 119 700 206 700 c 2,8,-1
 523 700 l 1,9,-1
 523 627 l 1,10,-1
 347 627 l 1,11,12
 371 582 371 582 371 530 c 2,13,-1
 371 398 l 1,14,-1
 508 398 l 1,15,-1
 508 325 l 1,16,-1
 371 325 l 1,17,-1
 371 170 l 2,18,19
 371 116 371 116 347 73 c 1,20,-1
 523 73 l 1,21,-1
 523 0 l 1,0,-1
284 151 m 2,22,-1
 284 549 l 2,23,24
 284 580 284 580 261 602 c 128,-1,25
 238 624 238 624 201 624 c 2,26,-1
 196 624 l 2,27,28
 159 624 159 624 136 602 c 128,-1,29
 113 580 113 580 113 549 c 2,30,-1
 113 151 l 2,31,32
 113 120 113 120 136 98 c 128,-1,33
 159 76 159 76 196 76 c 2,34,-1
 201 76 l 2,35,36
 238 76 238 76 261 98 c 128,-1,37
 284 120 284 120 284 151 c 2,22,-1
EndSplineSet
Position2: "'cpsp' Capital Spacing in Latin lookup 0 subtable" dx=5 dy=0 dh=10 dv=0
EndChar

StartChar: oe
Encoding: 339 339 199
Width: 540
GlyphClass: 2
Flags: W
LayerCount: 2
Fore
SplineSet
489 0 m 1,0,-1
 397 0 l 2,1,2
 310 0 310 0 280 39 c 1,3,4
 262 19 262 19 240 9.5 c 128,-1,5
 218 0 218 0 176 0 c 2,6,-1
 173 0 l 2,7,8
 95 0 95 0 60.5 37 c 128,-1,9
 26 74 26 74 26 155 c 2,10,-1
 26 345 l 2,11,12
 26 429 26 429 60.5 464.5 c 128,-1,13
 95 500 95 500 173 500 c 2,14,-1
 176 500 l 2,15,16
 215 500 215 500 236.5 490 c 128,-1,17
 258 480 258 480 278 461 c 1,18,19
 310 500 310 500 383 500 c 2,20,-1
 384 500 l 2,21,22
 452 500 452 500 484 465 c 128,-1,23
 516 430 516 430 516 355 c 2,24,-1
 516 215 l 1,25,-1
 323 215 l 1,26,-1
 323 138 l 2,27,28
 323 73 323 73 395 73 c 2,29,-1
 489 73 l 1,30,-1
 489 0 l 1,0,-1
240 138 m 2,31,-1
 240 362 l 2,32,33
 240 427 240 427 186 427 c 2,34,-1
 163 427 l 2,35,36
 109 427 109 427 109 362 c 2,37,-1
 109 138 l 2,38,39
 109 73 109 73 163 73 c 2,40,-1
 186 73 l 2,41,42
 240 73 240 73 240 138 c 2,31,-1
323 362 m 2,43,-1
 323 288 l 1,44,-1
 435 288 l 1,45,-1
 435 367 l 2,46,47
 435 427 435 427 383 427 c 2,48,-1
 380 427 l 2,49,50
 346 427 346 427 334.5 411 c 128,-1,51
 323 395 323 395 323 362 c 2,43,-1
EndSplineSet
EndChar

StartChar: Scaron
Encoding: 352 352 200
Width: 540
GlyphClass: 2
Flags: W
LayerCount: 2
Fore
SplineSet
126 845 m 1,0,-1
 223 845 l 1,1,-1
 283 778 l 1,2,-1
 343 845 l 1,3,-1
 439 845 l 1,4,-1
 327 730 l 1,5,-1
 239 730 l 1,6,-1
 126 845 l 1,0,-1
439 170 m 2,7,8
 439 85 439 85 392.5 42.5 c 128,-1,9
 346 0 346 0 259 0 c 2,10,-1
 117 0 l 1,11,-1
 117 76 l 1,12,-1
 269 76 l 2,13,14
 306 76 306 76 329 98 c 128,-1,15
 352 120 352 120 352 151 c 2,16,-1
 352 255 l 2,17,18
 352 285 352 285 336.5 303.5 c 128,-1,19
 321 322 321 322 290 322 c 2,20,-1
 260 322 l 2,21,22
 186 322 186 322 143 365.5 c 128,-1,23
 100 409 100 409 100 492 c 2,24,-1
 100 530 l 2,25,26
 100 615 100 615 146.5 657.5 c 128,-1,27
 193 700 193 700 280 700 c 2,28,-1
 423 700 l 1,29,-1
 423 624 l 1,30,-1
 270 624 l 2,31,32
 233 624 233 624 210 602 c 128,-1,33
 187 580 187 580 187 549 c 2,34,-1
 187 473 l 2,35,36
 187 442 187 442 207 421.5 c 128,-1,37
 227 401 227 401 259 401 c 2,38,-1
 289 401 l 2,39,40
 360 401 360 401 399.5 360 c 128,-1,41
 439 319 439 319 439 236 c 2,42,-1
 439 170 l 2,7,8
EndSplineSet
Position2: "'cpsp' Capital Spacing in Latin lookup 0 subtable" dx=5 dy=0 dh=10 dv=0
EndChar

StartChar: scaron
Encoding: 353 353 201
Width: 540
GlyphClass: 2
Flags: W
LayerCount: 2
Fore
SplineSet
415 125 m 2,0,1
 415 0 415 0 265 0 c 2,2,-1
 116 0 l 1,3,-1
 116 75 l 1,4,-1
 275 75 l 2,5,6
 330 75 330 75 330 120 c 2,7,-1
 330 173 l 2,8,9
 330 218 330 218 287 218 c 2,10,-1
 250 218 l 2,11,12
 180 218 180 218 145.5 248.5 c 128,-1,13
 111 279 111 279 111 345 c 2,14,-1
 111 374 l 2,15,16
 111 441 111 441 149 470.5 c 128,-1,17
 187 500 187 500 261 500 c 2,18,-1
 395 500 l 1,19,-1
 395 425 l 1,20,-1
 251 425 l 2,21,22
 226 425 226 425 211 413.5 c 128,-1,23
 196 402 196 402 196 380 c 2,24,-1
 196 344 l 2,25,26
 196 321 196 321 209.5 310 c 128,-1,27
 223 299 223 299 244 299 c 2,28,-1
 278 299 l 2,29,30
 415 299 415 299 415 170 c 2,31,-1
 415 125 l 2,0,1
119 714 m 1,32,-1
 216 714 l 1,33,-1
 276 639 l 1,34,-1
 336 714 l 1,35,-1
 432 714 l 1,36,-1
 320 579 l 1,37,-1
 232 579 l 1,38,-1
 119 714 l 1,32,-1
EndSplineSet
EndChar

StartChar: Ydieresis
Encoding: 376 376 202
Width: 540
GlyphClass: 2
Flags: W
LayerCount: 2
Fore
SplineSet
313 0 m 1,0,-1
 223 0 l 1,1,-1
 223 325 l 1,2,-1
 44 700 l 1,3,-1
 140 700 l 1,4,-1
 272 409 l 1,5,-1
 404 700 l 1,6,-1
 495 700 l 1,7,-1
 313 325 l 1,8,-1
 313 0 l 1,0,-1
413 735 m 1,9,-1
 328 735 l 1,10,-1
 328 815 l 1,11,-1
 413 815 l 1,12,-1
 413 735 l 1,9,-1
213 735 m 1,13,-1
 128 735 l 1,14,-1
 128 815 l 1,15,-1
 213 815 l 1,16,-1
 213 735 l 1,13,-1
EndSplineSet
Position2: "'cpsp' Capital Spacing in Latin lookup 0 subtable" dx=5 dy=0 dh=10 dv=0
EndChar

StartChar: Zcaron
Encoding: 381 381 203
Width: 540
GlyphClass: 2
Flags: W
LayerCount: 2
Fore
SplineSet
129 845 m 1,0,-1
 226 845 l 1,1,-1
 286 778 l 1,2,-1
 346 845 l 1,3,-1
 442 845 l 1,4,-1
 330 730 l 1,5,-1
 242 730 l 1,6,-1
 129 845 l 1,0,-1
441 74 m 1,7,-1
 441 0 l 1,8,-1
 87 0 l 1,9,-1
 87 88 l 1,10,-1
 361 626 l 1,11,-1
 110 626 l 1,12,-1
 110 700 l 1,13,-1
 451 700 l 1,14,-1
 451 612 l 1,15,-1
 178 74 l 1,16,-1
 441 74 l 1,7,-1
EndSplineSet
Position2: "'cpsp' Capital Spacing in Latin lookup 0 subtable" dx=5 dy=0 dh=10 dv=0
EndChar

StartChar: zcaron
Encoding: 382 382 204
Width: 540
GlyphClass: 2
Flags: W
LayerCount: 2
Fore
SplineSet
485 74 m 1,0,-1
 485 0 l 1,1,-1
 167 0 l 1,2,-1
 167 80 l 1,3,-1
 401 426 l 1,4,-1
 187 426 l 1,5,-1
 187 500 l 1,6,-1
 495 500 l 1,7,-1
 495 411 l 1,8,-1
 263 74 l 1,9,-1
 485 74 l 1,0,-1
189 714 m 1,10,-1
 286 714 l 1,11,-1
 346 639 l 1,12,-1
 406 714 l 1,13,-1
 502 714 l 1,14,-1
 390 579 l 1,15,-1
 302 579 l 1,16,-1
 189 714 l 1,10,-1
EndSplineSet
EndChar

StartChar: florin
Encoding: 402 402 205
Width: 540
GlyphClass: 2
Flags: W
LayerCount: 2
Fore
SplineSet
481 625 m 1,0,-1
 345 625 l 2,1,2
 329 625 329 625 319.5 616.5 c 128,-1,3
 310 608 310 608 310 595 c 2,4,-1
 310 500 l 1,5,-1
 471 500 l 1,6,-1
 471 425 l 1,7,-1
 310 425 l 1,8,-1
 310 -60 l 2,9,10
 310 -111 310 -111 281 -140.5 c 128,-1,11
 252 -170 252 -170 206 -170 c 2,12,-1
 79 -170 l 1,13,-1
 79 -95 l 1,14,-1
 190 -95 l 2,15,16
 206 -95 206 -95 215.5 -86.5 c 128,-1,17
 225 -78 225 -78 225 -65 c 2,18,-1
 225 425 l 1,19,-1
 140 425 l 1,20,-1
 140 500 l 1,21,-1
 225 500 l 1,22,-1
 225 590 l 2,23,24
 225 641 225 641 254 670.5 c 128,-1,25
 283 700 283 700 329 700 c 2,26,-1
 481 700 l 1,27,-1
 481 625 l 1,0,-1
EndSplineSet
EndChar

StartChar: circumflex
Encoding: 710 710 206
Width: 540
GlyphClass: 2
Flags: W
LayerCount: 2
Fore
SplineSet
426 580 m 1,0,-1
 329 580 l 1,1,-1
 269 655 l 1,2,-1
 209 580 l 1,3,-1
 113 580 l 1,4,-1
 225 715 l 1,5,-1
 313 715 l 1,6,-1
 426 580 l 1,0,-1
EndSplineSet
EndChar

StartChar: caron
Encoding: 711 711 207
Width: 540
GlyphClass: 2
Flags: W
LayerCount: 2
Fore
SplineSet
113 714 m 1,0,-1
 210 714 l 1,1,-1
 270 639 l 1,2,-1
 330 714 l 1,3,-1
 426 714 l 1,4,-1
 314 579 l 1,5,-1
 226 579 l 1,6,-1
 113 714 l 1,0,-1
EndSplineSet
EndChar

StartChar: uni02C9
Encoding: 713 713 208
Width: 540
GlyphClass: 2
Flags: W
LayerCount: 2
Fore
SplineSet
397 605 m 1,0,-1
 142 605 l 1,1,-1
 142 675 l 1,2,-1
 397 675 l 1,3,-1
 397 605 l 1,0,-1
EndSplineSet
EndChar

StartChar: breve
Encoding: 728 728 209
Width: 540
GlyphClass: 2
Flags: W
LayerCount: 2
Fore
SplineSet
280 649 m 2,0,1
 310 649 310 649 320 666 c 128,-1,2
 330 683 330 683 330 715 c 1,3,-1
 412 715 l 1,4,5
 412 664 412 664 381.5 624.5 c 128,-1,6
 351 585 351 585 280 585 c 2,7,-1
 260 585 l 2,8,9
 189 585 189 585 158.5 624.5 c 128,-1,10
 128 664 128 664 128 715 c 1,11,-1
 210 715 l 1,12,13
 210 683 210 683 220 666 c 128,-1,14
 230 649 230 649 260 649 c 2,15,-1
 280 649 l 2,0,1
EndSplineSet
EndChar

StartChar: dotaccent
Encoding: 729 729 210
Width: 540
GlyphClass: 2
Flags: W
LayerCount: 2
Fore
SplineSet
312 615 m 1,0,-1
 227 615 l 1,1,-1
 227 700 l 1,2,-1
 312 700 l 1,3,-1
 312 615 l 1,0,-1
EndSplineSet
EndChar

StartChar: ring
Encoding: 730 730 211
Width: 540
GlyphClass: 2
Flags: W
LayerCount: 2
Fore
SplineSet
362 633 m 2,0,1
 362 592 362 592 337 570 c 128,-1,2
 312 548 312 548 273 548 c 2,3,-1
 267 548 l 2,4,5
 228 548 228 548 203 570 c 128,-1,6
 178 592 178 592 178 633 c 2,7,-1
 178 662 l 2,8,9
 178 704 178 704 202.5 725.5 c 128,-1,10
 227 747 227 747 267 747 c 2,11,-1
 273 747 l 2,12,13
 313 747 313 747 337.5 725.5 c 128,-1,14
 362 704 362 704 362 662 c 2,15,-1
 362 633 l 2,0,1
305 632 m 2,16,-1
 305 663 l 2,17,18
 305 701 305 701 273 701 c 2,19,-1
 267 701 l 2,20,21
 233 701 233 701 233 663 c 2,22,-1
 233 632 l 2,23,24
 233 594 233 594 267 594 c 2,25,-1
 273 594 l 2,26,27
 305 594 305 594 305 632 c 2,16,-1
EndSplineSet
EndChar

StartChar: ogonek
Encoding: 731 731 212
Width: 540
GlyphClass: 2
Flags: W
LayerCount: 2
Fore
SplineSet
358 -180 m 1,0,-1
 269 -180 l 2,1,2
 208 -180 208 -180 190 -136 c 0,3,4
 181 -116 181 -116 181 -85 c 2,5,-1
 181 60 l 1,6,-1
 255 60 l 1,7,-1
 255 -85 l 2,8,9
 255 -113 255 -113 287 -113 c 2,10,-1
 358 -113 l 1,11,-1
 358 -180 l 1,0,-1
EndSplineSet
EndChar

StartChar: tilde
Encoding: 732 732 213
Width: 540
GlyphClass: 2
Flags: W
LayerCount: 2
Fore
SplineSet
207 700 m 2,0,-1
 222 700 l 2,1,2
 234 700 234 700 278 680 c 128,-1,3
 322 660 322 660 333 660 c 2,4,-1
 343 660 l 2,5,6
 354 660 354 660 396 687 c 2,7,-1
 410 696 l 1,8,-1
 410 624 l 1,9,10
 359 591 359 591 342 591 c 2,11,-1
 327 591 l 2,12,13
 321 591 321 591 274.5 611 c 128,-1,14
 228 631 228 631 217 631 c 2,15,-1
 207 631 l 2,16,17
 194 631 194 631 146 604 c 2,18,-1
 130 595 l 1,19,-1
 130 667 l 1,20,21
 188 700 188 700 207 700 c 2,0,-1
EndSplineSet
EndChar

StartChar: hungarumlaut
Encoding: 733 733 214
Width: 540
GlyphClass: 2
Flags: W
LayerCount: 2
Fore
SplineSet
295 745 m 1,0,-1
 168 598 l 1,1,-1
 77 598 l 1,2,-1
 180 745 l 1,3,-1
 295 745 l 1,0,-1
465 745 m 1,4,-1
 338 598 l 1,5,-1
 247 598 l 1,6,-1
 350 745 l 1,7,-1
 465 745 l 1,4,-1
EndSplineSet
EndChar

StartChar: uni03BC
Encoding: 956 956 215
Width: 540
GlyphClass: 2
Flags: W
LayerCount: 2
Fore
SplineSet
188 -170 m 1,0,-1
 103 -170 l 1,1,-1
 103 500 l 1,2,-1
 188 500 l 1,3,-1
 188 140 l 2,4,5
 188 110 188 110 205.5 92.5 c 128,-1,6
 223 75 223 75 253 75 c 2,7,-1
 287 75 l 2,8,9
 320 75 320 75 336 92.5 c 128,-1,10
 352 110 352 110 352 130 c 2,11,-1
 352 500 l 1,12,-1
 437 500 l 1,13,-1
 437 0 l 1,14,-1
 357 0 l 1,15,-1
 357 23 l 1,16,17
 324 0 324 0 277 0 c 2,18,-1
 263 0 l 2,19,20
 218 0 218 0 188 10 c 1,21,-1
 188 -170 l 1,0,-1
EndSplineSet
EndChar

StartChar: pi
Encoding: 960 960 216
Width: 540
GlyphClass: 2
Flags: W
LayerCount: 2
Fore
SplineSet
212 0 m 1,0,-1
 127 0 l 1,1,-1
 127 427 l 1,2,-1
 48 427 l 1,3,-1
 48 500 l 1,4,-1
 492 500 l 1,5,-1
 492 427 l 1,6,-1
 402 427 l 1,7,-1
 402 105 l 2,8,9
 402 89 402 89 410 82 c 128,-1,10
 418 75 418 75 437 75 c 2,11,-1
 452 75 l 1,12,-1
 452 0 l 1,13,-1
 402 0 l 2,14,15
 368 0 368 0 342.5 24 c 128,-1,16
 317 48 317 48 317 100 c 2,17,-1
 317 427 l 1,18,-1
 212 427 l 1,19,-1
 212 0 l 1,0,-1
EndSplineSet
EndChar

StartChar: endash
Encoding: 8211 8211 217
Width: 540
GlyphClass: 2
Flags: W
LayerCount: 2
Fore
SplineSet
460 275 m 1,0,-1
 80 275 l 1,1,-1
 80 350 l 1,2,-1
 460 350 l 1,3,-1
 460 275 l 1,0,-1
EndSplineSet
EndChar

StartChar: emdash
Encoding: 8212 8212 218
Width: 540
GlyphClass: 2
Flags: W
LayerCount: 2
Fore
SplineSet
507 275 m 1,0,-1
 32 275 l 1,1,-1
 32 350 l 1,2,-1
 507 350 l 1,3,-1
 507 275 l 1,0,-1
EndSplineSet
EndChar

StartChar: quoteleft
Encoding: 8216 8216 219
Width: 540
GlyphClass: 2
Flags: W
LayerCount: 2
Fore
SplineSet
302 452 m 1,0,-1
 207 452 l 1,1,-1
 207 542 l 1,2,-1
 262 699 l 1,3,-1
 332 699 l 1,4,-1
 302 542 l 1,5,-1
 302 452 l 1,0,-1
EndSplineSet
EndChar

StartChar: quoteright
Encoding: 8217 8217 220
Width: 540
GlyphClass: 2
Flags: W
LayerCount: 2
Fore
SplineSet
237 700 m 1,0,-1
 332 700 l 1,1,-1
 332 610 l 1,2,-1
 277 453 l 1,3,-1
 207 453 l 1,4,-1
 237 610 l 1,5,-1
 237 700 l 1,0,-1
EndSplineSet
EndChar

StartChar: quotesinglbase
Encoding: 8218 8218 221
Width: 540
GlyphClass: 2
Flags: W
LayerCount: 2
Fore
SplineSet
237 90 m 1,0,-1
 332 90 l 1,1,-1
 332 0 l 1,2,-1
 277 -157 l 1,3,-1
 207 -157 l 1,4,-1
 237 0 l 1,5,-1
 237 90 l 1,0,-1
EndSplineSet
EndChar

StartChar: quotedblleft
Encoding: 8220 8220 222
Width: 540
GlyphClass: 2
Flags: W
LayerCount: 2
Fore
SplineSet
225 452 m 1,0,-1
 130 452 l 1,1,-1
 130 542 l 1,2,-1
 185 699 l 1,3,-1
 255 699 l 1,4,-1
 225 542 l 1,5,-1
 225 452 l 1,0,-1
380 452 m 1,6,-1
 285 452 l 1,7,-1
 285 542 l 1,8,-1
 340 699 l 1,9,-1
 410 699 l 1,10,-1
 380 542 l 1,11,-1
 380 452 l 1,6,-1
EndSplineSet
EndChar

StartChar: quotedblright
Encoding: 8221 8221 223
Width: 540
GlyphClass: 2
Flags: W
LayerCount: 2
Fore
SplineSet
315 700 m 1,0,-1
 410 700 l 1,1,-1
 410 610 l 1,2,-1
 355 453 l 1,3,-1
 285 453 l 1,4,-1
 315 610 l 1,5,-1
 315 700 l 1,0,-1
160 700 m 1,6,-1
 255 700 l 1,7,-1
 255 610 l 1,8,-1
 200 453 l 1,9,-1
 130 453 l 1,10,-1
 160 610 l 1,11,-1
 160 700 l 1,6,-1
EndSplineSet
EndChar

StartChar: quotedblbase
Encoding: 8222 8222 224
Width: 540
GlyphClass: 2
Flags: W
LayerCount: 2
Fore
SplineSet
315 90 m 1,0,-1
 410 90 l 1,1,-1
 410 0 l 1,2,-1
 355 -157 l 1,3,-1
 285 -157 l 1,4,-1
 315 0 l 1,5,-1
 315 90 l 1,0,-1
160 90 m 1,6,-1
 255 90 l 1,7,-1
 255 0 l 1,8,-1
 200 -157 l 1,9,-1
 130 -157 l 1,10,-1
 160 0 l 1,11,-1
 160 90 l 1,6,-1
EndSplineSet
EndChar

StartChar: dagger
Encoding: 8224 8224 225
Width: 540
GlyphClass: 2
Flags: W
LayerCount: 2
Fore
SplineSet
310 0 m 1,0,-1
 230 0 l 1,1,-1
 230 425 l 1,2,-1
 89 425 l 1,3,-1
 89 500 l 1,4,-1
 230 500 l 1,5,-1
 230 700 l 1,6,-1
 310 700 l 1,7,-1
 310 500 l 1,8,-1
 450 500 l 1,9,-1
 450 425 l 1,10,-1
 310 425 l 1,11,-1
 310 0 l 1,0,-1
EndSplineSet
EndChar

StartChar: daggerdbl
Encoding: 8225 8225 226
Width: 540
GlyphClass: 2
Flags: W
LayerCount: 2
Fore
SplineSet
310 0 m 1,0,-1
 230 0 l 1,1,-1
 230 210 l 1,2,-1
 89 210 l 1,3,-1
 89 285 l 1,4,-1
 230 285 l 1,5,-1
 230 425 l 1,6,-1
 89 425 l 1,7,-1
 89 500 l 1,8,-1
 230 500 l 1,9,-1
 230 700 l 1,10,-1
 310 700 l 1,11,-1
 310 500 l 1,12,-1
 450 500 l 1,13,-1
 450 425 l 1,14,-1
 310 425 l 1,15,-1
 310 285 l 1,16,-1
 450 285 l 1,17,-1
 450 210 l 1,18,-1
 310 210 l 1,19,-1
 310 0 l 1,0,-1
EndSplineSet
EndChar

StartChar: bullet
Encoding: 8226 8226 227
Width: 540
GlyphClass: 2
Flags: W
LayerCount: 2
Fore
SplineSet
345 235 m 1,0,-1
 195 235 l 1,1,-1
 195 390 l 1,2,-1
 345 390 l 1,3,-1
 345 235 l 1,0,-1
EndSplineSet
EndChar

StartChar: ellipsis
Encoding: 8230 8230 228
Width: 540
GlyphClass: 2
Flags: W
LayerCount: 2
Fore
SplineSet
140 0 m 1,0,-1
 40 0 l 1,1,-1
 40 100 l 1,2,-1
 140 100 l 1,3,-1
 140 0 l 1,0,-1
320 0 m 1,4,-1
 220 0 l 1,5,-1
 220 100 l 1,6,-1
 320 100 l 1,7,-1
 320 0 l 1,4,-1
500 0 m 1,8,-1
 400 0 l 1,9,-1
 400 100 l 1,10,-1
 500 100 l 1,11,-1
 500 0 l 1,8,-1
EndSplineSet
EndChar

StartChar: perthousand
Encoding: 8240 8240 229
Width: 540
GlyphClass: 3
Flags: W
LayerCount: 2
Fore
SplineSet
529 374 m 1,0,-1
 14 301 l 1,1,-1
 14 363 l 1,2,-1
 529 436 l 1,3,-1
 529 374 l 1,0,-1
261 532 m 2,4,5
 261 469 261 469 229 436.5 c 128,-1,6
 197 404 197 404 139 404 c 2,7,-1
 131 404 l 2,8,9
 73 404 73 404 41 436.5 c 128,-1,10
 9 469 9 469 9 532 c 2,11,-1
 9 572 l 2,12,13
 9 635 9 635 41 667.5 c 128,-1,14
 73 700 73 700 131 700 c 2,15,-1
 139 700 l 2,16,17
 197 700 197 700 229 667.5 c 128,-1,18
 261 635 261 635 261 572 c 2,19,-1
 261 532 l 2,4,5
191 521 m 2,20,-1
 191 583 l 2,21,22
 191 608 191 608 178 624 c 128,-1,23
 165 640 165 640 139 640 c 2,24,-1
 131 640 l 2,25,26
 105 640 105 640 92 624 c 128,-1,27
 79 608 79 608 79 583 c 2,28,-1
 79 521 l 2,29,30
 79 496 79 496 92 480 c 128,-1,31
 105 464 105 464 131 464 c 2,32,-1
 139 464 l 2,33,34
 165 464 165 464 178 480 c 128,-1,35
 191 496 191 496 191 521 c 2,20,-1
261 128 m 2,36,37
 261 65 261 65 229 32.5 c 128,-1,38
 197 0 197 0 139 0 c 2,39,-1
 131 0 l 2,40,41
 73 0 73 0 41 32.5 c 128,-1,42
 9 65 9 65 9 128 c 2,43,-1
 9 168 l 2,44,45
 9 231 9 231 41 263.5 c 128,-1,46
 73 296 73 296 131 296 c 2,47,-1
 139 296 l 2,48,49
 197 296 197 296 229 263.5 c 128,-1,50
 261 231 261 231 261 168 c 2,51,-1
 261 128 l 2,36,37
191 117 m 2,52,-1
 191 179 l 2,53,54
 191 204 191 204 178 220 c 128,-1,55
 165 236 165 236 139 236 c 2,56,-1
 131 236 l 2,57,58
 105 236 105 236 92 220 c 128,-1,59
 79 204 79 204 79 179 c 2,60,-1
 79 117 l 2,61,62
 79 92 79 92 92 76 c 128,-1,63
 105 60 105 60 131 60 c 2,64,-1
 139 60 l 2,65,66
 165 60 165 60 178 76 c 128,-1,67
 191 92 191 92 191 117 c 2,52,-1
531 128 m 2,68,69
 531 65 531 65 499 32.5 c 128,-1,70
 467 0 467 0 409 0 c 2,71,-1
 401 0 l 2,72,73
 343 0 343 0 311 32.5 c 128,-1,74
 279 65 279 65 279 128 c 2,75,-1
 279 168 l 2,76,77
 279 231 279 231 311 263.5 c 128,-1,78
 343 296 343 296 401 296 c 2,79,-1
 409 296 l 2,80,81
 467 296 467 296 499 263.5 c 128,-1,82
 531 231 531 231 531 168 c 2,83,-1
 531 128 l 2,68,69
461 117 m 2,84,-1
 461 179 l 2,85,86
 461 204 461 204 448 220 c 128,-1,87
 435 236 435 236 409 236 c 2,88,-1
 401 236 l 2,89,90
 375 236 375 236 362 220 c 128,-1,91
 349 204 349 204 349 179 c 2,92,-1
 349 117 l 2,93,94
 349 92 349 92 362 76 c 128,-1,95
 375 60 375 60 401 60 c 2,96,-1
 409 60 l 2,97,98
 435 60 435 60 448 76 c 128,-1,99
 461 92 461 92 461 117 c 2,84,-1
EndSplineSet
Ligature2: "'frac' Diagonal Fractions in Latin lookup 1 subtable" zero fraction zero zero
Ligature2: "'frac' Diagonal Fractions in Latin lookup 1 subtable" zero slash zero zero
EndChar

StartChar: guilsinglleft
Encoding: 8249 8249 230
Width: 540
GlyphClass: 2
Flags: W
LayerCount: 2
Fore
SplineSet
347 92 m 1,0,-1
 281 92 l 1,1,-1
 192 299 l 1,2,-1
 281 506 l 1,3,-1
 347 506 l 1,4,-1
 284 299 l 1,5,-1
 347 92 l 1,0,-1
EndSplineSet
EndChar

StartChar: guilsinglright
Encoding: 8250 8250 231
Width: 540
GlyphClass: 2
Flags: W
LayerCount: 2
Fore
SplineSet
258 92 m 1,0,-1
 192 92 l 1,1,-1
 255 299 l 1,2,-1
 192 506 l 1,3,-1
 258 506 l 1,4,-1
 347 299 l 1,5,-1
 258 92 l 1,0,-1
EndSplineSet
EndChar

StartChar: fraction
Encoding: 8260 8260 232
Width: 540
GlyphClass: 2
Flags: W
LayerCount: 2
Fore
SplineSet
435 810 m 1,0,-1
 179 -110 l 1,1,-1
 105 -110 l 1,2,-1
 361 810 l 1,3,-1
 435 810 l 1,0,-1
EndSplineSet
EndChar

StartChar: Euro
Encoding: 8364 8364 233
Width: 540
GlyphClass: 2
Flags: W
LayerCount: 2
Fore
SplineSet
415 480 m 1,0,-1
 415 407 l 1,1,-1
 246 407 l 1,2,-1
 246 310 l 1,3,-1
 415 310 l 1,4,-1
 415 237 l 1,5,-1
 246 237 l 1,6,-1
 246 151 l 2,7,8
 246 120 246 120 269 98 c 128,-1,9
 292 76 292 76 329 76 c 2,10,-1
 451 76 l 1,11,-1
 451 0 l 1,12,-1
 339 0 l 2,13,14
 252 0 252 0 205.5 42.5 c 128,-1,15
 159 85 159 85 159 170 c 2,16,-1
 159 237 l 1,17,-1
 89 237 l 1,18,-1
 89 310 l 1,19,-1
 159 310 l 1,20,-1
 159 407 l 1,21,-1
 89 407 l 1,22,-1
 89 480 l 1,23,-1
 159 480 l 1,24,-1
 159 530 l 2,25,26
 159 615 159 615 205.5 657.5 c 128,-1,27
 252 700 252 700 339 700 c 2,28,-1
 451 700 l 1,29,-1
 451 624 l 1,30,-1
 329 624 l 2,31,32
 292 624 292 624 269 602 c 128,-1,33
 246 580 246 580 246 549 c 2,34,-1
 246 480 l 1,35,-1
 415 480 l 1,0,-1
EndSplineSet
EndChar

StartChar: trademark
Encoding: 8482 8482 234
Width: 540
GlyphClass: 2
Flags: W
LayerCount: 2
Fore
SplineSet
524 194 m 1,0,-1
 458 194 l 1,1,-1
 458 614 l 1,2,-1
 405 361 l 1,3,-1
 352 361 l 1,4,-1
 298 614 l 1,5,-1
 298 194 l 1,6,-1
 233 194 l 1,7,-1
 233 641 l 1,8,-1
 168 641 l 1,9,-1
 168 194 l 1,10,-1
 100 194 l 1,11,-1
 100 641 l 1,12,-1
 14 641 l 1,13,-1
 14 700 l 1,14,-1
 339 700 l 1,15,-1
 381 493 l 1,16,-1
 421 700 l 1,17,-1
 524 700 l 1,18,-1
 524 194 l 1,0,-1
EndSplineSet
EndChar

StartChar: Omega
Encoding: 8486 8486 235
Width: 540
GlyphClass: 2
Flags: W
LayerCount: 2
Fore
SplineSet
495 0 m 1,0,-1
 312 0 l 1,1,-1
 312 76 l 1,2,3
 339 76 339 76 358 98.5 c 128,-1,4
 377 121 377 121 377 151 c 2,5,-1
 377 549 l 2,6,7
 377 580 377 580 354 602 c 128,-1,8
 331 624 331 624 294 624 c 2,9,-1
 240 624 l 2,10,11
 203 624 203 624 180 602 c 128,-1,12
 157 580 157 580 157 549 c 2,13,-1
 157 151 l 2,14,15
 157 121 157 121 177.5 98.5 c 128,-1,16
 198 76 198 76 228 76 c 1,17,-1
 228 0 l 1,18,-1
 45 0 l 1,19,-1
 45 76 l 1,20,-1
 94 76 l 1,21,22
 70 119 70 119 70 170 c 2,23,-1
 70 530 l 2,24,25
 70 615 70 615 116.5 657.5 c 128,-1,26
 163 700 163 700 250 700 c 2,27,-1
 284 700 l 2,28,29
 371 700 371 700 417.5 657.5 c 128,-1,30
 464 615 464 615 464 530 c 2,31,-1
 464 170 l 2,32,33
 464 117 464 117 441 76 c 1,34,-1
 495 76 l 1,35,-1
 495 0 l 1,0,-1
EndSplineSet
Position2: "'cpsp' Capital Spacing in Latin lookup 0 subtable" dx=5 dy=0 dh=10 dv=0
EndChar

StartChar: partialdiff
Encoding: 8706 8706 236
Width: 540
GlyphClass: 2
Flags: W
LayerCount: 2
Fore
SplineSet
96 170 m 2,0,-1
 96 280 l 2,1,2
 96 364 96 364 137 402 c 128,-1,3
 178 440 178 440 264 440 c 2,4,-1
 362 440 l 1,5,-1
 362 549 l 2,6,7
 362 580 362 580 339 602 c 128,-1,8
 316 624 316 624 279 624 c 2,9,-1
 144 624 l 1,10,-1
 144 700 l 1,11,-1
 269 700 l 2,12,13
 447 700 447 700 447 530 c 2,14,-1
 447 170 l 2,15,16
 447 88 447 88 402 44 c 128,-1,17
 357 0 357 0 289 0 c 2,18,-1
 254 0 l 2,19,20
 186 0 186 0 141 44 c 128,-1,21
 96 88 96 88 96 170 c 2,0,-1
362 365 m 1,22,-1
 254 365 l 2,23,24
 181 365 181 365 181 299 c 2,25,-1
 181 151 l 2,26,27
 181 119 181 119 202 97 c 128,-1,28
 223 75 223 75 259 75 c 2,29,-1
 284 75 l 2,30,31
 320 75 320 75 341 97 c 128,-1,32
 362 119 362 119 362 151 c 2,33,-1
 362 365 l 1,22,-1
EndSplineSet
EndChar

StartChar: Delta
Encoding: 8710 8710 237
Width: 540
GlyphClass: 2
Flags: W
LayerCount: 2
Fore
SplineSet
490 0 m 1,0,-1
 50 0 l 1,1,-1
 218 700 l 1,2,-1
 329 700 l 1,3,-1
 490 0 l 1,0,-1
382 75 m 1,4,-1
 273 625 l 1,5,-1
 158 75 l 1,6,-1
 382 75 l 1,4,-1
EndSplineSet
Position2: "'cpsp' Capital Spacing in Latin lookup 0 subtable" dx=5 dy=0 dh=10 dv=0
EndChar

StartChar: product
Encoding: 8719 8719 238
Width: 540
GlyphClass: 2
Flags: W
LayerCount: 2
Fore
SplineSet
209 0 m 1,0,-1
 122 0 l 1,1,-1
 122 625 l 1,2,-1
 43 625 l 1,3,-1
 43 700 l 1,4,-1
 497 700 l 1,5,-1
 497 625 l 1,6,-1
 406 625 l 1,7,-1
 406 105 l 2,8,9
 406 89 406 89 413 82 c 128,-1,10
 420 75 420 75 439 75 c 2,11,-1
 454 75 l 1,12,-1
 454 0 l 1,13,-1
 404 0 l 2,14,15
 370 0 370 0 344.5 24 c 128,-1,16
 319 48 319 48 319 100 c 2,17,-1
 319 625 l 1,18,-1
 209 625 l 1,19,-1
 209 0 l 1,0,-1
EndSplineSet
EndChar

StartChar: summation
Encoding: 8721 8721 239
Width: 540
GlyphClass: 2
Flags: W
LayerCount: 2
Fore
SplineSet
462 -170 m 1,0,-1
 77 -170 l 1,1,-1
 77 -76 l 1,2,-1
 245 267 l 1,3,-1
 90 605 l 1,4,-1
 90 700 l 1,5,-1
 451 700 l 1,6,-1
 451 625 l 1,7,-1
 178 625 l 1,8,-1
 340 267 l 1,9,-1
 163 -96 l 1,10,-1
 462 -96 l 1,11,-1
 462 -170 l 1,0,-1
EndSplineSet
EndChar

StartChar: minus
Encoding: 8722 8722 240
Width: 540
GlyphClass: 2
Flags: W
LayerCount: 2
Fore
SplineSet
460 275 m 1,0,-1
 80 275 l 1,1,-1
 80 350 l 1,2,-1
 460 350 l 1,3,-1
 460 275 l 1,0,-1
EndSplineSet
EndChar

StartChar: uni2215
Encoding: 8725 8725 241
Width: 540
GlyphClass: 2
Flags: W
LayerCount: 2
Fore
SplineSet
470 810 m 1,0,-1
 150 -100 l 1,1,-1
 70 -100 l 1,2,-1
 390 810 l 1,3,-1
 470 810 l 1,0,-1
EndSplineSet
EndChar

StartChar: uni2219
Encoding: 8729 8729 242
Width: 540
GlyphClass: 2
Flags: W
LayerCount: 2
Fore
SplineSet
320 260 m 1,0,-1
 220 260 l 1,1,-1
 220 360 l 1,2,-1
 320 360 l 1,3,-1
 320 260 l 1,0,-1
EndSplineSet
EndChar

StartChar: radical
Encoding: 8730 8730 243
Width: 540
GlyphClass: 2
Flags: W
LayerCount: 2
Fore
SplineSet
517 745 m 1,0,-1
 411 745 l 1,1,-1
 246 0 l 1,2,-1
 121 0 l 1,3,-1
 22 392 l 1,4,-1
 111 392 l 1,5,-1
 183 81 l 1,6,-1
 340 820 l 1,7,-1
 517 820 l 1,8,-1
 517 745 l 1,0,-1
EndSplineSet
EndChar

StartChar: infinity
Encoding: 8734 8734 244
Width: 540
GlyphClass: 2
Flags: W
LayerCount: 2
Fore
SplineSet
164 141 m 2,0,-1
 154 141 l 2,1,2
 75 141 75 141 44 179.5 c 128,-1,3
 13 218 13 218 13 298 c 2,4,-1
 13 318 l 2,5,6
 13 398 13 398 44 436.5 c 128,-1,7
 75 475 75 475 154 475 c 2,8,-1
 164 475 l 2,9,10
 235 475 235 475 272 422 c 1,11,12
 309 475 309 475 376 475 c 2,13,-1
 386 475 l 2,14,15
 465 475 465 475 496 436.5 c 128,-1,16
 527 398 527 398 527 318 c 2,17,-1
 527 303 l 2,18,19
 527 223 527 223 495.5 182 c 128,-1,20
 464 141 464 141 386 141 c 2,21,-1
 376 141 l 2,22,23
 307 141 307 141 270 194 c 1,24,25
 233 141 233 141 164 141 c 2,0,-1
448 282 m 2,26,-1
 448 342 l 1,27,28
 446 376 446 376 431.5 390.5 c 128,-1,29
 417 405 417 405 381 405 c 2,30,-1
 374 405 l 2,31,32
 315 405 315 405 311 340 c 1,33,-1
 311 282 l 2,34,35
 311 211 311 211 374 211 c 2,36,-1
 381 211 l 2,37,38
 419 211 419 211 433.5 227.5 c 128,-1,39
 448 244 448 244 448 282 c 2,26,-1
92 334 m 2,40,-1
 92 274 l 1,41,42
 94 240 94 240 108.5 225.5 c 128,-1,43
 123 211 123 211 159 211 c 2,44,-1
 166 211 l 2,45,46
 225 211 225 211 229 276 c 1,47,-1
 229 334 l 2,48,49
 229 405 229 405 166 405 c 2,50,-1
 159 405 l 2,51,52
 121 405 121 405 106.5 388.5 c 128,-1,53
 92 372 92 372 92 334 c 2,40,-1
EndSplineSet
EndChar

StartChar: uni2224
Encoding: 8740 8740 245
Width: 540
GlyphClass: 2
Flags: W
LayerCount: 2
Fore
SplineSet
320 260 m 1,0,-1
 220 260 l 1,1,-1
 220 360 l 1,2,-1
 320 360 l 1,3,-1
 320 260 l 1,0,-1
EndSplineSet
EndChar

StartChar: logicaland
Encoding: 8743 8743 246
Width: 540
GlyphClass: 2
Flags: W
LayerCount: 2
Fore
SplineSet
320 260 m 1,0,-1
 220 260 l 1,1,-1
 220 360 l 1,2,-1
 320 360 l 1,3,-1
 320 260 l 1,0,-1
EndSplineSet
EndChar

StartChar: integral
Encoding: 8747 8747 247
Width: 540
GlyphClass: 2
Flags: W
LayerCount: 2
Fore
SplineSet
69 -160 m 1,0,-1
 190 -160 l 2,1,2
 206 -160 206 -160 215.5 -151.5 c 128,-1,3
 225 -143 225 -143 225 -130 c 2,4,-1
 225 710 l 2,5,6
 225 761 225 761 254 790.5 c 128,-1,7
 283 820 283 820 329 820 c 2,8,-1
 471 820 l 1,9,-1
 471 745 l 1,10,-1
 345 745 l 2,11,12
 329 745 329 745 319.5 736.5 c 128,-1,13
 310 728 310 728 310 715 c 2,14,-1
 310 -125 l 2,15,16
 310 -176 310 -176 281 -205.5 c 128,-1,17
 252 -235 252 -235 206 -235 c 2,18,-1
 69 -235 l 1,19,-1
 69 -160 l 1,0,-1
EndSplineSet
EndChar

StartChar: approxequal
Encoding: 8776 8776 248
Width: 540
GlyphClass: 2
Flags: W
LayerCount: 2
Fore
SplineSet
197 458 m 2,0,-1
 212 458 l 2,1,2
 224 458 224 458 278 438 c 128,-1,3
 332 418 332 418 343 418 c 2,4,-1
 353 418 l 2,5,6
 364 418 364 418 421 445 c 2,7,-1
 440 454 l 1,8,-1
 440 374 l 1,9,10
 369 339 369 339 352 339 c 2,11,-1
 337 339 l 2,12,13
 331 339 331 339 274.5 359 c 128,-1,14
 218 379 218 379 207 379 c 2,15,-1
 197 379 l 2,16,17
 184 379 184 379 121 352 c 2,18,-1
 100 343 l 1,19,-1
 100 423 l 1,20,21
 178 458 178 458 197 458 c 2,0,-1
197 289 m 2,22,-1
 212 289 l 2,23,24
 224 289 224 289 278 269 c 128,-1,25
 332 249 332 249 343 249 c 2,26,-1
 353 249 l 2,27,28
 364 249 364 249 421 276 c 2,29,-1
 440 285 l 1,30,-1
 440 205 l 1,31,32
 369 170 369 170 352 170 c 2,33,-1
 337 170 l 2,34,35
 331 170 331 170 274.5 190 c 128,-1,36
 218 210 218 210 207 210 c 2,37,-1
 197 210 l 2,38,39
 184 210 184 210 121 183 c 2,40,-1
 100 174 l 1,41,-1
 100 254 l 1,42,43
 178 289 178 289 197 289 c 2,22,-1
EndSplineSet
EndChar

StartChar: notequal
Encoding: 8800 8800 249
Width: 540
GlyphClass: 2
Flags: W
LayerCount: 2
Fore
SplineSet
460 375 m 1,0,-1
 349 375 l 1,1,-1
 271 250 l 1,2,-1
 460 250 l 1,3,-1
 460 175 l 1,4,-1
 225 175 l 1,5,-1
 160 70 l 1,6,-1
 80 70 l 1,7,-1
 145 175 l 1,8,-1
 80 175 l 1,9,-1
 80 250 l 1,10,-1
 191 250 l 1,11,-1
 269 375 l 1,12,-1
 80 375 l 1,13,-1
 80 450 l 1,14,-1
 315 450 l 1,15,-1
 380 555 l 1,16,-1
 460 555 l 1,17,-1
 395 450 l 1,18,-1
 460 450 l 1,19,-1
 460 375 l 1,0,-1
EndSplineSet
EndChar

StartChar: lessequal
Encoding: 8804 8804 250
Width: 540
GlyphClass: 2
Flags: W
LayerCount: 2
Fore
SplineSet
460 125 m 1,0,-1
 80 280 l 1,1,-1
 80 385 l 1,2,-1
 460 564 l 1,3,-1
 460 472 l 1,4,-1
 152 336 l 1,5,-1
 460 219 l 1,6,-1
 460 125 l 1,0,-1
460 0 m 1,7,-1
 80 0 l 1,8,-1
 80 75 l 1,9,-1
 460 75 l 1,10,-1
 460 0 l 1,7,-1
EndSplineSet
EndChar

StartChar: greaterequal
Encoding: 8805 8805 251
Width: 540
GlyphClass: 2
Flags: W
LayerCount: 2
Fore
SplineSet
460 280 m 1,0,-1
 80 125 l 1,1,-1
 80 219 l 1,2,-1
 388 336 l 1,3,-1
 80 472 l 1,4,-1
 80 564 l 1,5,-1
 460 385 l 1,6,-1
 460 280 l 1,0,-1
460 0 m 1,7,-1
 80 0 l 1,8,-1
 80 75 l 1,9,-1
 460 75 l 1,10,-1
 460 0 l 1,7,-1
EndSplineSet
EndChar

StartChar: dotmath
Encoding: 8901 8901 252
Width: 540
GlyphClass: 2
Flags: W
LayerCount: 2
Fore
SplineSet
320 260 m 1,0,-1
 220 260 l 1,1,-1
 220 360 l 1,2,-1
 320 360 l 1,3,-1
 320 260 l 1,0,-1
EndSplineSet
EndChar

StartChar: uni25AF
Encoding: 9647 9647 253
Width: 540
GlyphClass: 2
Flags: W
LayerCount: 2
Fore
SplineSet
84 0 m 1,0,-1
 84 700 l 1,1,-1
 456 700 l 1,2,-1
 456 0 l 1,3,-1
 84 0 l 1,0,-1
159 72 m 1,4,-1
 381 72 l 1,5,-1
 381 628 l 1,6,-1
 159 628 l 1,7,-1
 159 72 l 1,4,-1
EndSplineSet
EndChar

StartChar: lozenge
Encoding: 9674 9674 254
Width: 540
GlyphClass: 2
Flags: W
LayerCount: 2
Fore
SplineSet
465 350 m 1,0,-1
 325 0 l 1,1,-1
 213 0 l 1,2,-1
 75 350 l 1,3,-1
 215 700 l 1,4,-1
 325 700 l 1,5,-1
 465 350 l 1,0,-1
378 350 m 1,6,-1
 270 630 l 1,7,-1
 162 350 l 1,8,-1
 270 70 l 1,9,-1
 378 350 l 1,6,-1
EndSplineSet
EndChar

StartChar: fi
Encoding: 64257 64257 255
Width: 540
GlyphClass: 3
Flags: W
LayerCount: 2
Fore
SplineSet
320 260 m 1,0,-1
 220 260 l 1,1,-1
 220 360 l 1,2,-1
 320 360 l 1,3,-1
 320 260 l 1,0,-1
EndSplineSet
Ligature2: "'liga' Standard Ligatures in Latin lookup 3 subtable" f i
EndChar

StartChar: fl
Encoding: 64258 64258 256
Width: 540
GlyphClass: 3
Flags: W
LayerCount: 2
Fore
SplineSet
320 260 m 1,0,-1
 220 260 l 1,1,-1
 220 360 l 1,2,-1
 320 360 l 1,3,-1
 320 260 l 1,0,-1
EndSplineSet
Ligature2: "'liga' Standard Ligatures in Latin lookup 3 subtable" f l
EndChar
